<?xml version="1.0" encoding="UTF-8"?>
<svg width="733px" height="506px" viewBox="0 0 733 506" version="1.1" xmlns="http://www.w3.org/2000/svg" xmlns:xlink="http://www.w3.org/1999/xlink" style="background: #313E99;">
    <!-- Generator: Sketch 48.2 (47327) - http://www.bohemiancoding.com/sketch -->
    <title>locations-map</title>
    <desc>Created with Sketch.</desc>
    <defs></defs>
    <g id="Home" stroke="none" stroke-width="1" fill="none" fill-rule="evenodd">
        <g id="locations-map">
            <g id="United-States" transform="translate(1.000000, 0.000000)">
                <path d="M216.13579,99.5667013 C204.980849,98.7855143 182.670968,96 182.670968,96 L176,163.272727 C176,163.272727 200.781112,165.692804 213.171668,166.597057 C231.507993,167.935228 268.180645,170 268.180645,170 L270,102.115702 C270,102.115702 234.090526,100.824082 216.13579,99.5667013 Z" id="Wyoming-(WY)" stroke="#313E99" fill="#FFFFFF" stroke-linecap="round" stroke-linejoin="round"></path>
                <polygon id="Wisconsin-(WI)" stroke="#313E99" fill="#FFFFFF" stroke-linecap="round" stroke-linejoin="round" points="416.885246 70.2809917 416.278689 72.1157025 415.065574 72.1157025 415.672131 78.231405 415.672131 81.9008264 410.819672 84.9586777 410.213115 86.7933884 409 88.6280992 409 90.4628099 410.819672 91.0743802 412.032787 92.9090909 411.42623 95.3553719 410.819672 97.1900826 411.42623 98.4132231 410.819672 99.0247934 411.42623 100.247934 410.819672 103.917355 413.852459 106.363636 416.278689 106.363636 418.098361 108.198347 420.52459 108.809917 422.95082 111.256198 424.770492 113.702479 426.590164 114.92562 429.016393 114.92562 431.442623 117.371901 432.04918 119.206612 432.04918 124.099174 432.655738 124.099174 433.262295 125.933884 435.081967 127.157025 433.868852 128.991736 434.47541 133.272727 436.295082 136.942149 439.934426 136.942149 441.147541 140 477.540984 136.330579 476.934426 133.884298 477.540984 132.661157 477.540984 130.826446 476.327869 130.214876 475.721311 127.768595 475.114754 124.099174 475.114754 121.652893 475.721311 119.818182 475.721311 117.983471 476.934426 115.53719 475.721311 114.31405 476.327869 110.644628 476.934426 108.809917 478.754098 107.586777 477.540984 105.752066 477.540984 102.082645 479.360656 99.0247934 478.754098 97.1900826 480.57377 95.3553719 481.180328 92.2975207 481.786885 89.8512397 483 88.0165289 481.786885 88.0165289 481.180328 89.8512397 479.967213 91.6859504 479.360656 91.6859504 479.360656 93.5206612 478.147541 94.7438017 478.754098 95.9669421 478.147541 96.5785124 477.540984 96.5785124 475.721311 97.1900826 474.508197 99.6363636 473.295082 100.859504 472.081967 102.694215 470.868852 102.082645 470.868852 100.247934 472.081967 97.1900826 473.295082 95.3553719 475.114754 94.1322314 475.114754 92.9090909 473.295082 91.6859504 474.508197 88.0165289 473.901639 88.0165289 472.081967 88.6280992 471.47541 88.6280992 472.688525 86.1818182 471.47541 83.1239669 469.655738 81.9008264 467.836066 81.9008264 467.836066 80.0661157 466.016393 79.4545455 461.770492 78.8429752 459.344262 79.4545455 456.918033 78.231405 449.032787 76.3966942 442.360656 75.1735537 440.540984 72.7272727 438.721311 72.1157025 434.47541 70.892562 432.04918 72.1157025 432.04918 70.892562 433.262295 66.6115702 432.04918 66 429.016393 67.8347107 427.196721 68.446281 422.95082 70.892562 419.311475 71.5041322"></polygon>
                <polygon id="West-Virginia-(WV)" stroke="#313E99" fill="#FFFFFF" stroke-linecap="round" stroke-linejoin="round" points="565.267327 208.454545 565.267327 209.070707 565.871287 209.070707 565.871287 210.30303 566.475248 210.30303 566.475248 211.535354 567.079208 211.535354 567.683168 212.767677 569.49505 212.767677 570.09901 213.383838 571.910891 214 573.722772 212.151515 574.326733 210.919192 576.742574 212.151515 577.950495 210.919192 580.366337 210.919192 580.970297 209.686869 580.366337 208.454545 581.574257 207.838384 582.782178 208.454545 585.19802 206.606061 585.80198 207.222222 588.217822 205.373737 587.613861 204.757576 588.821782 203.525253 588.821782 202.909091 587.613861 202.909091 587.613861 201.676768 588.217822 199.828283 590.633663 196.131313 591.237624 193.666667 590.633663 193.050505 592.445545 191.20202 591.841584 190.585859 593.049505 188.737374 593.049505 186.272727 593.653465 185.656566 594.861386 185.656566 596.069307 186.888889 598.485149 186.888889 599.693069 185.656566 599.693069 183.808081 600.29703 183.191919 600.29703 181.343434 600.90099 180.111111 601.50495 179.494949 603.316832 180.111111 603.920792 177.646465 605.128713 177.646465 605.128713 177.030303 606.336634 175.79798 606.336634 174.565657 607.544554 172.717172 607.544554 170.868687 608.148515 169.636364 607.544554 168.40404 608.148515 167.787879 615.39604 171.484848 616 167.787879 616 166.555556 614.792079 165.939394 614.188119 164.707071 613.584158 164.707071 614.188119 163.474747 611.772277 164.090909 609.356436 162.858586 608.752475 163.474747 608.148515 164.707071 606.336634 164.707071 605.732673 166.555556 604.524752 167.171717 602.712871 167.171717 601.50495 165.323232 601.50495 167.171717 599.693069 169.020202 597.881188 169.020202 597.277228 170.252525 596.069307 172.10101 593.653465 174.565657 591.841584 165.939394 578.554455 168.40404 575.534653 153 573.722772 154.232323 575.534653 155.464646 574.930693 157.313131 575.534653 159.161616 574.930693 161.626263 574.930693 164.707071 574.326733 168.40404 574.326733 170.868687 571.306931 172.717172 571.306931 174.565657 568.891089 177.030303 567.683168 175.79798 565.871287 177.030303 565.871287 178.262626 564.663366 178.878788 564.059406 181.343434 563.455446 182.575758 564.059406 183.191919 564.059406 184.424242 562.851485 185.656566 562.247525 185.656566 562.247525 184.424242 561.039604 183.808081 559.831683 185.040404 559.227723 186.888889 559.227723 188.121212 559.831683 191.20202 558.623762 191.818182 558.623762 193.666667 555 195.515152 555.60396 197.363636 555 199.828283 557.415842 202.292929 558.019802 203.525253 560.435644 206.606061 563.455446 208.454545"></polygon>
                <polygon id="Washington-D.C.-(DC)" stroke="#313E99" fill="#FFFFFF" stroke-linecap="round" stroke-linejoin="round" points="628.5 175 630 173.8 627.75 172 627 173.2 627.75 173.8"></polygon>
                <path d="M111.921569,71 L111.921569,69.17 L112.529412,68.56 L112.529412,67.34 L111.313725,64.9 L118,22.81 C118,22.81 83.5649457,16.8227081 66.3474185,13.5240622 C61.277364,12.5527081 51.1372549,10 51.1372549,10 L50.5294118,11.22 L51.1372549,14.27 L52.9607843,14.27 L52.9607843,16.71 L52.3529412,19.15 L51.1372549,19.15 L50.5294118,17.93 L49.9215686,16.71 L48.0980392,14.27 L46.8823529,14.88 L48.0980392,15.49 L49.3137255,16.71 L48.0980392,17.32 L46.2745098,16.1 L44.4509804,15.49 L45.0588235,17.32 L48.0980392,18.54 L49.3137255,17.32 L50.5294118,19.15 L48.7058824,21.59 L49.3137255,23.42 L50.5294118,27.08 L51.745098,27.69 L51.1372549,25.86 L49.9215686,22.81 L50.5294118,20.98 L51.745098,20.98 L52.9607843,21.59 L52.9607843,24.03 L52.9607843,25.86 L54.1764706,26.47 L52.9607843,28.3 L51.1372549,30.13 L51.1372549,31.96 L51.1372549,33.79 L50.5294118,36.84 L49.3137255,38.67 L48.0980392,38.06 L46.2745098,39.89 L45.6666667,40.5 L43.8431373,39.89 L42.627451,40.5 L40.8039216,39.89 L42.0196078,38.06 L43.8431373,36.23 L45.0588235,36.84 L46.2745098,35.62 L47.4901961,37.45 L48.0980392,33.79 L46.8823529,33.18 L47.4901961,30.74 C46.846935,30.74 49.3137255,30.74 49.3137255,30.74 L49.9215686,28.91 L45.6666667,31.35 L44.4509804,31.96 L42.0196078,33.79 L43.2352941,35.01 L44.4509804,35.01 L43.2352941,35.62 L40.1960784,35.62 L40.8039216,34.4 L43.2352941,31.96 L45.0588235,30.13 L45.0588235,28.3 L46.2745098,28.3 L46.2745098,29.52 L48.0980392,27.69 L46.8823529,24.03 L46.8823529,25.86 L45.0588235,24.03 L44.4509804,24.64 L42.627451,22.81 L40.8039216,22.81 L34.1176471,20.37 L31.6862745,19.15 L30.4705882,17.93 L26.2156863,15.49 L25,18.54 L25,22.2 L26.8235294,24.64 L27.4313725,27.08 L26.8235294,31.96 L28.0392157,33.79 L27.4313725,37.45 L29.254902,37.45 L29.254902,38.67 L31.6862745,39.89 L28.6470588,40.5 L28.0392157,41.72 L27.4313725,41.11 L27.4313725,42.94 L29.8627451,42.94 L31.0784314,44.77 L29.254902,44.77 L28.6470588,47.21 L29.254902,49.04 L27.4313725,49.04 L26.8235294,47.82 L26.2156863,50.26 L27.4313725,50.26 L28.6470588,50.87 L31.0784314,50.87 L31.6862745,51.48 L33.5098039,51.48 L34.1176471,53.31 L35.3333333,53.92 L37.1568627,53.92 L38.9803922,55.75 L40.1960784,58.8 L39.5882353,63.07 L39.5882353,64.29 L43.8431373,65.51 L45.6666667,66.73 L49.9215686,65.51 L51.745098,64.9 L55.3921569,65.51 L58.4313725,66.73 L59.0392157,68.56 L61.4705882,67.95 L62.0784314,68.56 L66.3333333,67.95 L69.372549,68.56 L72.4117647,67.95 L77.8823529,67.34 L79.7058824,66.73 L85.1764706,67.95 L87,66.73 L111.921569,71 Z" id="Washington-(WA)" stroke="#313E99" fill="#5ADBFF" stroke-linecap="round" stroke-linejoin="round"></path>
                <path d="M648.352273,210.244898 L648.352273,209.020408 L648.960227,209.020408 L648.960227,205.959184 L647.744318,204.122449 L643.488636,204.122449 L644.096591,205.959184 L642.272727,205.346939 L641.056818,206.571429 L641.056818,204.734694 L638.017045,203.510204 L638.017045,201.673469 L636.193182,201.673469 L634.369318,201.673469 L633.153409,200.44898 L628.897727,201.061224 L628.897727,199.836735 L633.761364,199.22449 L634.369318,200.44898 L634.977273,198.612245 L635.585227,200.44898 L638.017045,200.44898 L638.625,200.44898 L638.625,201.673469 L642.272727,203.510204 L643.488636,202.285714 L642.272727,201.673469 L642.272727,200.44898 L641.056818,199.836735 L639.232955,199.836735 L634.977273,196.163265 L634.977273,194.938776 L639.232955,198.612245 L641.056818,198.612245 L639.840909,197.387755 L640.448864,195.55102 L642.880682,197.387755 L642.272727,195.55102 L640.448864,194.326531 L638.017045,193.714286 L636.801136,191.877551 L634.977273,191.265306 L632.545455,189.428571 L630.721591,186.979592 L629.505682,186.979592 L627.681818,186.367347 L628.289773,185.755102 L630.721591,185.755102 L634.977273,190.040816 L636.193182,190.040816 L638.625,192.489796 L638.625,191.265306 L640.448864,192.489796 L640.448864,190.040816 L639.840909,188.816327 L641.056818,188.204082 L639.232955,187.591837 L636.801136,186.979592 L636.193182,185.755102 L634.369318,185.142857 L633.153409,185.755102 L630.721591,185.142857 L628.897727,183.306122 L628.897727,182.081633 L627.073864,183.918367 L624.642045,183.918367 L624.642045,182.693878 L624.642045,182.081633 L624.642045,178.408163 L625.857955,177.183673 L627.073864,176.571429 L627.073864,174.734694 L626.465909,173.510204 L625.857955,172.897959 L624.034091,172.897959 L623.426136,171.673469 L620.994318,171.673469 L619.778409,170.44898 L620.386364,168.612245 L618.5625,168 L616.130682,168 L615.522727,171.673469 L608.227273,168 L607.619318,168.612245 L608.227273,169.836735 L607.619318,171.061224 L607.619318,172.897959 L606.403409,174.734694 L606.403409,175.959184 L605.1875,177.183673 L605.1875,177.795918 L603.971591,177.795918 L603.363636,180.244898 L601.539773,179.632653 L600.931818,180.244898 L600.323864,181.469388 L600.323864,183.306122 L599.715909,183.918367 L599.715909,185.755102 L598.5,186.979592 L596.068182,186.979592 L594.852273,185.755102 L593.636364,185.755102 L593.028409,186.367347 L593.028409,188.816327 L591.8125,190.653061 L592.420455,191.265306 L590.596591,193.102041 L591.204545,193.714286 L590.596591,196.163265 L588.164773,199.836735 L587.556818,201.673469 L587.556818,202.897959 L588.772727,202.897959 L588.772727,203.510204 L587.556818,204.734694 L588.164773,205.346939 L585.732955,207.183673 L585.125,206.571429 L582.693182,208.408163 L581.477273,207.795918 L580.261364,208.408163 L580.869318,209.632653 L580.261364,210.857143 L577.829545,210.857143 L576.613636,212.081633 L574.181818,210.857143 L573.573864,212.081633 L571.75,213.918367 L569.926136,213.306122 L569.318182,212.693878 L567.494318,212.693878 L566.886364,211.469388 L566.278409,211.469388 L566.278409,210.244898 L565.670455,210.244898 L565.670455,209.020408 L565.0625,209.020408 L560.806818,214.530612 L556.551136,216.979592 L556.551136,218.816327 L555.335227,220.040816 L555.335227,221.265306 L552.295455,222.489796 L551.6875,224.326531 L545,228 L571.75,223.714286 L571.75,224.326531 L648.352273,210.244898 Z M648.960227,184.530612 L648.960227,185.755102 L648.352273,186.367347 L648.960227,187.591837 L647.744318,189.428571 L647.136364,191.265306 L647.136364,193.714286 L646.528409,196.163265 L647.136364,198.612245 L647.744318,199.22449 L648.352273,197.387755 L648.352273,193.714286 L648.960227,191.877551 L650.784091,192.489796 L650.784091,188.816327 L652,186.367347 L651.392045,185.142857 L651.392045,183.306122 L648.960227,184.530612 Z" id="Virginia-(VA)" stroke="#313E99" fill="#06BEE1" stroke-linecap="round" stroke-linejoin="round"></path>
                <path d="M651,63.0869565 L673.153846,57 L673.769231,57.6086957 L674.384615,58.826087 L673.153846,61.2608696 L675,63.6956522 L674.384615,64.3043478 L674.384615,65.5217391 L672.538462,68.5652174 L671.923077,69.173913 L670.692308,69.173913 L670.076923,70.3913043 L670.692308,72.2173913 L670.692308,74.0434783 L670.692308,76.4782609 L670.076923,77.0869565 L670.076923,79.5217391 L669.461538,80.7391304 L669.461538,82.5652174 L668.846154,83.173913 L669.461538,86.826087 L670.076923,87.4347826 L669.461538,89.8695652 L670.076923,91.0869565 L670.076923,92.9130435 L669.461538,93.5217391 L669.461538,95.3478261 L671.923077,97.173913 L661.461538,99 L660.846154,98.3913043 L658.384615,87.4347826 L658.384615,86.2173913 L657.153846,85 L655.923077,86.2173913 L655.923077,82.5652174 L655.307692,81.9565217 L655.307692,81.3478261 L654.692308,80.7391304 L654.076923,78.9130435 L653.461538,78.9130435 L653.461538,75.8695652 L654.076923,74.6521739 L652.846154,72.826087 L652.230769,70.3913043 L651.615385,69.173913 L651.615385,66.1304348 L651,65.5217391 L651,63.0869565 Z" id="Vermont-(VT)" stroke="#313E99" fill="#FFFFFF" stroke-linecap="round" stroke-linejoin="round"></path>
                <path d="M138.396694,142 L128,225.72 C128,225.72 146.682313,228.312294 156.02347,229.305107 C169.514269,230.73896 196.495868,233 196.495868,233 L202,165.66 L175.702479,163.233333 L177.53719,146.853333 L138.396694,142 Z" id="Utah-(UT)" stroke="#313E99" fill="#FFFFFF" stroke-linecap="round" stroke-linejoin="round"></path>
                <path d="M278.247619,246 L320.304762,246.608696 L320.304762,279.478261 L322.133333,279.478261 L325.790476,283.130435 L327.619048,282.521739 L328.838095,282.521739 L329.447619,281.304348 L331.885714,283.73913 L331.885714,285.565217 L334.933333,285.565217 L338.590476,286.782609 L340.419048,286.173913 L342.247619,288 L344.07619,286.782609 L347.733333,286.782609 L347.733333,288.608696 L349.561905,289.217391 L350.780952,291.652174 L354.438095,288.608696 L355.047619,290.434783 L356.266667,290.434783 L358.095238,291.652174 L360.533333,290.434783 L361.752381,293.478261 L364.190476,289.217391 L367.238095,291.043478 L369.066667,290.434783 L370.285714,291.652174 L373.942857,292.869565 L375.161905,292.869565 L375.771429,291.043478 L378.819048,290.434783 L380.038095,290.434783 L383.695238,289.217391 L386.133333,289.826087 L388.571429,288.608696 L392.228571,289.826087 L394.057143,291.652174 L395.885714,292.869565 L399.542857,293.478261 L401.980952,294.695652 L402.590476,294.086957 L405.638095,294.086957 L406.247619,294.695652 L406.247619,303.826087 L406.857143,303.826087 L407.466667,321.478261 L409.295238,323.304348 L411.12381,325.73913 L411.12381,328.173913 L412.342857,329.391304 L412.342857,330 L413.561905,331.217391 L413.561905,333.043478 L414.780952,334.26087 L415.390476,334.869565 L415.390476,336.695652 L416,337.304348 L415.390476,337.913043 L415.390476,341.565217 L414.780952,343.391304 L413.561905,345.826087 L413.561905,347.652174 L412.952381,348.869565 L414.171429,351.304348 L413.561905,353.73913 L412.342857,354.956522 L411.12381,357.391304 L410.514286,358.608696 L411.733333,360.434783 L409.295238,360.434783 L403.809524,363.478261 L401.371429,363.478261 L398.32381,364.086957 L399.542857,362.26087 L400.152381,360.434783 L398.933333,359.826087 L397.714286,360.434783 L396.495238,361.652174 L394.057143,361.043478 L394.666667,363.478261 L395.885714,365.304348 L397.104762,366.521739 L396.495238,367.73913 L394.057143,370.173913 L392.838095,369.565217 L393.447619,372.608696 L389.790476,375.652174 L386.133333,378.086957 L381.866667,378.695652 L381.257143,379.913043 L378.209524,379.913043 L378.209524,378.695652 L376.380952,379.913043 L375.161905,378.695652 L373.942857,377.478261 L374.552381,380.521739 L372.72381,379.913043 L371.504762,378.695652 L370.895238,379.304348 L372.114286,381.73913 L373.333333,382.347826 L372.114286,383.565217 L374.552381,382.956522 L374.552381,384.173913 L371.504762,386 L369.066667,382.956522 L368.457143,384.782609 L368.457143,387.826087 L367.847619,389.043478 L367.238095,386.608696 L363.580952,389.043478 L362.971429,390.26087 L364.190476,391.478261 L366.019048,390.26087 L363.580952,393.913043 L358.704762,393.304348 L358.095238,394.521739 L359.92381,395.130435 L362.361905,396.956522 L359.92381,403.043478 L358.704762,401.826087 L356.87619,403.043478 L354.438095,400.608696 L355.047619,403.043478 L354.438095,403.652174 L355.047619,404.26087 L358.095238,404.869565 L359.314286,404.26087 L358.704762,408.521739 L358.095238,409.130435 L358.095238,412.782609 L359.314286,412.782609 L359.92381,416.434783 L359.314286,417.652174 L361.142857,420.695652 L362.361905,423.73913 L363.580952,424.347826 L362.971429,426.782609 L361.752381,428 L359.314286,427.391304 L356.87619,424.956522 L348.342857,424.956522 L345.295238,422.521739 L341.638095,421.913043 L339.2,419.478261 L334.933333,419.478261 L334.933333,417.652174 L333.714286,417.043478 L332.495238,412.173913 L330.666667,409.73913 L329.447619,408.521739 L329.447619,405.478261 L328.228571,403.652174 L328.838095,402.434783 L328.838095,400.608696 L328.228571,398.782609 L325.790476,397.565217 L322.742857,395.130435 L322.133333,393.304348 L319.695238,389.652174 L317.866667,388.434783 L316.647619,386.608696 L315.428571,382.347826 L313.6,379.913043 L312.990476,378.086957 L311.161905,375.652174 L311.161905,372.608696 L309.333333,371.391304 L309.333333,370.173913 L305.066667,367.73913 L305.066667,366.521739 L302.628571,365.913043 L302.628571,364.086957 L301.409524,364.086957 L299.580952,361.043478 L295.314286,361.043478 L291.657143,360.434783 L288.609524,360.434783 L286.171429,359.217391 L284.952381,361.043478 L280.685714,361.652174 L278.247619,365.304348 L277.638095,368.347826 L276.419048,370.173913 L273.371429,373.217391 L273.371429,374.434783 L269.714286,373.217391 L267.885714,371.391304 L265.447619,371.391304 L263.619048,368.956522 L260.571429,368.347826 L256.914286,364.695652 L255.085714,364.086957 L253.257143,362.26087 L252.647619,359.826087 L251.428571,357.391304 L250.819048,355.565217 L251.428571,353.73913 L248.990476,349.478261 L248.990476,347.652174 L247.161905,344.608696 L244.114286,342.173913 L241.67619,341.565217 L238.628571,337.913043 L238.628571,336.695652 L236.190476,334.869565 L233.752381,332.434783 L231.92381,331.217391 L230.095238,330 L228.266667,328.173913 L228.266667,325.73913 L227.047619,325.130435 L225.828571,324.521739 L224,322.695652 L224,320.869565 L275.809524,323.304348 L278.247619,246 Z" id="Texas-(TX)" stroke="#313E99" fill="#FFFFFF" stroke-linecap="round" stroke-linejoin="round"></path>
                <polygon id="Tennessee-(TN)" stroke="#313E99" fill="#FFFFFF" stroke-linecap="round" stroke-linejoin="round" points="456 267 539.642105 257.171429 539.642105 252.871429 540.252632 252.257143 542.694737 252.871429 543.305263 249.185714 546.968421 246.114286 550.021053 246.114286 554.294737 241.2 556.736842 241.2 557.347368 238.128571 558.568421 238.128571 559.178947 236.285714 561.010526 235.671429 561.621053 236.9 562.842105 236.9 564.063158 233.828571 567.115789 233.214286 568.336842 233.828571 570.168421 229.528571 571.389474 228.3 572 228.3 572 224 545.136842 228.3 543.915789 229.528571 487.747368 235.057143 484.084211 235.057143 484.694737 236.9 484.694737 238.128571 465.768421 239.971429 465.157895 240.585714 463.936842 239.357143 463.936842 240.585714 464.547368 243.042857 463.326316 243.042857 463.936842 244.885714 462.715789 244.885714 463.936842 246.728571 462.715789 247.342857 462.105263 249.185714 463.326316 249.8 463.936842 250.414286 462.105263 250.414286 462.105263 251.642857 462.715789 252.257143 459.663158 254.1 460.273684 256.557143 460.273684 257.785714 459.052632 257.785714 458.442105 260.242857 457.831579 262.085714 459.052632 264.542857 457.221053 264.542857"></polygon>
                <path d="M296.325738,135.586147 C287.217158,135.429772 269,134.510638 269,134.510638 L269.603774,101.159574 L270.207547,101.159574 L270.811321,86 C270.811321,86 304.448428,86.606383 321.528302,86.606383 C335.039623,86.606383 362.584906,86 362.584906,86 L361.981132,87.8191489 L360.773585,89.6382979 L358.962264,90.8510638 L360.773585,94.4893617 L363.188679,95.0957447 L364.396226,96.9148936 L365,126.62766 L363.188679,126.62766 L363.188679,127.840426 L364.396226,129.053191 L363.792453,130.87234 L365,132.085106 L364.396226,136.93617 L363.188679,138.755319 L365,143 L363.792453,143 L362.584906,141.180851 L362.584906,139.968085 L360.773585,139.968085 L360.169811,139.361702 L358.358491,138.755319 L356.54717,138.755319 L354.735849,136.93617 L351.716981,137.542553 L347.490566,137.542553 L346.283019,138.755319 L344.471698,138.755319 L339.641509,135.723404 C339.641509,135.723404 310.764328,135.834027 296.325738,135.586147 Z" id="South-Dakota-(SD)" stroke="#313E99" fill="#FFFFFF" stroke-linecap="round" stroke-linejoin="round"></path>
                <polygon id="South-Carolina-(SC)" stroke="#313E99" fill="#06BEE1" stroke-linecap="round" stroke-linejoin="round" points="561.263158 252.546512 557.026316 254.395349 555.815789 256.244186 554 259.94186 557.026316 261.174419 557.631579 261.790698 559.447368 263.023256 561.868421 262.406977 561.868421 264.255814 563.684211 265.488372 564.289474 267.337209 564.894737 267.953488 566.710526 269.186047 567.315789 271.034884 568.526316 271.034884 569.131579 272.267442 572.157895 273.5 573.973684 276.581395 575.789474 276.581395 577.605263 278.430233 577.605263 279.662791 579.421053 280.27907 579.421053 281.511628 580.631579 282.127907 580.631579 283.360465 582.447368 283.360465 585.473684 285.209302 585.473684 286.44186 586.684211 288.290698 587.289474 290.755814 587.894737 291.988372 589.710526 291.988372 590.315789 293.22093 592.131579 295.686047 592.131579 298.151163 593.342105 300 593.947368 299.383721 595.157895 299.383721 596.368421 299.383721 596.973684 297.534884 596.973684 295.686047 598.184211 296.918605 596.368421 293.837209 595.157895 291.372093 595.763158 290.755814 597.578947 293.837209 598.789474 294.453488 598.184211 291.988372 599.394737 293.22093 600 295.069767 601.210526 293.837209 600.605263 291.988372 599.394737 291.372093 598.184211 290.755814 600.605263 290.139535 602.421053 290.755814 603.631579 289.523256 603.631579 288.290698 605.447368 288.290698 607.263158 287.05814 608.473684 285.825581 607.263158 284.593023 607.263158 283.360465 608.473684 283.360465 609.078947 284.593023 610.289474 283.360465 611.5 282.127907 611.5 279.662791 612.710526 279.046512 613.921053 279.662791 615.131579 277.813953 614.526316 276.581395 616.947368 275.348837 615.131579 274.732558 615.131579 272.883721 616.342105 271.034884 616.342105 274.116279 618.157895 268.569767 619.973684 265.488372 623 262.406977 605.447368 249.465116 589.710526 251.930233 589.105263 249.465116 586.684211 247.616279 585.473684 248.848837 584.868421 247 566.710526 249.465116 564.289474 250.697674 562.473684 251.313953 561.868421 252.546512"></polygon>
                <polygon id="Rhode-Island-(RI)" stroke="#313E99" fill="#06BEE1" stroke-linecap="round" stroke-linejoin="round" points="683 106.714286 685.545455 114.714286 685.545455 117 686.818182 116.428571 688.090909 115.285714 690 115.285714 690 114.142857 690 113 689.363636 111.857143 690 110.714286 688.727273 110.714286 689.363636 109.571429 688.727273 108.428571 689.363636 107.857143 689.363636 106.714286 688.727273 106.714286 688.090909 105"></polygon>
                <polygon id="Pennsylvania-(PA)" stroke="#313E99" fill="#FFFFFF" stroke-linecap="round" stroke-linejoin="round" points="572 131.357143 575.636364 153.821429 578.666667 169 640.484848 156.857143 641.090909 155.035714 642.30303 153.821429 645.333333 153.821429 645.939394 152.607143 647.757576 151.392857 647.757576 150.178571 652 146.535714 652 145.321429 648.363636 142.892857 647.151515 142.892857 646.545455 140.464286 644.727273 141.071429 644.121212 138.642857 644.727273 136.821429 645.333333 135.607143 644.121212 134.392857 644.121212 133.178571 645.333333 131.964286 646.545455 129.535714 646.545455 128.321429 648.363636 126.5 647.151515 125.285714 645.333333 125.285714 643.515152 125.285714 642.30303 123.464286 642.30303 122.25 642.30303 120.428571 640.484848 119.214286 639.272727 119.821429 638.666667 118.607143 636.848485 118 581.69697 129.535714 581.090909 125.285714"></polygon>
                <polygon id="Oregon-(OR)" stroke="#313E99" fill="#FFFFFF" stroke-linecap="round" stroke-linejoin="round" points="100.5 137 105.388889 106.42446 106.611111 103.978417 106.611111 102.143885 107.833333 100.920863 106.611111 99.6978417 104.166667 99.0863309 104.777778 95.4172662 107.833333 91.7482014 110.277778 89.3021583 110.888889 87.4676259 113.333333 83.7985612 113.944444 82.5755396 117 78.9064748 116.388889 75.8489209 112.722222 72.7913669 112.722222 70.9568345 87.0555556 66.676259 85.2222222 67.8992806 79.7222222 66.676259 77.8888889 67.2877698 72.3888889 67.8992806 69.3333333 68.5107914 66.2777778 67.8992806 62 68.5107914 61.3888889 67.8992806 58.9444444 68.5107914 58.3333333 66.676259 55.2777778 65.4532374 51.6111111 64.8417266 45.5 66.676259 43.6666667 65.4532374 39.3888889 64.2302158 39.3888889 63.0071942 40 58.7266187 38.7777778 55.6690647 36.9444444 53.8345324 35.1111111 54.4460432 33.2777778 54.4460432 32.6666667 52.6115108 30.2222222 53.2230216 29 52.6115108 28.3888889 53.8345324 26.5555556 52 26.5555556 55.057554 25.3333333 56.2805755 25.3333333 58.7266187 25.9444444 59.9496403 24.7222222 61.1726619 25.3333333 63.618705 24.1111111 63.618705 20.4444444 74.0143885 19.8333333 75.8489209 20.4444444 77.0719424 19.8333333 78.294964 19.2222222 79.5179856 19.2222222 80.7410072 18 81.9640288 16.7777778 87.4676259 15.5555556 90.5251799 16.1666667 91.7482014 14.9444444 92.3597122 13.1111111 95.4172662 14.3333333 95.4172662 14.3333333 97.2517986 13.1111111 96.6402878 11.8888889 98.4748201 11.2777778 97.2517986 9.44444444 101.532374 7.61111111 105.201439 8.22222222 107.647482 7.61111111 111.316547 7 114.985612 7 117.431655 8.22222222 119.877698 62 130.884892"></polygon>
                <path d="M279,236.606383 C279,236.606383 316.229757,237.621409 334.844635,237.522539 C354.285594,237.419281 393.167513,236 393.167513,236 L393.771574,245.095745 L396.791878,262.680851 L398,293 L394.375635,292.393617 L392.563452,291.180851 L390.751269,289.361702 L388.939086,288.755319 L387.126904,288.148936 L384.71066,289.361702 L382.294416,288.755319 L378.670051,289.968085 L377.461929,289.968085 L374.441624,290.574468 L373.837563,292.393617 L372.629442,292.393617 L370.817259,291.787234 L369.005076,291.180851 L367.796954,289.968085 L365.984772,290.574468 L362.964467,288.755319 L360.548223,293 L359.340102,289.968085 L356.923858,291.180851 L355.111675,289.968085 L353.903553,289.968085 L353.299492,288.148936 L349.675127,291.180851 L348.467005,288.755319 L346.654822,288.148936 L346.654822,286.329787 L343.030457,286.329787 L341.218274,287.542553 L339.406091,285.723404 L337.593909,286.329787 L333.969543,285.117021 L330.949239,285.117021 L330.949239,283.297872 L328.532995,280.87234 L327.928934,282.085106 L326.720812,282.085106 L324.908629,282.691489 L323.096447,280.87234 L321.284264,279.053191 L319.472081,279.053191 L319.472081,246.308511 L279,245.702128 L279,236.606383 Z" id="Oklahoma-(OK)" stroke="#313E99" fill="#FFFFFF" stroke-linecap="round" stroke-linejoin="round"></path>
                <polygon id="Ohio-(OH)" stroke="#313E99" fill="#FFFFFF" stroke-linecap="round" stroke-linejoin="round" points="518 144.283019 523.494737 187.754717 524.715789 186.54717 526.547368 187.754717 527.768421 186.54717 528.989474 187.754717 530.210526 187.754717 532.042105 191.377358 533.873684 191.981132 536.926316 191.377358 538.757895 193.188679 539.978947 193.792453 541.2 191.981132 543.642105 191.981132 544.863158 193.188679 545.473684 192.584906 547.305263 192.584906 547.915789 191.377358 550.357895 189.566038 551.578947 192.584906 554.021053 193.188679 555.242105 195 556.463158 194.396226 558.905263 193.188679 558.905263 191.377358 560.126316 190.773585 559.515789 187.754717 559.515789 186.54717 560.126316 184.735849 561.347368 183.528302 562.568421 184.132075 562.568421 185.339623 563.178947 185.339623 564.4 184.132075 564.4 182.924528 563.789474 182.320755 564.4 181.113208 565.010526 178.698113 566.231579 178.09434 566.231579 176.886792 568.063158 175.679245 569.284211 176.886792 571.726316 174.471698 571.726316 172.660377 574.778947 170.849057 574.778947 168.433962 575.389474 164.811321 575.389474 161.792453 576 159.377358 575.389474 157.566038 576 155.754717 574.168421 154.54717 576 153.339623 572.336842 131 562.568421 137.037736 558.294737 141.867925 556.463158 142.471698 554.021053 142.471698 551.578947 143.679245 549.747368 144.283019 549.136842 145.490566 545.473684 144.886792 544.252632 144.886792 543.031579 145.490566 541.2 144.886792 544.863158 143.075472 543.642105 143.075472 542.421053 143.679245 539.368421 142.471698 536.315789 141.867925 535.094737 141.264151"></polygon>
                <path d="M318.111842,88 C302.315382,88 271,87.3855422 271,87.3855422 L272.223684,37 C272.223684,37 295.269152,37.7871742 306.791886,37.8735324 C322.598099,37.9919935 354.210526,37.6144578 354.210526,37.6144578 L356.046053,42.5301205 L355.434211,44.373494 L355.434211,51.1325301 L359.105263,59.7349398 L359.717105,62.8072289 L359.717105,67.7228916 L360.328947,70.7951807 L360.328947,72.0240964 L360.940789,76.3253012 L361.552632,78.7831325 L363.388158,81.2409639 L364,87.3855422 C364,87.3855422 333.315382,88 318.111842,88 Z" id="North-Dakota-(ND)" stroke="#313E99" fill="#FFFFFF" stroke-linecap="round" stroke-linejoin="round"></path>
                <polygon id="North-Carolina-(NC)" stroke="#313E99" fill="#FFFFFF" stroke-linecap="round" stroke-linejoin="round" points="572.188482 224.070588 648.712042 210 651.141361 212.447059 653.570681 216.117647 650.534031 213.670588 651.141361 215.505882 648.104712 213.670588 646.890052 214.282353 649.926702 216.117647 648.712042 216.729412 646.282723 216.117647 648.104712 217.952941 644.460733 216.117647 644.460733 217.341176 646.282723 218.564706 644.460733 219.788235 642.031414 219.788235 641.424084 217.341176 641.424084 214.894118 640.209424 214.894118 640.209424 218.564706 641.424084 220.4 641.424084 222.235294 644.460733 221.623529 645.675393 220.4 646.890052 221.623529 648.712042 221.011765 649.926702 219.176471 651.141361 221.011765 650.534031 222.847059 651.748691 223.458824 650.534031 224.682353 652.356021 224.682353 652.963351 222.235294 652.356021 220.4 654.17801 220.4 654.78534 219.176471 656 221.623529 656 223.458824 656 225.294118 654.78534 224.682353 654.17801 225.294118 652.963351 228.964706 651.748691 230.188235 649.319372 230.188235 648.104712 228.964706 646.890052 230.188235 646.282723 228.964706 647.497382 227.741176 643.853403 228.352941 645.068063 230.188235 641.424084 230.188235 638.994764 229.576471 640.209424 231.411765 643.853403 232.023529 647.497382 232.023529 647.497382 233.247059 645.068063 234.470588 646.890052 235.082353 645.068063 237.529412 643.246073 237.529412 639.602094 235.694118 642.031414 238.752941 644.460733 239.364706 645.675393 239.364706 646.890052 237.529412 648.104712 238.752941 651.141361 236.917647 648.712042 241.811765 646.890052 240.588235 645.068063 241.811765 642.031414 243.647059 640.209424 242.423529 640.209424 244.258824 638.387435 246.705882 637.780105 244.258824 636.565445 244.258824 637.172775 245.482353 636.565445 246.094118 637.780105 247.317647 635.350785 249.152941 633.528796 252.211765 632.314136 255.270588 632.314136 257.105882 631.099476 254.658824 631.099476 260.164706 626.848168 260.164706 626.240838 260.164706 625.026178 261.388235 623.204188 262 605.591623 249.152941 589.801047 251.6 589.193717 249.152941 586.764398 247.317647 585.549738 248.541176 584.942408 246.705882 566.722513 249.152941 562.471204 250.988235 561.863874 252.211765 561.256545 252.211765 557.005236 254.047059 540 256.494118 540 252.211765 540.60733 251.6 543.036649 252.211765 543.643979 248.541176 547.287958 245.482353 550.324607 245.482353 554.575916 240.588235 557.005236 240.588235 557.612565 237.529412 558.827225 237.529412 559.434555 235.694118 561.256545 235.082353 561.863874 236.305882 563.078534 236.305882 564.293194 233.247059 567.329843 232.635294 568.544503 233.247059 570.366492 228.964706 571.581152 227.741176 572.188482 227.741176"></polygon>
                <path d="M581,125.516129 L581.608187,129.806452 L636.953216,118.16129 L638.777778,118.774194 L639.385965,120 L640.602339,119.387097 L642.426901,120.612903 L642.426901,123.677419 L643.643275,125.516129 L647.292398,125.516129 L648.508772,126.741935 L659.45614,130.419355 L659.45614,129.806452 L658.847953,127.967742 L657.631579,126.741935 L657.631579,124.903226 L658.239766,124.903226 L658.847953,126.129032 L659.45614,127.354839 L660.064327,127.967742 L660.672515,132.870968 L662.497076,131.032258 L663.105263,129.806452 L661.888889,127.967742 L664.321637,124.903226 L663.105263,123.677419 L661.280702,111.419355 L660.672515,111.419355 L661.280702,99.1612903 L660.672515,98.5483871 L658.239766,87.516129 L658.239766,86.2903226 L657.023392,85.0645161 L656.415205,85.6774194 L655.807018,86.2903226 L655.807018,85.0645161 L655.807018,82.6129032 L655.19883,82 L655.19883,81.3870968 L654.590643,80.7741935 L653.982456,78.9354839 L653.374269,78.9354839 L653.374269,75.8709677 L653.982456,74.6451613 L652.766082,72.8064516 L652.157895,70.3548387 L651.549708,69.1290323 L651.549708,67.2903226 L651.549708,66.0645161 L650.94152,65.4516129 L650.94152,63 L633.912281,67.2903226 L632.087719,67.2903226 L629.046784,69.7419355 L627.830409,71.5806452 L624.181287,76.483871 L623.573099,77.7096774 L623.573099,79.5483871 L621.748538,81.3870968 L617.491228,85.6774194 L618.099415,86.2903226 L619.923977,86.2903226 L621.140351,86.2903226 L621.748538,86.9032258 L621.140351,88.1290323 L619.923977,89.9677419 L619.315789,89.9677419 L620.532164,91.1935484 L620.532164,92.4193548 L621.748538,93.0322581 L621.140351,93.6451613 L621.140351,94.8709677 L619.923977,95.483871 L618.707602,95.483871 L616.274854,98.5483871 L615.666667,99.7741935 L613.233918,101 L612.625731,101.612903 L610.80117,101.612903 L608.976608,101.612903 L607.760234,102.225806 L605.327485,103.451613 L604.111111,103.451613 L602.894737,102.225806 L597.421053,102.83871 L596.204678,103.451613 L593.77193,103.451613 L586.473684,106.516129 L587.081871,107.741935 L587.081871,108.967742 L587.081871,109.580645 L589.51462,109.580645 L589.51462,110.806452 L588.906433,112.032258 L590.122807,113.258065 L590.122807,114.483871 L588.906433,116.322581 L587.690058,118.774194 L585.25731,120.612903 L584.040936,122.451613 L581,125.516129 Z M658.847953,136.548387 L658.239766,137.16129 L657.631579,139 L658.847953,138.387097 L659.45614,137.16129 L658.847953,136.548387 Z M660.064327,135.935484 L660.064327,136.548387 L660.672515,137.16129 L661.280702,136.548387 L661.888889,135.935484 L662.497076,135.322581 L663.71345,135.935484 L664.321637,135.322581 L669.187135,132.870968 L671.011696,132.870968 L671.011696,131.645161 L672.22807,131.645161 L674.660819,129.806452 L677.701754,129.193548 L678.309942,127.967742 L677.701754,127.354839 L677.093567,127.967742 L676.48538,127.354839 L678.918129,124.290323 L678.309942,123.677419 L675.877193,126.741935 L675.269006,127.354839 L672.22807,127.967742 L671.011696,127.967742 L670.403509,128.580645 L669.795322,128.580645 L669.795322,129.193548 L667.362573,129.806452 L666.754386,130.419355 L665.538012,129.806452 L665.538012,131.032258 L664.929825,130.419355 L664.321637,131.032258 L664.321637,132.258065 L663.105263,132.870968 L662.497076,133.483871 L661.280702,133.483871 L660.672515,134.096774 L660.064327,135.935484 Z M678.918129,126.741935 L678.918129,127.354839 L679.526316,127.354839 L681.350877,126.129032 L681.959064,124.903226 L683.175439,124.903226 L685,123.064516 L682.567251,124.290323 L681.959064,124.290323 L681.350877,124.290323 L680.134503,124.903226 L679.526316,125.516129 L678.918129,126.741935 Z" id="New-York-(NY)" stroke="#313E99" fill="#FFFFFF" stroke-linecap="round" stroke-linejoin="round"></path>
                <path d="M195.886667,233 C195.886667,233 217.874851,234.896971 228.868943,235.541109 C245.579295,236.52016 279,237.869565 279,237.869565 L279,246.391304 L277.786667,246.391304 L275.36,323.695652 L223.793333,321.26087 L223.793333,323.086957 L225.613333,324.913043 L200.74,323.086957 L200.133333,331 L188,329.782609 L195.886667,233 Z" id="New-Mexico-(NM)" stroke="#313E99" fill="#FFFFFF" stroke-linecap="round" stroke-linejoin="round"></path>
                <polygon id="New-Jersey-(NJ)" stroke="#313E99" fill="#FFFFFF" stroke-linecap="round" stroke-linejoin="round" points="648.344828 127 659.517241 130.671642 660.137931 131.283582 659.517241 133.731343 659.517241 135.567164 658.275862 136.179104 657.655172 137.402985 657.034483 139.238806 657.655172 140.462687 660.137931 141.074627 661.37931 141.074627 662 144.134328 661.37931 147.19403 661.37931 149.029851 661.37931 150.865672 660.758621 151.477612 661.37931 152.701493 660.758621 155.149254 660.137931 155.761194 658.896552 155.761194 660.137931 157.597015 658.896552 157.597015 658.896552 158.820896 659.517241 159.432836 658.275862 159.432836 657.655172 160.656716 656.413793 161.268657 657.655172 161.880597 656.413793 164.328358 656.413793 164.940299 655.793103 165.552239 655.793103 166.776119 654.551724 168 654.551724 166.776119 654.551724 163.716418 653.310345 163.716418 652.068966 163.716418 650.827586 164.328358 650.206897 163.104478 648.344828 163.104478 647.724138 161.880597 646.482759 161.880597 644.62069 160.656716 644.62069 158.820896 644 158.208955 644.62069 156.373134 644.62069 155.149254 645.241379 155.149254 646.482759 153.313433 647.724138 152.089552 647.724138 150.865672 652.068966 147.19403 652.068966 145.970149 648.344828 143.522388 647.103448 143.522388 646.482759 141.074627 644.62069 141.686567 644 139.238806 644.62069 137.402985 645.241379 136.179104 644 134.955224 644 133.731343 645.241379 132.507463 646.482759 130.059701 646.482759 128.835821"></polygon>
                <polygon id="New-Hampshire-(NH)" stroke="#313E99" fill="#FFFFFF" stroke-linecap="round" stroke-linejoin="round" points="671.026316 97 683.736842 94 685.552632 93.4 686.763158 91 687.368421 91 687.973684 89.8 689.184211 89.2 690.394737 89.2 690.394737 87.4 691 86.2 688.578947 85 688.578947 83.2 686.157895 82 686.157895 80.2 684.947368 77.2 676.473684 52 675.868421 53.2 674.052632 52.6 673.447368 53.2 673.447368 54.4 672.842105 56.2 672.842105 58 673.447368 59.2 672.236842 61.6 674.052632 64 673.447368 64.6 673.447368 65.8 671.631579 68.8 671.026316 69.4 669.815789 69.4 669.210526 70.6 669.815789 72.4 669.815789 76.6 669.210526 77.2 669.210526 79.6 668.605263 80.8 668.605263 82.6 668 83.2 668.605263 86.8 669.210526 87.4 668.605263 89.8 669.210526 91 669.210526 92.8 668.605263 93.4 668.605263 95.2"></polygon>
                <path d="M101.038163,136.413221 C113.692109,138.332085 139,141.561321 139,141.561321 L126.801418,238.311321 L126.191489,239.528302 L124.971631,241.962264 L123.141844,241.962264 L122.531915,239.528302 L121.312057,240.136792 L119.48227,238.919811 L117.042553,240.136792 L116.432624,242.570755 L117.042553,244.396226 L116.432624,245.613208 L117.042553,248.65566 L116.432624,250.481132 L117.042553,253.523585 L117.042553,255.957547 L115.822695,256.566038 L115.822695,259 L53,179.287736 L62.1489362,130 C62.1489362,130 88.2783972,134.478311 101.038163,136.413221 Z" id="Nevada-(NV)" stroke="#313E99" fill="#FFFFFF" stroke-linecap="round" stroke-linejoin="round"></path>
                <path d="M293.164021,169.151069 L293.164021,186.836444 C293.164021,186.836444 317.423251,187.113216 329.552865,186.946681 C347.035243,186.706655 382,185.616763 382,185.616763 L380.783069,184.397082 L380.783069,183.177401 L379.566138,181.34788 L377.740741,180.128199 L376.52381,177.078996 L375.306878,176.469156 L375.306878,174.029793 L374.089947,172.810112 L374.089947,170.37075 L374.089947,165.492026 L372.873016,164.272345 L374.089947,163.662505 L372.26455,162.442824 L372.26455,160.613302 L370.439153,158.78378 L371.047619,155.124737 L369.830688,153.905056 L369.830688,152.075535 L368.613757,151.465694 L368.005291,149.636173 L366.78836,149.026332 L366.78836,146.58697 L366.179894,143.537767 L363.746032,143.537767 L362.529101,141.708246 L362.529101,140.488565 L360.703704,140.488565 L360.095238,139.878724 L358.269841,139.268884 L356.444444,139.268884 L354.619048,137.439362 L351.57672,138.049203 L350.359788,138.049203 L347.31746,138.049203 L346.100529,139.268884 L344.275132,139.268884 L339.407407,136.219681 C339.407407,136.219681 309.583987,136.318568 294.672277,136.063091 C285.853828,135.912007 268.216931,135 268.216931,135 L267,169.151069 L293.164021,169.151069 Z" id="Nebraska-(NE)" stroke="#313E99" fill="#FFFFFF" stroke-linecap="round" stroke-linejoin="round"></path>
                <path d="M224.909649,99.8362429 C239.190812,100.820122 270.179916,101.575758 270.179916,101.575758 L272,36.7272727 C272,36.7272727 249.646026,35.9548043 225.921017,34.26895 C211.733208,33.2607912 197.055094,31.5366671 186.374058,30.5377852 C167.391632,28.7625638 129.426778,24 129.426778,24 L127,39.1515152 L129.426778,42.7878788 L130.640167,45.8181818 L130.033473,47.030303 L130.640167,48.8484848 L130.033473,48.8484848 L132.460251,51.8787879 L134.280335,53.0909091 L138.527197,58.5454545 L137.920502,59.7575758 L140.34728,62.1818182 L141.560669,62.1818182 L141.560669,64 L145.200837,64 L142.774059,71.2727273 L141.560669,71.8787879 L142.167364,76.7272727 L140.34728,77.3333333 L140.34728,80.969697 L142.774059,83.3939394 L147.627615,79.7575758 L148.841004,82.1818182 L150.054393,87.030303 L152.481172,91.8787879 L151.874477,94.3030303 L153.694561,96.1212121 L155.514644,96.1212121 L156.728033,100.969697 L159.154812,103.393939 L160.368201,101.575758 L164.615063,102.787879 L165.828452,100.969697 L171.288703,101.575758 L171.895397,102.181818 L175.535565,102.181818 L176.748954,99.7575758 L177.962343,99.7575758 L180.995816,104 L181.60251,103.393939 L182.209205,95.5151515 C182.209205,95.5151515 209.867242,98.7999195 224.909649,99.8362429 Z" id="Montana-(MT)" stroke="#313E99" fill="#FFFFFF" stroke-linecap="round" stroke-linejoin="round"></path>
                <path d="M397.811169,175.398836 C390.540779,175.811822 376,176.031496 376,176.031496 L376,177.244094 L377.212903,177.850394 L378.425806,180.88189 L380.245161,182.094488 L381.458065,183.913386 L381.458065,185.125984 L382.670968,186.338583 L385.703226,188.15748 L386.916129,187.551181 L388.129032,188.15748 L388.735484,189.976378 L387.522581,190.582677 L386.916129,191.795276 L385.703226,193.614173 L386.916129,194.826772 L388.735484,196.03937 L388.735484,197.251969 L389.948387,199.070866 L391.767742,199.070866 L392.980645,199.677165 L394.193548,236.661417 L394.8,245.149606 L456.051613,240.905512 L457.870968,242.724409 L457.870968,243.937008 L454.83871,248.181102 L454.232258,248.787402 L454.232258,249.393701 L454.232258,250 L462.722581,248.787402 L463.329032,246.968504 L464.541935,246.362205 L463.329032,244.543307 L464.541935,244.543307 L463.935484,242.724409 L465.148387,242.724409 L464.541935,240.299213 L464.541935,239.086614 L465.754839,240.299213 L466.36129,239.692913 L466.967742,237.874016 L466.967742,237.267717 L468.787097,238.480315 L469.393548,236.661417 L470,234.84252 L469.393548,233.629921 L470,231.204724 L468.787097,231.204724 L467.574194,229.992126 L467.574194,231.204724 L465.754839,230.598425 L465.754839,229.385827 L463.935484,226.96063 L463.935484,226.354331 L464.541935,224.535433 L464.541935,223.929134 L463.329032,222.716535 L463.329032,220.291339 L460.903226,219.07874 L459.690323,217.259843 L459.083871,217.259843 L456.658065,216.047244 L455.445161,215.440945 L450.593548,211.80315 L450.593548,209.377953 L452.412903,204.527559 L452.412903,202.708661 L453.019355,201.496063 L451.2,199.677165 L448.774194,199.677165 L446.954839,201.496063 L445.741935,200.283465 L444.529032,197.251969 L444.529032,195.433071 L443.316129,193.614173 L439.677419,191.795276 L439.070968,190.582677 L435.432258,187.551181 L434.825806,186.338583 L434.219355,185.125984 L433.612903,183.913386 L432.4,180.275591 L433.006452,177.850394 L433.612903,176.637795 L429.367742,173 C429.367742,173 408.330027,174.801324 397.811169,175.398836 Z" id="Missouri-(MO)" stroke="#313E99" fill="#FFFFFF" stroke-linecap="round" stroke-linejoin="round"></path>
                <polygon id="Mississippi-(MS)" stroke="#313E99" fill="#FFFFFF" stroke-linecap="round" stroke-linejoin="round" points="486.4875 263 487.1 264.217391 488.325 264.826087 488.325 306.826087 488.325 317.173913 492 341.521739 491.3875 343.347826 488.9375 342.130435 488.325 342.73913 486.4875 342.73913 484.0375 341.521739 481.5875 343.347826 479.75 344.565217 477.9125 343.347826 477.9125 344.565217 477.3 346.391304 474.2375 347 474.2375 345.782609 473.0125 342.73913 471.175 340.913043 470.5625 339.086957 471.175 334.826087 471.175 333.608696 443.6125 336.043478 443.6125 333.608696 443 331.173913 444.225 331.173913 444.8375 329.956522 444.225 327.521739 445.45 325.695652 446.675 321.434783 450.35 318.391304 449.7375 315.956522 450.35 315.956522 451.575 312.304348 449.125 310.478261 449.125 308.652174 447.9 306.826087 449.125 306.217391 448.5125 305.608696 447.9 304.391304 449.125 302.565217 447.2875 301.347826 447.2875 299.521739 448.5125 298.304348 447.2875 296.478261 447.2875 293.434783 446.0625 292.217391 447.2875 291 446.0625 289.782609 447.9 287.347826 447.2875 284.304348 449.7375 283.086957 450.35 282.478261 449.125 281.26087 451.575 278.826087 451.575 277.608696 453.4125 276.391304 453.4125 270.913043 455.25 270.913043 455.25 269.086957 457.0875 267.869565 457.0875 266.043478"></polygon>
                <polygon id="Minnesota-(MN)" stroke="#313E99" fill="#FFFFFF" stroke-linecap="round" stroke-linejoin="round" points="432.596026 123.3625 366.18543 127 365.576159 97.29375 364.357616 95.475 361.92053 94.86875 360.092715 91.23125 361.92053 90.01875 363.139073 88.2 363.748344 86.38125 363.139073 80.31875 361.311258 77.89375 360.701987 75.46875 360.092715 71.225 360.092715 70.0125 359.483444 66.98125 359.483444 62.13125 358.874172 58.49375 355.218543 50.6125 355.218543 43.94375 355.827815 42.125 354 37.275 378.980132 36.0625 378.980132 30 381.417219 30.60625 382.635762 32.425 383.854305 36.0625 383.854305 38.4875 385.682119 40.30625 389.337748 40.30625 389.94702 40.9125 394.821192 41.51875 395.430464 43.3375 397.258278 42.73125 399.695364 42.73125 400.304636 41.51875 402.13245 40.9125 405.788079 40.9125 407.006623 41.51875 409.443709 41.51875 409.443709 42.73125 408.225166 42.73125 408.834437 43.3375 411.271523 43.3375 411.880795 45.7625 413.099338 46.36875 413.708609 46.975 414.317881 44.55 416.754967 44.55 417.364238 46.36875 418.582781 46.36875 420.410596 46.36875 421.019868 48.1875 422.238411 48.1875 422.847682 49.4 425.89404 48.1875 427.112583 47.58125 430.768212 45.15625 432.596026 47.58125 435.033113 46.975 440.516556 46.36875 442.344371 48.1875 443.562914 47.58125 446 47.58125 441.735099 50.6125 435.033113 53.0375 430.768212 56.675 425.89404 62.13125 421.019868 66.98125 417.97351 68.8 417.364238 70.61875 416.754967 71.83125 415.536424 71.83125 416.145695 77.89375 416.145695 81.53125 414.317881 82.74375 411.271523 84.5625 410.662252 86.38125 409.443709 88.2 409.443709 90.01875 411.271523 90.625 412.490066 92.44375 411.880795 94.86875 411.271523 96.6875 411.880795 97.9 411.271523 98.50625 411.880795 99.71875 411.271523 103.35625 414.317881 105.78125 416.754967 105.78125 418.582781 107.6 421.019868 108.20625 423.456954 110.63125 425.284768 113.05625 427.112583 114.26875 429.549669 114.26875 431.986755 116.69375 432.596026 118.5125"></polygon>
                <path d="M492.305085,147 L518.542373,143.328947 L518.542373,144.552632 L535.627119,141.493421 L535.627119,139.657895 L538.067797,136.598684 L538.067797,132.315789 L539.288136,129.868421 L541.118644,129.256579 L540.508475,126.809211 L542.338983,125.585526 L541.728814,124.361842 L542.949153,123.75 L544.779661,125.585526 L546,118.243421 L543.559322,115.184211 L541.728814,109.065789 L539.898305,104.171053 L538.677966,101.723684 L536.237288,101.723684 L533.79661,103.559211 L532.576271,103.559211 L530.745763,108.453947 L529.525424,108.453947 L528.915254,110.289474 L527.084746,110.289474 L524.033898,109.677632 L524.644068,104.782895 L527.084746,103.559211 L528.305085,102.335526 L528.305085,99.8881579 L529.525424,98.6644737 L530.745763,97.4407895 L530.135593,90.7105263 L528.915254,88.2631579 L527.084746,87.0394737 L527.694915,85.2039474 L529.525424,85.8157895 L528.305085,83.9802632 L527.084746,83.9802632 L527.084746,81.5328947 L524.644068,81.5328947 L522.813559,80.9210526 L520.983051,80.3092105 L517.322034,80.3092105 L516.711864,78.4736842 L514.881356,77.8618421 L513.050847,77.8618421 L509.389831,76.6381579 L507.559322,77.8618421 L505.728814,79.6973684 L505.728814,81.5328947 L506.338983,82.1447368 L508.779661,82.7565789 L508.169492,83.3684211 L504.508475,84.5921053 L502.677966,85.8157895 L503.288136,88.875 L503.288136,92.5460526 L502.067797,94.9934211 L500.847458,94.3815789 L500.237288,93.1578947 L500.237288,90.0986842 L500.237288,87.6513158 L498.40678,91.3223684 L497.79661,92.5460526 L496.576271,92.5460526 L494.745763,93.7697368 L495.355932,95.6052632 L492.915254,96.8289474 L494.135593,98.6644737 L494.135593,102.947368 L492.915254,105.394737 L491.084746,107.842105 L492.915254,110.289474 L492.915254,112.125 L491.694915,114.572368 L492.915254,117.631579 L494.745763,120.078947 L495.355932,120.690789 L496.576271,120.690789 L495.966102,122.526316 L497.186441,125.585526 L497.79661,127.421053 L497.79661,135.375 L495.966102,139.657895 L494.745763,142.717105 L494.135593,145.776316 L492.305085,147 Z M475.220339,92.5460526 L478.881356,83.9802632 L480.711864,80.9210526 L481.322034,77.25 L482.542373,79.0855263 L482.542373,80.9210526 L484.372881,78.4736842 L486.813559,77.25 L487.423729,79.6973684 L485.59322,81.5328947 L486.20339,82.1447368 L489.254237,78.4736842 L490.474576,76.6381579 L492.915254,75.4144737 L494.745763,76.0263158 L497.79661,74.8026316 L499.016949,72.9671053 L503.288136,72.3552632 L506.949153,73.5789474 L508.779661,75.4144737 L510,71.7434211 L513.050847,71.7434211 L517.932203,72.3552632 L519.762712,71.7434211 L521.59322,71.7434211 L524.033898,71.7434211 L524.033898,70.5197368 L522.813559,69.2960526 L521.59322,71.1315789 L519.152542,71.1315789 L517.322034,69.9078947 L516.101695,69.2960526 L514.881356,68.6842105 L514.881356,67.4605263 L515.491525,65.625 L514.881356,63.1776316 L513.050847,64.4013158 L510.610169,65.625 L509.389831,65.625 L508.779661,65.0131579 L506.949153,65.625 L503.898305,65.0131579 L503.898305,60.7302632 L501.457627,61.3421053 L497.79661,63.7894737 L493.525424,63.1776316 L489.864407,64.4013158 L486.20339,67.4605263 L484.983051,68.6842105 L483.152542,68.0723684 L481.932203,69.2960526 L480.101695,67.4605263 L477.050847,69.2960526 L475.220339,68.6842105 L471.559322,63.7894737 L467.898305,63.1776316 L465.457627,63.7894737 L461.79661,66.2368421 L461.186441,61.9539474 L463.627119,58.8947368 L466.677966,55.8355263 L466.067797,55.2236842 L469.728814,54 L467.898305,54 L464.237288,54.6118421 L460.576271,57.0592105 L459.355932,58.8947368 L457.525424,59.5065789 L456.305085,61.3421053 L455.084746,63.1776316 L453.254237,63.1776316 L450.813559,65.625 L445.322034,66.8486842 L444.101695,68.6842105 L442.271186,69.9078947 L438,71.7434211 L440.440678,72.3552632 L442.271186,74.8026316 L456.915254,77.8618421 L459.355932,79.0855263 L462.40678,78.4736842 L466.067797,79.0855263 L467.898305,79.6973684 L467.898305,81.5328947 L469.728814,81.5328947 L471.559322,82.7565789 L472.779661,85.8157895 L471.559322,88.2631579 L472.169492,88.2631579 L474,87.6513158 L474.610169,87.6513158 L473.389831,91.3223684 L475.220339,92.5460526 Z" id="Michigan-(MI)" stroke="#313E99" fill="#FFFFFF" stroke-linecap="round" stroke-linejoin="round"></path>
                <path d="M661,110.95122 L661.607595,110.95122 L669.506329,109.121951 L670.113924,109.731707 L682.873418,106.073171 L682.873418,106.682927 L687.734177,104.853659 L688.341772,106.682927 L688.949367,106.682927 L689.556962,106.682927 L689.556962,108.512195 L691.379747,109.121951 L691.987342,107.292683 L692.594937,107.292683 L692.594937,108.512195 L691.987342,109.731707 L692.594937,112.170732 L693.202532,112.780488 L693.810127,111.560976 L694.417722,110.95122 L695.025316,111.560976 L695.632911,110.341463 L695.632911,109.121951 L696.240506,109.121951 L697.455696,107.902439 L697.455696,106.682927 L698.670886,106.682927 L699.278481,107.902439 L699.278481,109.731707 L700.493671,109.731707 L701.101266,108.512195 L701.708861,107.902439 L703.531646,107.292683 L707.177215,105.463415 L707.177215,103.634146 L706.56962,103.02439 L705.962025,101.804878 L704.746835,99.9756098 L704.139241,99.9756098 L704.746835,101.195122 C704.746835,101.195122 706.149935,102.52568 706.547688,103.190958 C706.75753,103.54194 706.56962,104.243902 706.56962,104.243902 L704.746835,104.853659 L704.139241,105.463415 L703.531646,106.073171 L702.316456,106.073171 L699.886076,106.073171 L699.278481,104.853659 L699.278481,103.02439 L698.063291,103.634146 L696.240506,103.02439 L696.848101,101.195122 L694.417722,98.7560976 L693.202532,99.3658537 L692.594937,99.9756098 L691.379747,99.3658537 L690.772152,98.7560976 L690.772152,97.5365854 L691.379747,96.9268293 L691.379747,96.3170732 L692.594937,95.7073171 L691.987342,95.097561 L691.987342,93.8780488 L694.417722,93.2682927 L695.025316,92.0487805 L693.810127,92.6585366 L692.594937,92.0487805 L691.987342,91.4390244 L691.987342,90.2195122 L690.772152,90.2195122 L691.379747,89 L690.164557,89 L688.949367,89.6097561 C688.949367,89.6097561 688.544304,90.4227642 688.341772,90.8292683 L687.734177,90.8292683 L686.518987,93.2682927 L684.696203,93.8780488 L671.936709,96.9268293 L661.607595,98.7560976 L661,110.95122 Z M698.670886,112.780488 L698.670886,114 L699.886076,112.780488 L702.316456,112.170732 L700.493671,110.95122 L699.886076,112.170732 L698.670886,112.780488 Z M706.56962,112.170732 L707.177215,112.780488 L708.392405,112.780488 L709,112.170732 L708.392405,110.95122 L707.78481,112.170732 L706.56962,112.170732 Z M691.379747,110.341463 L690.772152,111.560976 L691.379747,113.390244 L691.987342,112.780488 L691.379747,110.341463 Z" id="Massachusetts-(MA)" stroke="#313E99" fill="#FFFFFF" stroke-linecap="round" stroke-linejoin="round"></path>
                <polygon id="Maryland-(MD)" stroke="#313E99" fill="#06BEE1" stroke-linecap="round" stroke-linejoin="round" points="593 166.87234 594.805825 175.510638 597.213592 173.042553 598.417476 171.191489 599.019417 169.957447 600.825243 169.957447 602.631068 168.106383 602.631068 166.255319 603.834951 168.106383 605.640777 168.106383 606.84466 167.489362 607.446602 165.638298 609.252427 165.638298 609.854369 164.404255 610.456311 163.787234 612.864078 165.021277 615.271845 164.404255 614.669903 165.638298 615.271845 165.638298 615.873786 166.87234 617.07767 167.489362 617.07767 168.723404 619.485437 168.723404 621.291262 169.340426 620.68932 171.191489 621.893204 172.425532 624.300971 172.425532 624.902913 173.659574 626.708738 173.659574 627.31068 172.425532 629.116505 174.276596 628.514563 175.510638 628.514563 176.744681 627.912621 177.978723 627.912621 179.212766 626.708738 181.06383 626.708738 182.914894 627.912621 182.914894 627.912621 181.06383 629.116505 181.680851 629.718447 181.06383 630.92233 182.914894 632.126214 183.531915 631.524272 181.680851 632.728155 182.914894 633.330097 184.148936 635.135922 183.531915 636.339806 184.148936 636.941748 184.765957 638.145631 184.148936 639.349515 186 639.951456 184.765957 638.145631 182.914894 637.543689 182.914894 635.737864 181.680851 634.533981 181.06383 633.330097 179.212766 633.330097 176.744681 634.533981 179.212766 635.737864 180.446809 638.145631 181.680851 638.145631 181.06383 635.737864 178.595745 635.737864 176.744681 634.533981 175.510638 634.533981 174.276596 634.533981 172.425532 633.330097 171.808511 634.533981 171.191489 632.728155 170.574468 634.533981 168.723404 632.126214 166.87234 633.330097 166.255319 633.932039 166.87234 633.932039 165.638298 635.135922 164.404255 634.533981 163.787234 635.737864 163.170213 636.339806 164.404255 636.339806 161.93617 636.941748 163.170213 638.145631 162.553191 637.543689 161.319149 638.145631 160.085106 639.349515 158.851064 639.951456 160.702128 641.15534 159.468085 641.15534 160.702128 639.951456 161.93617 641.757282 162.553191 641.15534 163.170213 638.747573 163.787234 637.543689 165.638298 637.543689 168.106383 638.747573 167.489362 639.349515 167.489362 638.747573 169.957447 638.145631 170.574468 636.941748 170.574468 636.941748 171.808511 639.349515 170.574468 639.951456 171.808511 639.349515 173.042553 640.553398 173.042553 639.951456 174.276596 639.349515 174.893617 641.15534 176.12766 642.359223 175.510638 642.961165 176.744681 639.349515 177.361702 639.951456 178.595745 639.349515 179.829787 641.757282 180.446809 642.961165 182.297872 642.961165 180.446809 644.165049 180.446809 645.368932 178.595745 645.368932 180.446809 645.368932 181.680851 645.970874 181.680851 645.368932 182.914894 646.572816 182.914894 647.174757 184.148936 646.572816 186 649.582524 185.382979 652.592233 184.148936 652.592233 182.297872 653.796117 181.680851 653.194175 179.829787 655 179.212766 655 177.978723 653.796117 176.12766 646.572816 177.978723 641.15534 157"></polygon>
                <polygon id="Maine-(ME)" stroke="#313E99" fill="#FFFFFF" stroke-linecap="round" stroke-linejoin="round" points="689.235294 11.4251969 683.729412 25.3700787 684.341176 29.6141732 683.117647 31.4330709 683.117647 32.6456693 682.505882 34.4645669 683.729412 35.0708661 683.117647 35.6771654 683.117647 38.1023622 684.341176 38.1023622 683.117647 40.5275591 683.117647 42.3464567 681.282353 44.7716535 680.670588 46.5905512 681.894118 47.8031496 681.282353 49.015748 680.058824 48.4094488 680.058824 49.015748 680.058824 51.4409449 678.223529 49.6220472 677 51.4409449 686.788235 79.9370079 686.788235 81.7559055 689.235294 82.9685039 689.235294 84.7874016 691.682353 86 692.294118 82.9685039 691.682353 80.5433071 693.517647 79.3307087 694.129412 78.7244094 693.517647 76.2992126 695.352941 75.6929134 694.129412 73.2677165 696.576471 70.2362205 697.8 70.2362205 697.8 72.0551181 698.411765 70.8425197 699.635294 72.0551181 700.247059 70.8425197 697.188235 67.2047244 700.247059 69.6299213 700.247059 66.5984252 702.082353 69.6299213 703.305882 65.3858268 705.141176 66.5984252 706.364706 65.3858268 706.976471 62.9606299 706.364706 58.7165354 706.976471 57.503937 708.2 55.6850394 708.811765 56.8976378 710.035294 58.7165354 711.870588 58.7165354 712.482353 56.2913386 714.317647 56.8976378 715.541176 58.1102362 716.764706 54.4724409 715.541176 53.2598425 717.988235 54.4724409 719.823529 53.2598425 721.658824 49.6220472 722.882353 49.6220472 725.329412 48.4094488 728.388235 45.984252 729 43.5590551 727.164706 44.1653543 727.164706 41.7401575 724.717647 39.9212598 723.494118 40.5275591 721.047059 39.3149606 720.435294 38.1023622 719.823529 36.2834646 720.435294 34.4645669 719.211765 33.8582677 716.152941 33.8582677 714.929412 33.2519685 714.317647 29.6141732 708.2 12.0314961 705.141176 10.8188976 703.305882 9 700.858824 9.60629921 699.635294 11.4251969 697.188235 12.6377953 694.741176 13.8503937 692.905882 13.2440945 692.294118 10.8188976"></polygon>
                <polygon id="Louisiana-(LA)" stroke="#313E99" fill="#06BEE1" stroke-linecap="round" stroke-linejoin="round" points="406 303.429907 446.828125 301 448.65625 302.214953 447.4375 304.037383 448.046875 305.252336 448.65625 305.859813 447.4375 306.46729 448.65625 308.28972 448.65625 310.11215 451.09375 311.934579 449.875 315.579439 449.265625 315.579439 449.875 318.009346 446.21875 321.046729 445 325.299065 443.78125 327.121495 444.390625 329.551402 443.78125 330.766355 442.5625 330.766355 443.171875 333.196262 443.171875 335.626168 470.59375 333.196262 470.59375 334.411215 469.984375 338.663551 470.59375 340.485981 472.421875 342.308411 473.640625 345.953271 473.640625 346.560748 471.8125 346.560748 468.765625 345.953271 466.9375 344.130841 464.5 344.130841 461.453125 347.775701 462.0625 349.598131 464.5 350.205607 466.9375 350.813084 470.59375 348.383178 473.03125 348.383178 472.421875 349.598131 470.59375 350.205607 471.203125 351.420561 472.421875 351.420561 473.640625 352.635514 474.859375 351.420561 476.078125 348.990654 477.296875 351.420561 477.90625 352.635514 476.078125 352.635514 474.859375 355.065421 473.03125 354.457944 473.640625 356.280374 472.421875 356.88785 476.6875 359.925234 481.5625 361.140187 484 364.17757 482.171875 366 480.34375 364.17757 479.734375 364.785047 477.90625 362.962617 475.46875 362.35514 474.859375 361.140187 473.03125 361.747664 471.203125 359.317757 467.546875 358.102804 465.71875 358.102804 466.328125 359.317757 468.15625 360.53271 468.15625 362.35514 468.15625 364.17757 466.9375 366 465.71875 364.785047 465.71875 363.570093 463.28125 362.35514 461.453125 362.962617 460.234375 363.570093 459.625 366 455.359375 365.392523 453.53125 365.392523 450.484375 364.785047 450.484375 363.570093 452.921875 364.17757 452.3125 362.962617 450.484375 361.140187 451.09375 359.317757 450.484375 358.71028 449.265625 360.53271 446.828125 359.925234 446.21875 359.317757 445.609375 358.102804 445 358.71028 444.390625 356.88785 441.34375 357.495327 441.34375 355.672897 439.515625 355.672897 437.078125 356.88785 435.859375 357.495327 437.6875 359.317757 435.25 361.140187 429.15625 361.140187 423.671875 358.102804 420.015625 357.495327 417.578125 358.102804 412.703125 359.317757 411.484375 359.317757 410.875 358.102804 412.703125 357.495327 412.703125 355.672897 412.703125 354.457944 412.703125 353.242991 413.3125 350.813084 412.09375 348.383178 412.703125 347.168224 412.703125 345.345794 413.921875 342.915888 414.53125 341.093458 414.53125 337.448598 415.140625 336.841121 414.53125 336.233645 414.53125 334.411215 412.703125 332.588785 412.703125 330.766355 411.484375 329.551402 411.484375 328.943925 410.265625 327.728972 410.265625 325.299065 408.4375 322.869159 406.609375 321.046729"></polygon>
                <polygon id="Kentucky-(KY)" stroke="#313E99" fill="#FFFFFF" stroke-linecap="round" stroke-linejoin="round" points="466 240 484.828221 238.151163 484.828221 236.918605 484.220859 235.069767 487.865031 235.069767 543.742331 229.523256 544.957055 228.290698 551.638037 224.593023 552.245399 222.744186 555.282209 221.511628 555.282209 220.27907 556.496933 219.046512 556.496933 217.197674 560.748466 214.732558 565 209.186047 565 208.569767 563.177914 208.569767 560.141104 206.72093 557.711656 203.639535 557.104294 202.406977 554.674847 199.94186 555.282209 197.476744 554.674847 195.627907 553.460123 193.77907 551.030675 193.162791 549.815951 190.081395 547.386503 191.930233 546.779141 193.162791 544.957055 193.162791 544.349693 193.77907 543.134969 192.546512 540.705521 192.546512 539.490798 194.395349 538.276074 193.77907 536.453988 191.930233 533.417178 192.546512 531.595092 191.930233 530.98773 190.697674 529.773006 188.232558 528.558282 188.232558 527.343558 187 526.128834 188.232558 524.306748 187 522.484663 188.848837 523.092025 190.081395 523.092025 191.313953 524.306748 191.930233 524.306748 193.77907 522.484663 193.77907 519.447853 195.627907 518.233129 195.011628 515.803681 195.627907 516.411043 198.709302 515.196319 200.55814 513.981595 200.55814 513.981595 203.023256 512.766871 203.639535 511.552147 203.639535 510.944785 206.104651 510.944785 208.569767 509.122699 209.802326 507.300613 208.569767 505.478528 207.953488 504.871166 206.72093 503.656442 208.569767 502.441718 211.034884 501.834356 212.883721 500.619632 212.267442 498.797546 211.034884 496.97546 211.651163 496.368098 212.267442 495.153374 214.732558 493.93865 213.5 490.90184 212.267442 489.079755 213.5 488.472393 212.267442 488.472393 214.116279 487.865031 214.732558 487.257669 213.5 486.042945 214.116279 484.220859 213.5 484.220859 215.965116 482.398773 215.965116 481.791411 217.197674 481.184049 219.046512 482.398773 220.27907 482.398773 221.511628 477.539877 223.360465 476.932515 225.209302 478.147239 227.05814 478.754601 228.290698 477.539877 228.906977 476.932515 228.906977 472.680982 227.05814 470.858896 227.05814 469.644172 228.290698 468.429448 230.139535 469.03681 230.755814 468.429448 231.372093 469.644172 231.372093 469.03681 233.837209 469.644172 235.069767 468.429448 238.767442 466.607362 237.534884 466.607362 238.151163"></polygon>
                <path d="M340.437623,187.195132 C324.698934,187.412475 293.221557,187.23144 293.221557,187.23144 L292,238.336208 C292,238.336208 325.050824,239.168627 341.576236,238.969117 C359.050824,238.758147 394,237.104768 394,237.104768 L392.778443,199.545842 L391.556886,198.930122 L389.724551,198.930122 L388.502994,197.082962 L388.502994,195.851521 L386.670659,194.620081 L385.449102,193.388641 L386.670659,191.541481 L387.281437,190.310041 L388.502994,189.694321 L387.892216,187.84716 L386.670659,187.23144 L385.449102,187.84716 L382.39521,186 C382.39521,186 354.423485,187.001995 340.437623,187.195132 Z" id="Kansas-(KS)" stroke="#313E99" fill="#FFFFFF" stroke-linecap="round" stroke-linejoin="round"></path>
                <path d="M376.230216,176.383721 C376.230216,176.383721 393.755092,175.996504 402.517531,175.494756 C411.692742,174.969372 430.043165,173.302326 430.043165,173.302326 L434.323741,177 L434.935252,176.383721 L434.323741,173.918605 L437.992806,171.453488 L437.992806,168.988372 L440.438849,166.523256 L439.827338,164.674419 L437.381295,162.209302 L438.604317,158.511628 L443.496403,157.27907 L447.165468,154.813953 L447.165468,152.348837 L449,150.5 L448.388489,145.569767 L444.719424,144.337209 L444.719424,142.488372 L441.661871,140.023256 L440.438849,136.94186 L436.769784,136.94186 L434.935252,133.244186 L434.323741,128.930233 L435.546763,127.081395 L433.71223,125.848837 L433.100719,124 L364,127.697674 L364,128.930233 L365.223022,130.162791 L364.611511,132.011628 L365.834532,133.244186 L365.223022,138.174419 L364,140.023256 L365.834532,144.337209 L367.057554,144.337209 L367.669065,147.418605 L367.669065,149.883721 L368.892086,150.5 L369.503597,152.348837 L370.726619,152.965116 L370.726619,154.813953 L371.94964,156.046512 L371.338129,159.744186 L373.172662,161.593023 L373.172662,163.44186 L375.007194,164.674419 L373.784173,165.290698 L375.007194,166.523256 L375.007194,173.918605 L376.230216,175.151163 L376.230216,176.383721 Z" id="Iowa-(IA)" stroke="#313E99" fill="#FFFFFF" stroke-linecap="round" stroke-linejoin="round"></path>
                <polygon id="Indiana-(IN)" stroke="#313E99" fill="#FFFFFF" stroke-linecap="round" stroke-linejoin="round" points="482.614286 148.445378 484.457143 149.655462 486.3 149.655462 491.828571 146.630252 518.242857 143 518.242857 144.210084 523.771429 187.773109 523.157143 188.378151 523.771429 189.588235 523.771429 190.798319 525 191.403361 525 193.218487 523.157143 193.218487 520.085714 195.033613 518.857143 194.428571 516.4 195.033613 517.014286 198.058824 515.785714 199.87395 514.557143 199.87395 514.557143 202.294118 513.328571 202.89916 512.1 202.89916 511.485714 205.319328 511.485714 207.739496 509.642857 208.94958 507.8 207.739496 505.957143 207.134454 505.342857 205.92437 504.114286 207.739496 503.5 208.94958 502.885714 210.159664 502.271429 211.97479 501.042857 211.369748 499.2 210.159664 497.357143 210.764706 496.742857 211.369748 495.514286 213.789916 494.285714 212.579832 491.214286 211.369748 489.371429 212.579832 488.757143 211.369748 488.757143 213.184874 488.142857 213.789916 487.528571 212.579832 486.3 213.184874 484.457143 212.579832 484.457143 213.789916 484.457143 215 482.614286 215 482 213.184874 482.614286 212.579832 482.614286 210.159664 483.842857 208.94958 482.614286 207.739496 483.228571 206.529412 484.457143 205.92437 485.685714 203.504202 486.914286 202.294118 486.914286 200.478992 488.142857 198.663866 488.142857 197.453782 487.528571 195.638655 487.528571 194.428571 486.3 192.613445 485.071429 191.403361 486.3 190.798319 485.685714 188.983193 486.914286 187.773109"></polygon>
                <polygon id="Illinois-(IL)" stroke="#313E99" fill="#FFFFFF" stroke-linecap="round" stroke-linejoin="round" points="477.043478 136 440.521739 139.615385 443.565217 142.025641 443.565217 143.833333 447.217391 145.038462 447.826087 149.858974 446 151.666667 446 154.076923 442.347826 156.487179 437.478261 157.692308 436.26087 161.307692 438.695652 163.717949 439.304348 165.525641 436.869565 167.935897 436.869565 170.346154 433.217391 172.75641 433.826087 175.166667 433.217391 175.769231 432.608696 176.974359 432 179.384615 433.217391 183 435.043478 186.615385 438.695652 189.628205 439.304348 190.833333 442.956522 192.641026 444.173913 194.448718 444.173913 196.25641 445.391304 199.269231 446.608696 200.474359 448.434783 198.666667 450.869565 198.666667 452.695652 200.474359 452.086957 201.076923 452.086957 203.487179 450.26087 208.307692 450.26087 210.717949 455.130435 214.333333 458.782609 216.141026 459.391304 216.141026 460.608696 217.948718 463.043478 219.153846 463.043478 221.564103 464.26087 222.769231 464.26087 223.371795 463.652174 225.179487 463.652174 225.782051 465.478261 228.192308 465.478261 229.397436 467.304348 230 467.304348 228.794872 468.521739 230 469.130435 229.397436 468.521739 228.794872 469.73913 226.987179 470.956522 225.782051 472.782609 225.782051 477.043478 227.589744 477.652174 227.589744 478.869565 226.987179 478.26087 225.782051 477.043478 223.974359 477.652174 222.166667 479.478261 221.564103 482.521739 220.358974 482.521739 219.153846 481.304348 217.948718 481.913043 216.141026 482.521739 214.935897 481.913043 213.128205 482.521739 212.525641 482.521739 210.115385 483.73913 208.910256 482.521739 207.705128 483.130435 206.5 484.347826 205.897436 485.565217 203.487179 486.782609 202.282051 486.782609 200.474359 488 198.666667 488 197.461538 487.391304 195.653846 487.391304 194.448718 486.173913 192.641026 484.956522 191.435897 486.173913 190.833333 485.565217 189.025641 486.782609 187.820513 482.521739 148.653846 480.695652 146.846154 480.086957 145.038462 480.086957 143.230769 478.26087 142.025641 477.652174 140.217949 477.043478 139.615385"></polygon>
                <polygon id="Idaho-(ID)" stroke="#313E99" fill="#FFFFFF" stroke-linecap="round" stroke-linejoin="round" points="177.345865 146 181 104.058824 177.954887 99.8039216 176.736842 99.8039216 175.518797 102.235294 171.864662 102.235294 171.255639 101.627451 165.774436 101.019608 164.556391 102.843137 160.293233 101.627451 159.075188 103.45098 156.639098 101.019608 155.421053 96.1568627 153.593985 96.1568627 151.766917 94.3333333 152.37594 91.9019608 149.93985 87.0392157 148.721805 82.1764706 147.503759 79.745098 142.631579 83.3921569 140.195489 80.9607843 140.195489 77.3137255 142.022556 76.7058824 141.413534 71.8431373 142.631579 71.2352941 145.067669 63.9411765 141.413534 63.9411765 141.413534 62.1176471 140.195489 62.1176471 137.759398 59.6862745 138.368421 58.4705882 134.105263 53 132.278195 51.7843137 129.842105 48.745098 130.451128 48.745098 129.842105 46.9215686 130.451128 45.7058824 129.233083 42.6666667 126.796992 39.0196078 129.233083 23.8235294 117.661654 22 110.962406 63.9411765 112.180451 66.372549 112.180451 67.5882353 111.571429 68.1960784 112.180451 71.8431373 115.834586 74.8823529 116.443609 77.9215686 113.398496 81.5686275 112.789474 82.7843137 110.353383 86.4313725 109.744361 88.254902 107.308271 90.6862745 104.263158 94.3333333 103.654135 97.9803922 106.090226 98.5882353 107.308271 99.8039216 106.090226 101.019608 106.090226 102.843137 104.87218 105.27451 100 135.666667 138.368421 141.137255"></polygon>
                <path d="M327.607143,502 L328.821429,501.392157 L329.428571,499.568627 L332.464286,497.137255 L334.892857,495.921569 L337.321429,495.313725 L340.357143,494.705882 L342.785714,492.882353 L344,490.45098 L340.964286,489.235294 L340.357143,486.803922 L338.535714,486.803922 L338.535714,484.372549 L336.107143,481.941176 L329.428571,479.509804 L328.821429,480.117647 L325.785714,478.294118 L324.571429,477.078431 L322.75,478.294118 L323.964286,480.72549 L324.571429,481.941176 L322.142857,484.980392 L320.321429,487.411765 L321.535714,489.843137 L322.75,492.882353 L323.357143,495.313725 L322.75,498.960784 L323.964286,500.784314 L326.392857,500.784314 L327.607143,502 Z M245.035714,444.254902 L243.214286,446.078431 L242,447.294118 L242,448.509804 L242.607143,449.117647 L243.821429,447.294118 L245.642857,446.686275 L245.642857,444.862745 L245.035714,444.254902 Z M254.75,440 L251.714286,441.823529 L250.5,443.647059 L251.107143,445.470588 L252.928571,445.470588 L254.75,447.294118 L255.964286,447.294118 L258.392857,446.686275 L259,444.254902 L260.214286,442.431373 L258.392857,440.607843 L255.964286,441.215686 L254.75,440 Z M284.5,450.333333 L286.928571,453.372549 L286.928571,455.803922 L289.357143,454.588235 L289.964286,456.411765 L290.571429,458.235294 L288.75,458.235294 L285.714286,457.627451 L283.892857,456.411765 L283.892857,457.627451 L282.678571,458.235294 L280.857143,456.411765 L279.642857,454.588235 L279.035714,452.156863 L281.464286,452.764706 L284.5,450.333333 Z M297.857143,458.843137 L299.071429,459.45098 L300.892857,460.058824 L303.321429,460.058824 L303.321429,459.45098 L304.535714,460.666667 L308.785714,460.666667 L306.357143,462.490196 L303.928571,462.490196 L302.107143,461.27451 L298.464286,461.882353 L297.25,461.882353 L296.642857,460.666667 L297.857143,460.058824 L297.857143,458.843137 Z M302.107143,464.921569 L303.928571,464.921569 L306.357143,466.745098 L304.535714,468.568627 L302.714286,467.960784 L302.714286,466.137255 L301.5,465.529412 L302.107143,464.921569 Z M310.607143,471 L308.178571,471.607843 L308.178571,472.215686 L309.392857,472.823529 L311.214286,472.215686 L310.607143,471 Z M311.821429,467.352941 L313.035714,468.568627 L313.035714,470.392157 L313.642857,471.607843 L314.857143,471 L316.678571,471 L317.892857,469.784314 L319.107143,470.392157 L320.928571,468.568627 L320.928571,467.352941 L319.107143,466.137255 L316.071429,464.313725 L313.642857,465.529412 L312.428571,464.921569 L309.392857,461.882353 L308.785714,463.705882 L308.178571,464.921569 L310,467.352941 L311.821429,467.352941 Z" id="Hawaii-(HI)" stroke="#313E99" fill="#FFFFFF" stroke-linecap="round" stroke-linejoin="round"></path>
                <polygon id="Georgia-(GA)" stroke="#313E99" fill="#FFFFFF" stroke-linecap="round" stroke-linejoin="round" points="556.548387 254 521 258.864 532.032258 292.912 534.483871 298.384 536.322581 300.816 536.322581 303.248 538.16129 303.856 536.322581 305.68 536.322581 308.72 535.096774 309.936 535.096774 312.976 537.548387 316.016 536.935484 322.096 538.774194 323.92 539.387097 325.744 540.612903 327.568 541.225806 330 577.387097 327.568 581.064516 326.96 581.064516 328.176 582.290323 330 584.129032 330 584.741935 326.352 583.516129 325.744 583.516129 323.312 584.741935 322.096 587.806452 322.704 591.483871 322.704 590.258065 320.88 591.483871 318.448 590.258065 318.448 590.870968 317.232 590.258065 316.016 590.258065 315.408 590.258065 313.584 591.483871 313.584 591.483871 315.408 592.709677 312.976 589.645161 312.368 589.645161 311.152 592.709677 311.76 592.096774 310.544 593.935484 308.72 592.096774 309.328 590.870968 308.112 593.322581 307.504 592.096774 306.288 592.709677 305.072 591.483871 304.464 593.935484 304.464 594.548387 303.248 592.709677 302.64 593.322581 301.424 595.774194 302.032 595.774194 300.816 597 299.6 595.16129 298.992 593.935484 298.384 593.322581 298.992 592.096774 297.168 592.096774 294.736 590.258065 292.304 589.645161 291.088 587.806452 291.088 587.193548 289.872 586.580645 287.44 585.354839 285.616 585.354839 284.4 582.290323 282.576 580.451613 282.576 580.451613 281.36 579.225806 280.752 579.225806 279.536 577.387097 278.928 577.387097 277.712 575.548387 275.888 573.709677 275.888 571.870968 272.848 568.806452 271.632 568.193548 270.416 566.967742 270.416 566.354839 268.592 564.516129 267.376 563.903226 266.768 563.290323 264.944 561.451613 263.728 561.451613 261.904 559 262.512 557.16129 261.296 556.548387 260.688 554.709677 260.08 553.483871 259.472 554.709677 257.04 555.322581 255.824"></polygon>
                <polygon id="Florida-(FL)" stroke="#313E99" fill="#06BEE1" stroke-linecap="round" stroke-linejoin="round" points="540.294118 325.662338 502.607843 329.935065 502 332.987013 503.823529 334.818182 505.647059 335.428571 505.647059 337.87013 506.254902 339.090909 507.470588 339.090909 506.254902 341.532468 506.862745 342.142857 509.901961 338.480519 509.294118 336.649351 511.117647 337.87013 511.72549 336.649351 512.941176 336.649351 512.333333 337.87013 514.156863 338.480519 512.941176 339.090909 518.411765 338.480519 519.627451 336.649351 520.843137 336.649351 523.882353 336.038961 525.705882 337.87013 522.666667 338.480519 527.529412 339.701299 531.176471 341.532468 529.352941 339.701299 531.176471 338.480519 531.784314 339.701299 533.607843 337.87013 534.215686 339.090909 532.392157 340.922078 533.607843 341.532468 535.431373 341.532468 536.647059 342.753247 535.431373 343.363636 533.607843 342.753247 536.647059 344.584416 538.470588 346.415584 538.470588 348.246753 540.294118 348.246753 542.72549 347.025974 545.156863 345.194805 545.764706 346.415584 550.019608 342.753247 552.45098 342.753247 550.019608 341.532468 552.45098 339.701299 554.27451 339.090909 557.313725 339.090909 559.745098 340.311688 561.568627 340.311688 564 342.753247 564.607843 343.974026 567.039216 344.584416 567.647059 347.025974 568.862745 348.246753 570.686275 348.857143 571.901961 350.688312 573.72549 351.909091 577.372549 351.909091 578.588235 354.961039 580.411765 356.181818 580.411765 358.623377 581.019608 359.844156 581.019608 365.948052 579.803922 369 581.019608 370.220779 580.411765 374.493506 582.843137 376.324675 583.45098 373.883117 581.627451 372.662338 582.235294 370.831169 584.666667 372.051948 584.666667 373.883117 585.882353 372.051948 586.490196 373.272727 587.098039 374.493506 584.666667 378.155844 584.058824 380.597403 585.882353 382.428571 586.490196 384.25974 588.313725 386.701299 589.529412 388.532468 591.352941 390.363636 593.176471 390.363636 590.745098 387.922078 592.568627 387.922078 595 387.311688 595.607843 387.922078 594.392157 388.532468 595 392.805195 595.607843 394.636364 596.823529 394.025974 596.823529 392.805195 599.254902 390.974026 599.254902 392.194805 598.039216 393.415584 596.823529 395.246753 598.039216 395.857143 598.647059 395.246753 599.862745 397.688312 600.470588 400.74026 602.294118 403.181818 607.156863 404.402597 608.980392 405.623377 608.980392 406.844156 609.588235 407.454545 611.411765 409.285714 612.627451 411.727273 615.666667 412.337662 616.882353 413.558442 615.666667 414.779221 612.627451 412.948052 612.627451 414.779221 613.843137 416 616.882353 415.38961 617.490196 414.168831 619.921569 414.779221 621.745098 412.337662 623.568627 412.337662 625.392157 409.285714 624.176471 408.064935 625.392157 403.792208 626 400.12987 626 397.077922 626 393.415584 625.392157 392.805195 625.392157 387.922078 624.784314 384.25974 623.568627 383.038961 623.568627 381.818182 621.137255 379.376623 619.921569 379.376623 619.313725 378.155844 621.137255 378.766234 619.921569 376.324675 619.313725 375.714286 616.882353 371.441558 614.45098 367.779221 611.411765 362.896104 608.372549 358.623377 607.156863 354.350649 608.372549 353.74026 608.980392 356.181818 610.803922 356.181818 605.333333 349.467532 599.862745 342.142857 596.215686 333.597403 595.607843 332.376623 594.392157 329.935065 593.784314 326.883117 591.960784 325.662338 591.960784 323.831169 593.176471 323.831169 593.176471 322.61039 588.313725 322.61039 585.27451 322 584.058824 323.220779 584.058824 325.662338 585.27451 326.272727 584.666667 329.935065 582.843137 329.935065 581.627451 328.103896 581.627451 326.883117 577.980392 327.493506 542.117647 329.935065 541.509804 327.493506"></polygon>
                <polygon id="Delaware-(DE)" stroke="#313E99" fill="#FFFFFF" stroke-linecap="round" stroke-linejoin="round" points="646.478261 177 653.782609 175.153846 655 174.538462 655 173.923077 654.391304 172.692308 652.565217 173.307692 653.173913 172.076923 653.173913 170.846154 654.391304 170.230769 653.173913 169.615385 651.956522 169 650.130435 167.769231 650.130435 166.538462 647.695652 165.307692 647.695652 162.846154 644.043478 159.769231 644.043478 157.923077 643.434783 157.307692 643.434783 156.076923 644.652174 154.846154 645.26087 153 642.826087 153 641.608696 154.230769 641 156.076923"></polygon>
                <polygon id="Connecticut-(CT)" stroke="#313E99" fill="#FFFFFF" stroke-linecap="round" stroke-linejoin="round" points="661 110.888889 662.846154 123.111111 664.076923 124.333333 661.615385 127.388889 662.846154 128 664.692308 128 667.769231 124.333333 669.615385 123.722222 670.846154 121.888889 672.076923 121.888889 675.153846 120.666667 678.230769 120.055556 677.615385 118.833333 679.461538 119.444444 680.692308 118.833333 682.538462 118.222222 683.769231 117.611111 685 117.611111 685 115.166667 682.538462 106 669.615385 109.666667 669 109.055556"></polygon>
                <path d="M251.391304,168.630252 C236.593969,167.952886 201.478261,165 201.478261,165 L196,232.159664 C196,232.159664 219.145498,234.135366 232.848682,234.820696 C251.406368,235.748811 292.782609,237 292.782609,237 L294,169.235294 C294,169.235294 267.434549,169.364651 251.391304,168.630252 Z" id="Colorado-(CO)" stroke="#313E99" fill="#FFFFFF" stroke-linecap="round" stroke-linejoin="round"></path>
                <polygon id="California-(CA)" stroke="#313E99" fill="#06BEE1" stroke-linecap="round" stroke-linejoin="round" points="61.2121212 129.935154 7.87878788 119 7.87878788 120.822526 6.66666667 122.645051 7.87878788 123.860068 7.87878788 129.327645 5.45454545 134.187713 5.45454545 135.40273 4.84848485 137.832765 5.45454545 138.440273 3.63636364 139.047782 3.03030303 140.262799 1.81818182 140.870307 0 143.90785 0 146.945392 2.42424242 150.590444 3.03030303 151.805461 4.84848485 155.450512 4.84848485 160.918089 3.03030303 163.955631 3.63636364 165.778157 4.24242424 170.030717 3.03030303 170.638225 7.27272727 177.928328 9.6969697 180.358362 9.6969697 182.788396 10.9090909 184.610922 12.1212121 187.040956 12.1212121 188.255973 10.3030303 185.825939 10.3030303 187.040956 12.7272727 190.686007 13.3333333 190.686007 15.1515152 192.508532 16.3636364 187.648464 18.1818182 187.040956 20.6060606 189.47099 21.8181818 188.863481 23.030303 188.255973 23.6363636 189.47099 24.8484848 190.078498 26.6666667 190.078498 28.4848485 190.686007 30.3030303 192.508532 29.6969697 192.508532 27.8787879 191.293515 26.6666667 191.901024 24.8484848 191.293515 21.8181818 190.078498 20.6060606 190.686007 19.3939394 189.47099 17.5757576 190.686007 17.5757576 191.293515 18.1818182 192.508532 18.1818182 193.723549 19.3939394 194.938567 19.3939394 197.368601 19.3939394 199.191126 20.6060606 199.798635 20 200.406143 18.1818182 199.191126 16.3636364 196.761092 16.3636364 195.546075 16.3636364 193.723549 15.1515152 193.723549 14.5454545 194.938567 15.1515152 196.153584 14.5454545 197.976109 15.1515152 200.406143 14.5454545 202.836177 16.3636364 206.481229 18.1818182 208.303754 20.6060606 208.911263 21.8181818 211.341297 21.2121212 213.771331 19.3939394 214.986348 18.7878788 214.986348 18.7878788 219.846416 19.3939394 221.061433 21.2121212 222.883959 21.8181818 225.313993 23.030303 225.921502 23.030303 228.351536 24.2424242 230.174061 24.2424242 231.996587 26.6666667 233.211604 27.2727273 235.641638 29.6969697 236.856655 29.6969697 238.679181 28.4848485 239.894198 29.0909091 241.109215 31.5151515 242.324232 31.5151515 244.146758 30.9090909 246.576792 30.9090909 249.006826 30.9090909 250.829352 29.6969697 252.044369 31.5151515 252.651877 32.1212121 254.474403 36.3636364 254.474403 36.969697 255.68942 38.7878788 255.68942 40 256.904437 41.8181818 257.511945 43.6363636 256.904437 47.2727273 259.94198 48.4848485 262.979522 52.7272727 265.409556 53.9393939 266.017065 57.5757576 266.017065 59.3939394 268.447099 58.7878788 271.484642 60 272.09215 61.2121212 271.484642 63.030303 272.09215 65.4545455 275.129693 69.0909091 279.382253 70.9090909 281.204778 72.1212121 284.849829 72.7272727 287.887372 72.1212121 290.317406 72.7272727 291.532423 73.9393939 292.74744 73.9393939 294.569966 107.878788 297 108.484848 296.392491 110.30303 297 110.909091 297 111.515152 295.784983 112.121212 294.569966 112.121212 292.139932 109.69697 291.532423 109.090909 290.317406 109.69697 288.494881 109.69697 284.849829 111.515152 284.849829 112.727273 282.419795 113.333333 279.989761 113.939394 277.559727 113.939394 276.34471 115.151515 275.129693 115.757576 273.914676 118.181818 272.699659 120 270.877133 116.969697 267.83959 116.363636 264.194539 115.151515 261.764505 114.545455 260.549488 114.545455 258.726962 52.1212121 179.143345"></polygon>
                <polygon id="Arkansas-(AR)" stroke="#313E99" fill="#FFFFFF" stroke-linecap="round" stroke-linejoin="round" points="399.2 293.701923 398 263.413462 395 245.846154 395 245.240385 455.6 241 457.4 242.817308 457.4 244.028846 454.4 248.269231 453.8 248.875 453.8 250.086538 462.2 248.875 463.4 249.480769 464 250.086538 462.2 250.086538 462.2 251.298077 462.8 251.903846 459.8 253.721154 460.4 256.144231 460.4 257.355769 459.2 257.355769 458.6 259.778846 458 261.596154 459.2 264.019231 457.4 264.019231 456.2 266.442308 456.2 268.259615 454.4 269.471154 454.4 271.288462 452.6 271.288462 452.6 276.740385 450.8 277.951923 450.8 279.163462 448.4 281.586538 449.6 282.798077 449 283.403846 446.6 284.615385 447.2 287.644231 445.4 290.067308 446.6 291.278846 445.4 292.490385 446.6 293.701923 446.6 296.730769 447.8 298.548077 446.6 299.759615 446.6 301.576923 405.8 304 405.8 294.913462 405.2 294.307692 402.2 294.307692 401.6 294.913462 400.4 294.307692"></polygon>
                <path d="M153.040231,228.282732 C167.360154,229.823966 196,232.298246 196,232.298246 L188.129252,329 L159.068027,326.567251 L107,300.415205 L107.605442,298.590643 L108.816327,296.766082 L109.421769,296.157895 L111.238095,296.766082 L111.843537,296.766082 L113.054422,294.333333 L113.054422,291.900585 L110.632653,291.292398 L110.027211,290.076023 L110.632653,288.251462 L110.632653,284.602339 L112.44898,284.602339 L113.659864,282.169591 L114.870748,277.304094 L114.870748,276.087719 L116.081633,274.871345 L116.687075,273.654971 L119.108844,272.438596 L120.92517,270.614035 L117.897959,267.573099 L117.292517,263.923977 L115.47619,260.274854 L115.47619,256.017544 L116.687075,255.409357 L116.687075,252.976608 L116.081633,249.935673 L116.687075,248.111111 L116.081633,245.070175 L116.687075,243.853801 L116.081633,242.02924 L116.687075,239.596491 L119.108844,238.380117 L120.92517,239.596491 L122.136054,238.988304 L122.741497,241.421053 L124.557823,241.421053 L126.37415,237.77193 L128.190476,225 C128.190476,225 144.75698,227.391217 153.040231,228.282732 Z" id="Arizona-(AZ)" stroke="#313E99" fill="#FFFFFF" stroke-linecap="round" stroke-linejoin="round"></path>
                <polygon id="Alabama-(AL)" stroke="#313E99" fill="#FFFFFF" stroke-linecap="round" stroke-linejoin="round" points="486 262.280576 486.606742 263.503597 487.820225 264.115108 487.820225 316.705036 491.460674 341.165468 493.88764 341.165468 495.101124 342.388489 495.707865 342.388489 495.707865 338.719424 496.314607 335.05036 498.741573 336.884892 498.134831 339.330935 499.348315 340.553957 501.775281 343 503.595506 342.388489 502.988764 341.165468 504.202247 341.165468 506.022472 338.719424 505.41573 337.496403 505.41573 335.05036 503.595506 334.438849 501.775281 332.604317 502.382022 329.546763 540 325.266187 539.393258 323.431655 537.573034 321.597122 538.179775 315.482014 535.752809 312.42446 535.752809 309.366906 536.966292 308.143885 536.966292 305.086331 538.786517 303.251799 536.966292 302.640288 536.966292 300.194245 535.146067 297.748201 532.719101 292.244604 521.797753 258"></polygon>
                <text id="map-marker---FontAwesome" font-family="FontAwesome" font-size="30" font-weight="normal" fill="#EE4266">
                    <tspan x="38" y="26"></tspan>
                </text>
                <text id="map-marker---FontAwesome-Copy-3" font-family="FontAwesome" font-size="30" font-weight="normal" fill="#EE4266">
                    <tspan x="457" y="354"></tspan>
                </text>
                <text id="map-marker---FontAwesome-Copy-4" font-family="FontAwesome" font-size="30" font-weight="normal" fill="#EE4266">
                    <tspan x="578" y="370"></tspan>
                </text>
                <text id="map-marker---FontAwesome-Copy-5" font-family="FontAwesome" font-size="30" font-weight="normal" fill="#EE4266">
                    <tspan x="597" y="285"></tspan>
                </text>
                <text id="map-marker---FontAwesome-Copy-6" font-family="FontAwesome" font-size="30" font-weight="normal" fill="#EE4266">
                    <tspan x="632" y="205"></tspan>
                </text>
                <text id="map-marker---FontAwesome-Copy-7" font-family="FontAwesome" font-size="30" font-weight="normal" fill="#EE4266">
                    <tspan x="626" y="163"></tspan>
                </text>
                <text id="map-marker---FontAwesome-Copy-8" font-family="FontAwesome" font-size="30" font-weight="normal" fill="#EE4266">
                    <tspan x="681" y="112"></tspan>
                </text>
                <text id="map-marker---FontAwesome-Copy" font-family="FontAwesome" font-size="30" font-weight="normal" fill="#EE4266">
                    <tspan x="43" y="260"></tspan>
                </text>
                <text id="map-marker---FontAwesome-Copy-2" font-family="FontAwesome" font-size="30" font-weight="normal" fill="#EE4266">
                    <tspan x="68" y="294"></tspan>
                </text>
            </g>
        </g>
    </g>
</svg>