<svg width="733" height="506" xmlns="http://www.w3.org/2000/svg" style="background:#313e99"><g fill="none" fill-rule="evenodd"><path d="M217.136 99.567C205.98 98.786 183.67 96 183.67 96L177 163.273s24.781 2.42 37.172 3.324C232.508 167.935 269.18 170 269.18 170L271 102.116s-35.91-1.292-53.864-2.55zM417.885 70.281l-.606 1.835h-1.213l.606 6.115v3.67l-4.852 3.058-.607 1.834L410 88.628v1.835l1.82.611 1.213 1.835-.607 2.446-.606 1.835.606 1.223-.606.612.606 1.223-.606 3.67 3.032 2.446h2.427l1.82 1.834 2.426.612 2.426 2.446 1.82 2.446 1.82 1.224h2.425l2.427 2.446.606 1.835v4.892h.607l.606 1.835 1.82 1.223-1.213 1.835.606 4.28 1.82 3.67h3.64l1.213 3.058 36.393-3.67-.607-2.446.607-1.223v-1.835l-1.213-.611-.607-2.446-.606-3.67v-2.446l.606-1.835v-1.835l1.213-2.446-1.213-1.223.607-3.67.606-1.834 1.82-1.223-1.213-1.835v-3.67l1.82-3.057-.607-1.835 1.82-1.835.606-3.057.607-2.447L484 88.017h-1.213l-.607 1.834-1.213 1.835h-.606v1.835l-1.213 1.223.606 1.223-.606.612h-.607l-1.82.611-1.213 2.446-1.213 1.224-1.213 1.834-1.213-.611v-1.835l1.213-3.058 1.213-1.835 1.82-1.223V92.91l-1.82-1.223 1.213-3.67h-.606l-1.82.612h-.607l1.214-2.446-1.214-3.058-1.82-1.223h-1.819v-1.835l-1.82-.611-4.246-.612-2.426.612-2.426-1.224-7.885-1.834-6.672-1.223-1.82-2.447-1.82-.611-4.246-1.223-2.426 1.223v-1.223l1.213-4.281L433.05 66l-3.033 1.835-1.82.611-4.245 2.447-3.64.611zM566.267 208.455v.616h.604v1.232h.604v1.232h.604l.604 1.233h1.812l.604.616 1.812.616 1.812-1.848.604-1.233 2.416 1.233 1.207-1.233h2.416l.604-1.232-.604-1.232 1.208-.617 1.208.617 2.416-1.849.604.616 2.416-1.848-.604-.616 1.208-1.233v-.616h-1.208v-1.232l.604-1.849 2.416-3.697.604-2.464-.604-.616 1.812-1.849-.604-.616 1.208-1.849v-2.464l.603-.616h1.208l1.208 1.232h2.416l1.208-1.232v-1.849l.604-.616v-1.849l.604-1.232.604-.616 1.812.616.604-2.465h1.208v-.616l1.208-1.232v-1.232l1.208-1.849v-1.848l.604-1.233-.604-1.232.604-.616 7.247 3.697.604-3.697v-1.232l-1.208-.617-.604-1.232h-.604l.604-1.232-2.416.616-2.416-1.232-.604.616-.603 1.232h-1.812l-.604 1.849-1.208.616h-1.812l-1.208-1.849v1.849l-1.812 1.848h-1.812l-.604 1.233-1.208 1.848-2.416 2.465-1.811-8.627-13.288 2.465-3.02-15.404-1.811 1.232 1.812 1.233-.604 1.848.604 1.849-.604 2.464v3.081l-.604 3.697v2.465l-3.02 1.848v1.849l-2.416 2.464-1.208-1.232-1.812 1.232v1.233l-1.208.616-.604 2.464-.604 1.233.604.616v1.232l-1.208 1.233h-.603v-1.233l-1.208-.616-1.208 1.232-.604 1.849v1.232l.604 3.081-1.208.616v1.849L556 195.515l.604 1.849-.604 2.464 2.416 2.465.604 1.232 2.416 3.081 3.02 1.849zM629.5 175l1.5-1.2-2.25-1.8-.75 1.2.75.6z" stroke="#313E99" fill="#FFF" stroke-linecap="round" stroke-linejoin="round"/><path d="M112.922 71v-1.83l.607-.61v-1.22l-1.215-2.44L119 22.81s-34.435-5.987-51.653-9.286C62.277 12.553 52.137 10 52.137 10l-.608 1.22.608 3.05h1.824v2.44l-.608 2.44h-1.216l-.608-1.22-.607-1.22-1.824-2.44-1.216.61 1.216.61 1.216 1.22-1.216.61-1.823-1.22-1.824-.61.608 1.83 3.039 1.22 1.216-1.22 1.215 1.83-1.823 2.44.608 1.83 1.215 3.66 1.216.61-.608-1.83-1.215-3.05.607-1.83h1.216l1.216.61v4.27l1.215.61-1.215 1.83-1.824 1.83v3.66l-.608 3.05-1.215 1.83-1.216-.61-1.823 1.83-.608.61-1.824-.61-1.216.61-1.823-.61 1.216-1.83 1.823-1.83 1.216.61 1.216-1.22 1.215 1.83.608-3.66-1.216-.61.608-2.44h1.824l.608-1.83-4.255 2.44-1.216.61-2.431 1.83 1.215 1.22h1.216l-1.216.61h-3.039l.608-1.22 2.431-2.44 1.824-1.83V28.3h1.216v1.22l1.823-1.83-1.216-3.66v1.83l-1.823-1.83-.608.61-1.824-1.83h-1.823l-6.686-2.44-2.432-1.22-1.215-1.22-4.255-2.44L26 18.54v3.66l1.824 2.44.607 2.44-.607 4.88 1.215 1.83-.608 3.66h1.824v1.22l2.431 1.22-3.039.61-.608 1.22-.608-.61v1.83h2.432l1.215 1.83h-1.823l-.608 2.44.608 1.83H28.43l-.607-1.22-.608 2.44h1.215l1.216.61h2.431l.608.61h1.824l.608 1.83 1.215.61h1.824l1.823 1.83 1.216 3.05-.608 4.27v1.22l4.255 1.22 1.824 1.22 4.255-1.22 1.823-.61 3.647.61 3.04 1.22.607 1.83 2.432-.61.607.61 4.255-.61 3.04.61 3.039-.61 5.47-.61 1.824-.61 5.47 1.22L88 66.73 112.922 71z" stroke="#313E99" fill="#5ADBFF" stroke-linecap="round" stroke-linejoin="round"/><path d="M649.352 210.245v-1.225h.608v-3.06l-1.216-1.838h-4.255l.608 1.837-1.824-.612-1.216 1.224v-1.836l-3.04-1.225v-1.837h-3.648l-1.216-1.224-4.255.612v-1.224l4.863-.613.608 1.225.608-1.837.608 1.837h3.04v1.224l3.648 1.837 1.216-1.224-1.216-.613v-1.224l-1.216-.612h-1.824l-4.256-3.674v-1.224l4.256 3.673h1.824l-1.216-1.224.608-1.837 2.432 1.837-.608-1.837-1.824-1.224-2.432-.613-1.216-1.836-1.824-.613-2.432-1.836-1.823-2.45h-1.216l-1.824-.612.608-.612h2.432l4.255 4.286h1.216l2.432 2.449v-1.225l1.824 1.225v-2.45l-.608-1.224 1.216-.612-1.824-.612-2.432-.612-.608-1.225-1.824-.612-1.216.612-2.431-.612-1.824-1.837v-1.224l-1.824 1.836h-2.432v-5.51l1.216-1.224 1.216-.613v-1.836l-.608-1.225-.608-.612h-1.824l-.608-1.225h-2.432l-1.216-1.224.608-1.837-1.823-.612h-2.432l-.608 3.673-7.296-3.673-.608.612.608 1.225-.608 1.224v1.837l-1.216 1.837v1.224l-1.216 1.225v.612h-1.215l-.608 2.449-1.824-.612-.608.612-.608 1.224v1.837l-.608.612v1.837l-1.216 1.225h-2.432l-1.216-1.225h-1.216l-.608.612v2.45l-1.216 1.836.608.612-1.823 1.837.608.612-.608 2.45-2.432 3.673-.608 1.836v1.225h1.216v.612l-1.216 1.225.608.612-2.432 1.837-.608-.613-2.432 1.837-1.216-.612-1.216.612.608 1.225-.608 1.224h-2.431l-1.216 1.225-2.432-1.225-.608 1.225-1.824 1.836-1.824-.612-.608-.612h-1.824l-.608-1.225h-.608v-1.224h-.608v-1.225h-.607l-4.256 5.51-4.256 2.45v1.836l-1.216 1.225v1.224l-3.04 1.225-.607 1.837L546 228l26.75-4.286v.613l76.602-14.082zm.608-25.714v1.224l-.608.612.608 1.225-1.216 1.837-.608 1.836v2.45l-.608 2.448.608 2.45.608.611.608-1.836v-3.674l.608-1.836 1.824.612v-3.674l1.216-2.449-.608-1.224v-1.837l-2.432 1.225z" stroke="#313E99" fill="#06BEE1" stroke-linecap="round" stroke-linejoin="round"/><path d="M652 63.087L674.154 57l.615.609.616 1.217-1.231 2.435L676 63.696l-.615.608v1.218l-1.847 3.043-.615.609h-1.23l-.616 1.217.615 1.826v4.261l-.615.609v2.435l-.615 1.217v1.826l-.616.609.616 3.652.615.609-.615 2.435.615 1.217v1.826l-.615.609v1.826l2.461 1.826L662.462 99l-.616-.609-2.461-10.956v-1.218L658.154 85l-1.23 1.217v-3.652l-.616-.608v-.61l-.616-.608-.615-1.826h-.615V75.87l.615-1.218-1.23-1.826-.616-2.435-.616-1.217V66.13l-.615-.608v-2.435zM139.397 142L129 225.72s18.682 2.592 28.023 3.585c13.491 1.434 40.473 3.695 40.473 3.695L203 165.66l-26.298-2.427 1.835-16.38-39.14-4.853zM279.248 246l42.057.609v32.87h1.828l3.657 3.651 1.829-.608h1.22l.609-1.218 2.438 2.435v1.826h3.047l3.657 1.218 1.829-.61 1.829 1.827 1.828-1.217h3.657v1.826l1.829.608 1.219 2.435 3.657-3.043.61 1.826h1.219l1.828 1.217 2.438-1.217 1.22 3.043 2.437-4.26 3.048 1.825 1.829-.608 1.219 1.217 3.657 1.218h1.219l.61-1.827 3.047-.608h1.22l3.656-1.218 2.438.61 2.438-1.218 3.658 1.217 1.828 1.826 1.829 1.218 3.657.608 2.438 1.218.61-.609h3.047l.61.609v9.13h.61l.609 17.652 1.828 1.826 1.829 2.435v2.435l1.219 1.217V330l1.219 1.217v1.826l1.219 1.218.61.609v1.826l.609.608-.61.609v3.652l-.609 1.826-1.22 2.435v1.826l-.609 1.218 1.22 2.434-.61 2.435-1.22 1.218-1.218 2.434-.61 1.218 1.22 1.826h-2.439l-5.485 3.043h-2.439l-3.047.609 1.219-1.826.61-1.826-1.22-.609-1.219.609-1.219 1.217-2.438-.609.61 2.435 1.219 1.826 1.219 1.218-.61 1.217-2.438 2.435-1.219-.609.61 3.044-3.658 3.043-3.657 2.435-4.266.609-.61 1.217h-3.047v-1.217l-1.829 1.217-1.22-1.217-1.218-1.218.61 3.044-1.83-.609-1.218-1.217-.61.608 1.22 2.435 1.218.609-1.219 1.217 2.438-.608v1.217L372.505 386l-2.438-3.043-.61 1.826v3.043l-.61 1.217-.609-2.434-3.657 2.434-.61 1.218 1.22 1.217 1.828-1.217-2.438 3.652-4.876-.609-.61 1.218 1.829.608 2.438 1.827-2.438 6.086-1.22-1.217-1.828 1.217-2.438-2.434.61 2.434-.61.61.61.608 3.047.609 1.22-.61-.61 4.262-.61.608v3.653h1.22l.609 3.652-.61 1.217 1.829 3.044 1.219 3.043 1.219.609-.61 2.435-1.219 1.217-2.438-.609-2.438-2.434h-8.533l-3.048-2.435-3.657-.609-2.438-2.435h-4.267v-1.826l-1.219-.609-1.219-4.87-1.828-2.434-1.22-1.217v-3.044l-1.218-1.826.61-1.217v-1.826l-.61-1.826-2.439-1.218-3.047-2.435-.61-1.826-2.438-3.652-1.828-1.217-1.22-1.826-1.218-4.261-1.829-2.435-.61-1.826-1.828-2.435v-3.043l-1.829-1.218v-1.217l-4.266-2.435v-1.217l-2.438-.609v-1.826h-1.22l-1.828-3.044h-4.267l-3.657-.608h-3.047l-2.439-1.218-1.219 1.826-4.266.61-2.438 3.651-.61 3.044-1.219 1.826-3.048 3.043v1.218l-3.657-1.218-1.828-1.826h-2.438l-1.829-2.434-3.048-.61-3.657-3.651-1.828-.609-1.829-1.826-.61-2.435-1.218-2.435-.61-1.826.61-1.826-2.439-4.26v-1.827l-1.828-3.043-3.048-2.435-2.438-.609-3.047-3.652v-1.217l-2.439-1.826-2.438-2.435-1.828-1.218-1.829-1.217-1.828-1.826v-2.435l-1.22-.609-1.218-.608-1.829-1.826v-1.826l51.81 2.434L279.248 246zM457 267l83.642-9.829v-4.3l.61-.614 2.443.614.61-3.685 3.663-3.072h3.053l4.274-4.914h2.442l.61-3.071h1.221l.61-1.843 1.833-.615.61 1.229h1.221l1.221-3.071 3.053-.615 1.22.615 1.832-4.3 1.221-1.229H573V224l-26.863 4.3-1.221 1.229-56.169 5.528h-3.663l.61 1.843v1.229l-18.926 1.842-.61.615-1.221-1.229v1.229l.61 2.457h-1.22l.61 1.843h-1.221l1.22 1.843-1.22.614-.61 1.843 1.22.614.61.614h-1.83v1.229l.61.614-3.053 1.843.61 2.457v1.229h-1.22l-.61 2.457-.611 1.843 1.22 2.457h-1.83zM297.326 135.586c-9.109-.156-27.326-1.075-27.326-1.075l.604-33.351h.604L271.81 86s33.637.606 50.717.606c13.512 0 41.057-.606 41.057-.606l-.604 1.82-1.207 1.818-1.812 1.213 1.812 3.638 2.415.607 1.207 1.819.604 29.713h-1.811v1.212l1.207 1.213-.604 1.82 1.208 1.212-.604 4.851-1.207 1.82L366 143h-1.208l-1.207-1.82v-1.212h-1.811l-.604-.606-1.812-.607h-1.81l-1.812-1.819-3.019.607h-4.226l-1.208 1.212h-1.811l-4.83-3.032s-28.878.111-43.316-.137z" stroke="#313E99" fill="#FFF" stroke-linecap="round" stroke-linejoin="round"/><path stroke="#313E99" fill="#06BEE1" stroke-linecap="round" stroke-linejoin="round" d="M562.263 252.547l-4.237 1.848-1.21 1.85-1.816 3.697 3.026 1.232.606.617 1.815 1.232 2.421-.616v1.849l1.816 1.232.605 1.85.606.615 1.816 1.233.605 1.849h1.21l.606 1.232 3.026 1.233 1.816 3.081h1.815l1.816 1.85v1.232l1.816.616v1.233l1.21.616v1.232h1.816l3.027 1.85v1.232l1.21 1.849.605 2.465.606 1.232h1.816l.605 1.233 1.816 2.465v2.465l1.21 1.849.605-.616H597.368l.606-1.85v-1.848l1.21 1.233-1.816-3.082-1.21-2.465.605-.616 1.816 3.081 1.21.616-.605-2.465 1.21 1.233.606 1.849 1.21-1.233-.605-1.849-1.21-.616-1.21-.616 2.42-.616 1.816.616 1.21-1.233v-1.232h1.816l1.816-1.233 1.21-1.232-1.21-1.233v-1.233h1.21l.606 1.233 1.21-1.233 1.211-1.232v-2.465l1.21-.616 1.211.616 1.21-1.849-.605-1.233 2.421-1.232-1.815-.616v-1.85l1.21-1.848v3.081l1.816-5.546 1.816-3.082 3.026-3.081-17.553-12.942-15.736 2.465-.606-2.465-2.42-1.849-1.211 1.233-.606-1.849-18.157 2.465-2.422 1.233-1.815.616-.606 1.233zM684 106.714l2.545 8V117l1.273-.571 1.273-1.143H691V113l-.636-1.143.636-1.143h-1.273l.637-1.143-.637-1.142.637-.572v-1.143h-.637l-.636-1.714z"/><path stroke="#313E99" fill="#FFF" stroke-linecap="round" stroke-linejoin="round" d="M573 131.357l3.636 22.464 3.03 15.179 61.819-12.143.606-1.821 1.212-1.215h3.03l.606-1.214 1.819-1.214v-1.214l4.242-3.643v-1.215l-3.636-2.428h-1.212l-.607-2.429-1.818.607-.606-2.428.606-1.822.606-1.214-1.212-1.214v-1.214l1.212-1.215 1.212-2.428v-1.215l1.819-1.821-1.212-1.214h-3.637l-1.212-1.822v-3.035l-1.818-1.215-1.212.607-.606-1.214-1.819-.607-55.151 11.536-.606-4.25zM101.5 137l4.889-30.576 1.222-2.446v-1.834l1.222-1.223-1.222-1.223-2.444-.612.61-3.669 3.056-3.669 2.445-2.446.61-1.834 2.445-3.67.611-1.222 3.056-3.67-.611-3.057-3.667-3.058v-1.834l-25.666-4.28-1.834 1.222-5.5-1.223-1.833.612-5.5.611-3.056.612-3.055-.612-4.278.612-.611-.612-2.445.612-.61-1.835-3.056-1.223-3.667-.611-6.111 1.834-1.833-1.223-4.278-1.223v-1.223l.611-4.28-1.222-3.058-1.834-1.834-1.833.611h-1.833l-.611-1.834-2.445.611L30 52.612l-.611 1.223L27.556 52v3.058l-1.223 1.223v2.446l.611 1.223-1.222 1.223.611 2.446h-1.222l-3.667 10.395-.61 1.835.61 1.223-.61 1.223-.612 1.223v1.223L19 81.964l-1.222 5.504-1.222 3.057.61 1.223-1.222.612-1.833 3.057h1.222v1.835l-1.222-.612-1.222 1.835-.611-1.223-1.834 4.28-1.833 3.67.611 2.445-.61 3.67L8 114.986v2.446l1.222 2.446L63 130.885zM280 236.606s37.23 1.015 55.845.917c19.44-.104 58.323-1.523 58.323-1.523l.604 9.096 3.02 17.585L399 293l-3.624-.606-1.813-1.213-1.812-1.82-1.812-.606-1.812-.606-2.416 1.213-2.417-.607-3.624 1.213h-1.208l-3.02.606-.604 1.82h-1.209l-1.812-.607-1.812-.606-1.208-1.213-1.812.606-3.02-1.819-2.417 4.245-1.208-3.032-2.416 1.213-1.812-1.213h-1.208l-.605-1.82-3.624 3.033-1.208-2.426-1.812-.606v-1.82h-3.625l-1.812 1.214-1.812-1.82-1.812.607-3.624-1.213h-3.02v-1.82l-2.417-2.425-.604 1.213h-1.208l-1.812.606-1.813-1.819-1.812-1.819h-1.812V246.31L280 245.702v-9.096z"/><path stroke="#313E99" fill="#FFF" stroke-linecap="round" stroke-linejoin="round" d="M519 144.283l5.495 43.472 1.22-1.208 1.832 1.208 1.221-1.208 1.221 1.208h1.222l1.831 3.622 1.832.604 3.052-.604 1.832 1.812 1.22.603 1.222-1.81h2.442l1.221 1.207.61-.604h1.832l.61-1.208 2.443-1.811 1.22 3.019 2.443.604 1.221 1.811 1.221-.604 2.442-1.207v-1.812l1.221-.603-.61-3.02v-1.207l.61-1.811 1.221-1.208 1.221.604v1.208h.61l1.222-1.208v-1.207l-.61-.604.61-1.208.61-2.415 1.222-.604v-1.207l1.831-1.208 1.221 1.208 2.442-2.415v-1.812l3.053-1.81v-2.416l.61-3.623v-3.019l.611-2.415-.61-1.811.61-1.811-1.832-1.208L577 153.34 573.337 131l-9.769 6.038-4.273 4.83-1.832.604h-2.442l-2.442 1.207-1.832.604-.61 1.208-3.663-.604h-1.221l-1.221.604-1.832-.604 3.663-1.812h-1.22l-1.222.604-3.053-1.207-3.052-.604-1.221-.604zM319.112 88C303.315 88 272 87.386 272 87.386L273.224 37s23.045.787 34.568.874c15.806.118 47.419-.26 47.419-.26l1.835 4.916-.612 1.843v6.76l3.671 8.602.612 3.072v4.916l.612 3.072v1.23l.612 4.3.612 2.458 1.835 2.458.612 6.145S334.315 88 319.112 88z"/><path stroke="#313E99" fill="#06BEE1" stroke-linecap="round" stroke-linejoin="round" d="M573.188 224.07L649.712 210l2.43 2.447 2.429 3.67-3.037-2.446.607 1.835-3.036-1.835-1.215.611 3.037 1.836-1.215.611-2.43-.611 1.823 1.835-3.644-1.835v1.223l1.822 1.224-1.822 1.223h-2.43l-.607-2.447v-2.447h-1.215v3.67l1.215 1.836v1.835l3.037-.611 1.214-1.224 1.215 1.224 1.822-.612 1.215-1.836 1.214 1.836-.607 1.835 1.215.612-1.215 1.223h1.822l.607-2.447-.607-1.835h1.822l.607-1.224 1.215 2.448v3.67l-1.215-.612-.607.612-1.215 3.67-1.214 1.224h-2.43l-1.214-1.223-1.215 1.223-.607-1.223 1.214-1.224-3.644.612 1.215 1.835h-3.644l-2.43-.612 1.215 1.836 3.644.612h3.644v1.223l-2.429 1.224 1.822.611-1.822 2.447h-1.822l-3.644-1.835 2.43 3.059 2.429.612h1.214l1.215-1.836 1.215 1.224 3.036-1.835-2.429 4.894-1.822-1.224-1.822 1.224-3.037 1.835-1.822-1.223v1.835l-1.822 2.447-.607-2.447h-1.215l.608 1.223-.608.612 1.215 1.224-2.43 1.835-1.821 3.059-1.215 3.059v1.835l-1.215-2.447v5.506h-4.858l-1.215 1.223-1.822.612-17.612-12.847L590.8 251.6l-.607-2.447-2.43-1.835-1.214 1.223-.608-1.835-18.22 2.447-4.25 1.835-.608 1.224h-.607l-4.252 1.835L541 256.494v-4.282l.607-.612 2.43.612.607-3.67 3.644-3.06h3.037l4.25-4.894h2.43l.608-3.059h1.214l.608-1.835 1.822-.612.607 1.224h1.215l1.214-3.059 3.037-.612 1.215.612 1.821-4.282 1.215-1.224h.607z"/><path d="M582 125.516l.608 4.29 55.345-11.645 1.825.613.608 1.226 1.216-.613 1.825 1.226v3.064l1.216 1.84h3.65l1.216 1.225 10.947 3.677v-.613l-.608-1.838-1.216-1.226v-1.839h.608l.608 1.226.608 1.226.608.613.609 4.903 1.824-1.839.608-1.226-1.216-1.838 2.433-3.065-1.217-1.226-1.824-12.258h-.608l.608-12.258-.608-.613-2.433-11.032V86.29l-1.217-1.225-.608.612-.608.613v-3.677l-.608-.613v-.613l-.608-.613-.609-1.839h-.608v-3.064l.608-1.226-1.216-1.839-.608-2.451-.608-1.226v-3.064l-.608-.613V63l-17.03 4.29h-1.824l-3.041 2.452-1.217 1.839-3.649 4.903-.608 1.226v1.838l-1.824 1.84-4.258 4.29.608.612h3.041l.609.613-.609 1.226-1.216 1.839h-.608l1.216 1.226v1.225l1.217.613-.609.613v1.226l-1.216.613h-1.216l-2.433 3.064-.608 1.226-2.433 1.226-.608.613h-3.649l-1.217.613-2.433 1.226h-1.216l-1.216-1.226-5.474.613-1.216.613h-2.433l-7.298 3.064.608 1.226v1.839h2.433v1.225l-.609 1.226 1.217 1.226v1.226l-1.217 1.839-1.216 2.451-2.433 1.839-1.216 1.839-3.041 3.064zm77.848 11.032l-.608.613-.608 1.839 1.216-.613.608-1.226-.608-.613zm1.216-.613v.613l.609.613.608-.613.608-.613.608-.612 1.216.612.609-.612 4.865-2.452h1.825v-1.226h1.216l2.433-1.839 3.04-.612.609-1.226-.608-.613-.608.613-.609-.613 2.433-3.065-.608-.613-2.433 3.065-.608.613-3.04.613h-1.217l-.608.613h-.609v.613l-2.432.612-.609.613-1.216-.613v1.226l-.608-.613-.608.613v1.226l-1.217.613-.608.613h-1.216l-.608.613-.609 1.838zm18.854-9.193v.613h.608l1.825-1.226.608-1.226h1.216l1.825-1.838-2.433 1.225h-1.216l-1.216.613-.609.613-.608 1.226zM196.887 233s21.988 1.897 32.982 2.541c16.71.98 50.131 2.329 50.131 2.329v8.521h-1.213l-2.427 77.305-51.567-2.435v1.826l1.82 1.826-24.873-1.826-.607 7.913L189 329.783 196.887 233z" stroke="#313E99" fill="#FFF" stroke-linecap="round" stroke-linejoin="round"/><path stroke="#313E99" fill="#06BEE1" stroke-linecap="round" stroke-linejoin="round" d="M649.345 127l11.172 3.672.62.612-.62 2.447v1.836l-1.241.612-.62 1.224-.622 1.836.621 1.224 2.483.612h1.241l.621 3.06-.62 3.059v3.672l-.621.612.62 1.223-.62 2.448-.621.612h-1.241l1.24 1.836h-1.24v1.224l.62.612h-1.241l-.62 1.224-1.242.612 1.241.612-1.241 2.447v.612l-.62.612v1.224L655.551 168v-4.284h-2.483l-1.241.612-.621-1.224h-1.862l-.62-1.223h-1.242l-1.862-1.224v-1.836l-.621-.612.62-1.836v-1.224h.621l1.242-1.836 1.241-1.223v-1.224l4.345-3.672v-1.224l-3.724-2.448h-1.242l-.62-2.447-1.862.612-.621-2.448.62-1.836.621-1.224-1.241-1.224v-1.224l1.241-1.224 1.242-2.447v-1.224z"/><path stroke="#313E99" fill="#FFF" stroke-linecap="round" stroke-linejoin="round" d="M672.026 97l12.71-3 1.817-.6 1.21-2.4h.605l.606-1.2 1.21-.6h1.21v-1.8l.606-1.2-2.421-1.2v-1.8l-2.421-1.2v-1.8l-1.21-3-8.474-25.2-.606 1.2-1.815-.6-.606.6v1.2l-.605 1.8V58l.605 1.2-1.21 2.4 1.816 2.4-.606.6v1.2l-1.815 3-.606.6h-1.21l-.605 1.2.605 1.8v4.2l-.605.6v2.4l-.606 1.2v1.8l-.605.6.605 3.6.606.6-.606 2.4.606 1.2v1.8l-.606.6v1.8zM102.038 136.413c12.654 1.92 37.962 5.148 37.962 5.148l-12.199 96.75-.61 1.217-1.22 2.434h-1.83l-.61-2.434-1.219.609-1.83-1.217-2.44 1.217-.61 2.434.61 1.825-.61 1.217.61 3.043-.61 1.825.61 3.043v2.434l-1.22.608V259L54 179.288 63.149 130s26.13 4.478 38.89 6.413zM294.164 169.151v17.685s24.26.277 36.389.11c17.482-.24 52.447-1.33 52.447-1.33l-1.217-1.219v-1.22l-1.217-1.83-1.825-1.219-1.217-3.049-1.217-.61v-2.44l-1.217-1.219v-7.318l-1.217-1.22 1.217-.61-1.825-1.22v-1.829l-1.826-1.83.609-3.658-1.217-1.22v-1.83l-1.217-.61-.609-1.829-1.217-.61v-2.439l-.608-3.05h-2.434l-1.217-1.829v-1.22h-1.825l-.609-.61-1.825-.61h-1.826l-1.825-1.829-3.042.61h-4.26l-1.216 1.22h-1.826l-4.868-3.05s-29.823.1-44.735-.156c-8.818-.151-26.455-1.063-26.455-1.063L268 169.151h26.164zM225.91 99.836c14.28.984 45.27 1.74 45.27 1.74L273 36.727s-22.354-.772-46.079-2.458c-14.188-1.008-28.866-2.732-39.547-3.731C168.392 28.763 130.427 24 130.427 24L128 39.152l2.427 3.636 1.213 3.03-.607 1.212.607 1.818h-.607l2.427 3.03 1.82 1.213 4.247 5.454-.606 1.213 2.426 2.424h1.214V64h3.64l-2.427 7.273-1.213.606.606 4.848-1.82.606v3.637l2.427 2.424 4.854-3.636 1.213 2.424 1.213 4.848 2.427 4.849-.607 2.424 1.82 1.818h1.82l1.214 4.849 2.427 2.424 1.213-1.818 4.247 1.212 1.213-1.818 5.46.606.607.606h3.64l1.214-2.424h1.213l3.034 4.242.607-.606.606-7.879s27.658 3.285 42.7 4.321z"/><path d="M398.811 175.399c-7.27.413-21.811.632-21.811.632v1.213l1.213.606 1.213 3.032 1.82 1.212 1.212 1.82v1.212l1.213 1.213 3.032 1.818 1.213-.606 1.213.606.606 1.82-1.212.606-.607 1.212-1.213 1.82 1.213 1.212 1.82 1.212v1.213l1.212 1.819h1.82l1.213.606 1.213 36.984.606 8.489 61.252-4.244 1.819 1.818v1.213l-3.032 4.244-.607.606V250l8.49-1.213.607-1.818 1.213-.607-1.213-1.819h1.213l-.607-1.819h1.213l-.606-2.425v-1.212l1.213 1.212.606-.606.607-1.819v-.606l1.82 1.212.606-1.819.606-1.818-.606-1.213.606-2.425h-1.213l-1.213-1.213v1.213l-1.82-.607v-1.212l-1.819-2.425v-.607l.607-1.819v-.606l-1.213-1.212v-2.426l-2.426-1.212-1.213-1.82h-.606l-2.426-1.212-1.213-.606-4.851-3.638v-2.425l1.819-4.85v-1.82l.606-1.212-1.819-1.819h-2.426l-1.82 1.82-1.212-1.214-1.213-3.031v-1.819l-1.213-1.819-3.639-1.819-.606-1.212-3.639-3.032-.606-1.212-.607-1.213-.606-1.213-1.213-3.637.606-2.426.607-1.212-4.245-3.638s-21.038 1.801-31.557 2.399zM487.488 263l.612 1.217 1.225.61v52.347L493 341.522l-.613 1.826-2.45-1.218-.612.61h-1.837l-2.45-1.218-2.45 1.826-1.838 1.217-1.837-1.217v1.217l-.613 1.826-3.063.609v-1.217l-1.225-3.044-1.837-1.826-.613-1.826.613-4.26v-1.218l-27.563 2.434v-2.434l-.612-2.435h1.225l.612-1.217-.612-2.435 1.225-1.826 1.225-4.261 3.675-3.044-.613-2.434h.613l1.225-3.653-2.45-1.826v-1.826l-1.225-1.826 1.225-.609-.613-.608-.612-1.218 1.225-1.826-1.837-1.217v-1.826l1.224-1.218-1.224-1.826v-3.043l-1.226-1.218 1.226-1.217-1.226-1.217 1.838-2.435-.612-3.044 2.45-1.217.612-.609-1.225-1.217 2.45-2.435v-1.217l1.838-1.218v-5.478h1.837v-1.826l1.837-1.217v-1.827zM433.596 123.362L367.186 127l-.61-29.706-1.218-1.819-2.437-.606-1.828-3.638 1.828-1.212 1.218-1.819.61-1.819-.61-6.062-1.828-2.425-.609-2.425-.61-4.244v-1.212l-.609-3.032v-4.85l-.609-3.637-3.655-7.882v-6.668l.609-1.819-1.828-4.85 24.98-1.212V30l2.437.606 1.219 1.819 1.218 3.637v2.425l1.828 1.82h3.656l.609.605 4.874.607.61 1.819 1.827-.607h2.437l.61-1.212 1.827-.606h3.656l1.219.606h2.437v1.212h-1.219l.61.606h2.437l.609 2.425 1.218.607.61.606.609-2.425h2.437l.61 1.819H421.41l.609 1.819h1.218l.61 1.212 3.046-1.212 1.219-.607 3.655-2.425 1.828 2.425 2.437-.606 5.484-.606 1.827 1.819 1.219-.607H447l-4.265 3.031-6.702 2.425-4.265 3.638-4.874 5.456-4.874 4.85-3.046 1.819-.61 1.819-.609 1.212h-1.219l.61 6.063v3.637l-1.828 1.213-3.046 1.819-.61 1.818-1.218 1.819v1.819l1.828.606 1.218 1.819-.61 2.425-.608 1.819.609 1.212-.61.606.61 1.213-.61 3.637 3.047 2.425h2.437l1.828 1.819 2.437.606 2.437 2.425 1.828 2.425 1.828 1.213h2.437l2.437 2.425.609 1.819z" stroke="#313E99" fill="#FFF" stroke-linecap="round" stroke-linejoin="round"/><path d="M493.305 147l26.237-3.671v1.224l17.085-3.06v-1.835l2.44-3.06v-4.282l1.221-2.448 1.83-.611-.61-2.448 1.831-1.223-.61-1.224 1.22-.612 1.83 1.836 1.221-7.343-2.44-3.059-1.831-6.118-1.83-4.895-1.221-2.447h-2.44l-2.441 1.835h-1.22l-1.831 4.895h-1.22l-.61 1.835h-1.831l-3.051-.611.61-4.895 2.44-1.224 1.221-1.223v-2.448l1.22-1.224 1.22-1.223-.61-6.73-1.22-2.448-1.83-1.224.61-1.835 1.83.612-1.22-1.836h-1.22v-2.447h-2.44l-1.831-.612-1.83-.612h-3.662l-.61-1.835-1.83-.612h-1.831l-3.661-1.224-1.83 1.224-1.831 1.835v1.836l.61.612 2.44.612-.61.611-3.66 1.224-1.831 1.224.61 3.059v3.671l-1.22 2.447-1.22-.611-.61-1.224V87.65l-1.831 3.671-.61 1.224h-1.22l-1.831 1.224.61 1.835-2.44 1.224 1.22 1.835v4.283l-1.22 2.448-1.831 2.447 1.83 2.447v1.836l-1.22 2.447 1.22 3.06 1.83 2.447.61.612h1.221l-.61 1.835 1.22 3.06.61 1.835v7.954l-1.83 4.283-1.22 3.06-.61 3.058-1.83 1.224zM476.22 92.546l3.661-8.566 1.83-3.059.611-3.671 1.22 1.836v1.835l1.83-2.447 2.442-1.224.61 2.447-1.83 1.836.61.612 3.05-3.671 1.22-1.836 2.441-1.224 1.83.612 3.052-1.223 1.22-1.836 4.271-.612 3.661 1.224 1.83 1.835 1.221-3.67h3.05l4.882.611 1.83-.612h4.271V70.52l-1.22-1.224-1.22 1.836h-2.44l-1.831-1.224-1.22-.612-1.22-.612v-1.223l.61-1.836-.61-2.447-1.831 1.223-2.44 1.224h-1.221l-.61-.612-1.83.612-3.052-.612V60.73l-2.44.612-3.661 2.447-4.272-.611-3.66 1.223-3.662 3.06-1.22 1.223-1.83-.612-1.22 1.224-1.831-1.835-3.051 1.835-1.83-.612-3.662-4.895-3.66-.611-2.441.611-3.661 2.448-.61-4.283 2.44-3.06 3.051-3.058-.61-.612 3.66-1.224h-1.83l-3.66.612-3.662 2.447-1.22 1.836-1.83.612-1.22 1.835-1.221 1.836h-1.83l-2.441 2.447-5.492 1.224-1.22 1.835-1.83 1.224L439 71.743l2.44.612 1.831 2.448 14.644 3.059 2.44 1.224 3.052-.612 3.66.612 1.831.611v1.836h1.83l1.831 1.224 1.22 3.059-1.22 2.447h.61l1.831-.612h.61l-1.22 3.671 1.83 1.224zM662 110.951h.608l7.898-1.829.608.61 12.76-3.659v.61l4.86-1.83.608 1.83H690.557v1.83l1.823.609.607-1.83h.608v1.22l-.608 1.22.608 2.439.608.61.607-1.22.608-.61.607.61.608-1.22v-1.219h.608l1.215-1.22v-1.22h1.215l.607 1.22v1.83h1.216l.607-1.22.608-.61 1.823-.61 3.645-1.829v-1.829l-.607-.61-.608-1.22-1.215-1.828h-.608l.608 1.22s1.403 1.33 1.8 1.995c.21.35.023 1.053.023 1.053l-1.823.61-.608.61-.607.61h-3.646l-.608-1.22v-1.83l-1.215.61-1.822-.61.607-1.829-2.43-2.439-1.215.61-.608.61-1.215-.61-.608-.61v-1.22l.608-.61v-.609l1.215-.61-.608-.61v-1.219l2.43-.61.608-1.22-1.215.61-1.215-.61-.608-.609v-1.22h-1.215L692.38 89h-1.215l-1.216.61-.607 1.22h-.608l-1.215 2.438-1.823.61-12.76 3.049-10.328 1.83L662 110.95zm37.67 1.83V114l1.216-1.22 2.43-.61-1.822-1.219-.608 1.22-1.215.61zm7.9-.61l.607.61h1.215l.608-.61-.608-1.22-.607 1.22h-1.215zm-15.19-1.83l-.608 1.22.608 1.83.607-.61-.607-2.44z" stroke="#313E99" fill="#FFF" stroke-linecap="round" stroke-linejoin="round"/><path stroke="#313E99" fill="#06BEE1" stroke-linecap="round" stroke-linejoin="round" d="M594 166.872l1.806 8.639 2.408-2.468 1.203-1.852.602-1.234h1.806l1.806-1.85v-1.852l1.204 1.851h1.806l1.204-.617.602-1.85h1.805l.602-1.235.602-.617 2.408 1.234 2.408-.617-.602 1.234h.602l.602 1.234 1.204.617v1.234h2.407l1.806.617-.602 1.851 1.204 1.235h2.408l.602 1.234h1.806l.602-1.234 1.806 1.85-.602 1.235v1.234l-.602 1.234v1.234l-1.204 1.85v1.852h1.204v-1.851l1.204.617.601-.617 1.204 1.85 1.204.618-.602-1.851 1.204 1.234.602 1.234 1.806-.617 1.204.617.602.617 1.204-.617L640.35 186l.601-1.234-1.805-1.851h-.602l-1.806-1.234-1.204-.617-1.204-1.851v-2.468l1.204 2.468 1.204 1.234 2.408 1.234v-.617l-2.408-2.468v-1.851l-1.204-1.234v-3.085l-1.204-.617 1.204-.618-1.806-.617 1.806-1.85-2.408-1.852 1.204-.617.602.617v-1.234l1.204-1.234-.602-.617 1.204-.617.602 1.234v-2.468l.602 1.234 1.204-.617-.602-1.234.602-1.234 1.204-1.234.601 1.851 1.204-1.234v1.234l-1.204 1.234 1.806.617-.602.617-2.407.617-1.204 1.851v2.468l1.204-.617h.602l-.602 2.468-.602.617h-1.204v1.235l2.408-1.235.601 1.235-.601 1.234h1.203l-.602 1.234-.601.617 1.805 1.234 1.204-.617.602 1.234-3.611.617.601 1.234-.601 1.234 2.407.617 1.204 1.85v-1.85h1.204l1.204-1.851v3.085h.602l-.602 1.234h1.204l.602 1.234-.602 1.851 3.01-.617 3.01-1.234v-1.851l1.203-.617-.602-1.851 1.806-.617v-1.234l-1.204-1.851-7.223 1.85L642.155 157z"/><path stroke="#313E99" fill="#FFF" stroke-linecap="round" stroke-linejoin="round" d="M690.235 11.425L684.73 25.37l.612 4.244-1.223 1.82v1.212l-.612 1.819 1.223.606-.611.606v2.425h1.223l-1.223 2.426v1.818l-1.836 2.426-.611 1.819 1.223 1.212-.612 1.213-1.223-.607v3.032l-1.835-1.819L678 51.441l9.788 28.496v1.819l2.447 1.213v1.818L692.682 86l.612-3.031-.612-2.426 1.836-1.212.611-.607-.611-2.425 1.835-.606-1.224-2.425 2.447-3.032h1.224v1.82l.612-1.213 1.223 1.212.612-1.212-3.059-3.638 3.06 2.425v-3.032l1.834 3.032 1.224-4.244 1.835 1.212 1.224-1.212.611-2.425-.611-4.244.611-1.213 1.224-1.819.612 1.213 1.223 1.819h1.836l.611-2.426 1.836.607 1.223 1.212 1.224-3.638-1.224-1.212 2.447 1.212 1.836-1.212 1.835-3.638h1.223l2.447-1.213 3.06-2.425.611-2.425-1.835.606V41.74l-2.447-1.819-1.224.607-2.447-1.213-.612-1.213-.611-1.819.611-1.818-1.223-.607h-3.06l-1.223-.606-.611-3.638-6.118-17.583-3.059-1.212L704.306 9l-2.447.606-1.224 1.82-2.447 1.212-2.447 1.212-1.835-.606-.612-2.425z"/><path stroke="#313E99" fill="#06BEE1" stroke-linecap="round" stroke-linejoin="round" d="M407 303.43l40.828-2.43 1.828 1.215-1.219 1.822.61 1.215.61.608-1.22.607 1.22 1.823v1.822l2.437 1.823-1.219 3.644h-.61l.61 2.43-3.656 3.038-1.219 4.252-1.219 1.822.61 2.43-.61 1.215h-1.219l.61 2.43v2.43l27.422-2.43v1.215l-.61 4.253.61 1.822 1.828 1.822 1.219 3.645v.608h-1.829l-3.046-.608-1.829-1.822H465.5l-3.047 3.645.61 1.822 2.437.608 2.438.607 3.656-2.43h2.437l-.61 1.215-1.827.608.61 1.215h1.218l1.219 1.215 1.218-1.215 1.22-2.43 1.218 2.43.61 1.215h-1.829l-1.219 2.43-1.828-.608.61 1.822-1.22.608 4.267 3.037 4.875 1.215 2.437 3.038-1.828 1.822-1.828-1.822-.61.607-1.828-1.822-2.437-.608-.61-1.215-1.828.608-1.828-2.43-3.656-1.215h-1.828l.61 1.215 1.827 1.215v3.645L467.937 366l-1.218-1.215v-1.215l-2.438-1.215-1.828.608-1.219.607-.609 2.43-4.266-.607h-1.828l-3.047-.608v-1.215l2.438.608-.61-1.215-1.828-1.823.61-1.822-.61-.608-1.218 1.823-2.438-.608-.61-.607-.609-1.215-.609.607-.61-1.822-3.046.607v-1.822h-1.828l-2.438 1.215-1.219.607 1.829 1.823-2.438 1.822h-6.094l-5.484-3.037-3.656-.608-2.438.608-4.875 1.215h-1.219l-.609-1.215 1.828-.608v-4.252l.61-2.43-1.22-2.43.61-1.215v-1.822l1.219-2.43.61-1.823v-3.644l.609-.608-.61-.607v-1.823l-1.828-1.822v-1.823l-1.219-1.215v-.607l-1.218-1.215v-2.43l-1.829-2.43-1.828-1.822z"/><path stroke="#313E99" fill="#FFF" stroke-linecap="round" stroke-linejoin="round" d="M467 240l18.828-1.849v-1.232l-.607-1.85h3.644l55.877-5.546 1.215-1.232 6.681-3.698.607-1.849 3.037-1.232v-1.233l1.215-1.232v-1.85l4.251-2.464 4.252-5.547v-.616h-1.822l-3.037-1.85-2.43-3.08-.607-1.233-2.43-2.465.608-2.465-.607-1.85-1.215-1.848-2.43-.616-1.214-3.082-2.43 1.85-.607 1.232h-1.822l-.607.616-1.215-1.232h-2.43l-1.214 1.848-1.215-.616-1.822-1.849-3.037.617-1.822-.617-.607-1.232-1.215-2.465h-1.215L528.344 187l-1.215 1.233-1.822-1.233-1.822 1.849.607 1.232v1.233l1.215.616v1.85h-1.822l-3.037 1.848-1.215-.616-2.43.616.608 3.081-1.215 1.85h-1.214v2.464l-1.215.617h-1.215l-.607 2.465v2.465l-1.822 1.232-1.822-1.232-1.822-.617-.608-1.232-1.215 1.849-1.214 2.465-.608 1.849-1.214-.617-1.822-1.232-1.823.616-.607.616-1.215 2.466-1.214-1.233-3.037-1.233-1.822 1.233-.608-1.233v1.85l-.607.616-.607-1.233-1.215.616-1.822-.616v2.465h-1.822l-.608 1.233-.607 1.849 1.215 1.232v1.233l-4.86 1.848-.606 1.85 1.214 1.848.608 1.233-1.215.616h-.607l-4.252-1.849h-1.822l-1.215 1.233-1.215 1.849.608.616-.608.616h1.215l-.607 2.465.607 1.233-1.215 3.697-1.822-1.232v.616zM341.438 187.195c-15.74.217-47.216.036-47.216.036L293 238.336s33.05.833 49.576.633c17.475-.21 52.424-1.864 52.424-1.864l-1.222-37.56-1.221-.615h-1.832l-1.222-1.847v-1.231l-1.832-1.232-1.222-1.231 1.222-1.848.61-1.231 1.222-.616-.61-1.847-1.222-.616-1.222.616-3.054-1.847s-27.972 1.002-41.957 1.195zM377.23 176.384s17.525-.387 26.288-.89c9.175-.525 27.525-2.192 27.525-2.192l4.28 3.698.612-.616-.611-2.465 3.669-2.466v-2.465l2.446-2.465-.612-1.849-2.446-2.465 1.223-3.697 4.892-1.233 3.67-2.465v-2.465L450 150.5l-.612-4.93-3.669-1.233v-1.849l-3.057-2.465-1.223-3.081h-3.67l-1.834-3.698-.611-4.314 1.223-1.849-1.835-1.232-.611-1.849L365 127.698v1.232l1.223 1.233-.611 1.849 1.223 1.232-.612 4.93-1.223 1.85 1.835 4.313h1.223l.611 3.082v2.465l1.223.616.612 1.849 1.223.616v1.849l1.223 1.233-.612 3.697 1.835 1.849v1.849l1.834 1.232-1.223.617 1.223 1.232v7.396l1.223 1.232v1.233z"/><path stroke="#313E99" fill="#FFF" stroke-linecap="round" stroke-linejoin="round" d="M483.614 148.445l1.843 1.21h1.843l5.529-3.025 26.414-3.63v1.21l5.528 43.563-.614.605.614 1.21v1.21l1.229.605v1.815h-1.843l-3.071 1.816-1.229-.605-2.457.605.614 3.025-1.228 1.815h-1.229v2.42l-1.228.605H513.1l-.614 2.42v2.42l-1.843 1.21-1.843-1.21-1.843-.605-.614-1.21-1.229 1.815-.614 1.21-.614 1.21-.615 1.816-1.228-.605-1.843-1.21-1.843.605-.614.605-1.229 2.42-1.228-1.21-3.072-1.21-1.843 1.21-.614-1.21v1.815l-.614.605-.614-1.21-1.229.605-1.843-.605V215h-1.843l-.614-1.815.614-.605v-2.42l1.229-1.21-1.229-1.21.615-1.21 1.228-.606 1.229-2.42 1.228-1.21v-1.815l1.229-1.815v-1.21l-.614-1.815v-1.21l-1.229-1.816-1.229-1.21 1.229-.605-.614-1.815 1.228-1.21z"/><path stroke="#313E99" fill="#FFF" stroke-linecap="round" stroke-linejoin="round" d="M478.043 136l-36.521 3.615 3.043 2.41v1.808l3.652 1.205.61 4.821-1.827 1.808v2.41l-3.652 2.41-4.87 1.205-1.217 3.616 2.435 2.41.608 1.808-2.434 2.41v2.41l-3.653 2.41.61 2.41-.61.603-.608 1.205-.609 2.41 1.217 3.616 1.826 3.615 3.653 3.013.608 1.205 3.653 1.808 1.217 1.808v1.807l1.217 3.013 1.218 1.205 1.826-1.807h2.435l1.826 1.807-.609.603v2.41l-1.826 4.82v2.41l4.87 3.616 3.652 1.808h.608l1.218 1.808 2.434 1.205v2.41l1.218 1.205v.603l-.609 1.807v.603l1.826 2.41v1.205l1.826.603v-1.205l1.218 1.205.608-.603-.608-.602 1.217-1.808 1.218-1.205h1.826l4.26 1.808h.61l1.217-.603-.61-1.205-1.217-1.808.61-1.807 1.825-.603 3.044-1.205v-1.205l-1.218-1.205.609-1.808.609-1.205-.609-1.808.609-.602v-2.41l1.217-1.206-1.217-1.205.608-1.205 1.218-.603 1.217-2.41 1.218-1.205v-1.808l1.217-1.807v-1.205l-.609-1.808v-1.205l-1.217-1.808-1.217-1.205 1.217-.603-.609-1.807 1.218-1.205-4.261-39.167-1.826-1.808-.609-1.808v-1.807l-1.826-1.205-.609-1.808-.609-.603zM178.346 146L182 104.059l-3.045-4.255h-1.218l-1.218 2.431h-3.654l-.61-.608-5.48-.607-1.219 1.823-4.263-1.216-1.218 1.824-2.436-2.431-1.218-4.863h-1.827l-1.827-1.824.609-2.431-2.436-4.863-1.218-4.863-1.218-2.43-4.872 3.646-2.437-2.431v-3.647l1.828-.608-.61-4.863 1.219-.608 2.436-7.294h-3.654v-1.823h-1.219l-2.436-2.432.61-1.215L135.104 53l-1.827-1.216-2.436-3.039h.61l-.61-1.823.61-1.216-1.219-3.04-2.436-3.646 2.436-15.196L118.662 22l-6.7 41.941 1.218 2.432v1.215l-.609.608.61 3.647 3.654 3.04.609 3.039-3.046 3.647-.609 1.215-2.436 3.647-.609 1.824-2.436 2.431-3.045 3.647-.609 3.647 2.436.608 1.218 1.216-1.218 1.216v1.823l-1.218 2.432L101 135.667l38.368 5.47zM328.607 502l1.214-.608.608-1.823 3.035-2.432 2.429-1.215 2.428-.608 3.036-.608 2.429-1.824 1.214-2.431-3.036-1.216-.607-2.431h-1.821v-2.431l-2.429-2.432-6.678-2.431-.608.608-3.035-1.824-1.215-1.216-1.821 1.216 1.214 2.431.607 1.216-2.428 3.04-1.822 2.43 1.215 2.432 1.214 3.04.607 2.43-.607 3.648 1.214 1.823h2.429l1.214 1.216zm-82.571-57.745l-1.822 1.823-1.214 1.216v1.216l.607.608 1.214-1.824 1.822-.608v-1.823l-.607-.608zM255.75 440l-3.036 1.824-1.214 1.823.607 1.824h1.822l1.821 1.823h1.214l2.429-.608.607-2.431 1.214-1.824-1.821-1.823-2.429.608L255.75 440zm29.75 10.333l2.429 3.04v2.43l2.428-1.215.607 1.824.607 1.823h-1.821l-3.036-.608-1.821-1.215v1.215l-1.214.608-1.822-1.823-1.214-1.824-.607-2.431 2.428.608 3.036-2.432zm13.357 8.51l1.214.608 1.822.608h2.428v-.608l1.215 1.216h4.25l-2.429 1.823h-2.428l-1.822-1.215-3.643.607h-1.214l-.607-1.215 1.214-.608v-1.216zm4.25 6.079h1.822l2.428 1.823-1.821 1.824-1.822-.608v-1.824l-1.214-.608.607-.607zm8.5 6.078l-2.428.608v.608l1.214.608 1.821-.608-.607-1.216zm1.214-3.647l1.215 1.216v1.823l.607 1.216 1.214-.608h1.822l1.214-1.216 1.214.608 1.822-1.823v-1.216l-1.822-1.216-3.036-1.823-2.428 1.215-1.214-.607-3.036-3.04-.607 1.824-.607 1.216 1.821 2.43h1.821zM557.548 254L522 258.864l11.032 34.048 2.452 5.472 1.839 2.432v2.432l1.838.608-1.838 1.824v3.04l-1.226 1.216v3.04l2.451 3.04-.613 6.08 1.84 1.824.612 1.824 1.226 1.824.613 2.432 36.161-2.432 3.678-.608v1.216L583.29 330h1.839l.613-3.648-1.226-.608v-2.432l1.226-1.216 3.064.608h3.678l-1.226-1.824 1.226-2.432h-1.226l.613-1.216-.613-1.216v-2.432h1.226v1.824l1.226-2.432-3.065-.608v-1.216l3.065.608-.613-1.216 1.838-1.824-1.838.608-1.226-1.216 2.452-.608-1.226-1.216.613-1.216-1.226-.608h2.451l.613-1.216-1.838-.608.613-1.216 2.451.608v-1.216L598 299.6l-1.839-.608-1.226-.608-.612.608-1.226-1.824v-2.432l-1.839-2.432-.613-1.216h-1.839l-.612-1.216-.613-2.432-1.226-1.824V284.4l-3.065-1.824h-1.838v-1.216l-1.226-.608v-1.216l-1.839-.608v-1.216l-1.839-1.824h-1.838l-1.839-3.04-3.065-1.216-.612-1.216h-1.226l-.613-1.824-1.839-1.216-.613-.608-.613-1.824-1.838-1.216v-1.824l-2.452.608-1.839-1.216-.613-.608-1.838-.608-1.226-.608 1.226-2.432.613-1.216z"/><path stroke="#313E99" fill="#06BEE1" stroke-linecap="round" stroke-linejoin="round" d="M541.294 325.662l-37.686 4.273-.608 3.052 1.824 1.831 1.823.61v2.442l.608 1.22h1.216l-1.216 2.442.608.61 3.039-3.661-.608-1.832 1.824 1.221.607-1.22h1.216l-.608 1.22 1.824.61-1.216.61 5.47-.61 1.216-1.83h1.216l3.04-.611 1.823 1.831-3.04.61 4.863 1.221 3.647 1.831-1.823-1.83 1.823-1.221.608 1.22 1.824-1.83.608 1.22-1.824 1.831 1.216.61h1.823l1.216 1.221-1.216.61-1.823-.61 3.04 1.831 1.823 1.832v1.83h1.823l2.431-1.22 2.432-1.831.608 1.22 4.255-3.662h2.431l-2.431-1.22 2.431-1.832 1.824-.61h3.039l2.431 1.22h1.824l2.431 2.442.608 1.221 2.431.61.608 2.442 1.216 1.22 1.823.611 1.216 1.831 1.823 1.221h3.648l1.215 3.052 1.824 1.22v2.442l.608 1.221v6.104L580.804 369l1.216 1.22-.608 4.274 2.431 1.83.608-2.44-1.824-1.222.608-1.83 2.432 1.22v1.831l1.215-1.831.608 1.22.608 1.222-2.431 3.662-.608 2.441 1.823 1.832.608 1.83 1.824 2.442 1.215 1.831 1.824 1.832h1.823l-2.43-2.442h1.823l2.431-.61.608.61-1.216.61.608 4.273.608 1.831 1.216-.61v-1.22l2.43-1.832v1.22l-1.215 1.222-1.215 1.83 1.215.611.608-.61 1.216 2.441.608 3.052 1.823 2.442 4.863 1.22 1.823 1.221v1.221l.608.61 1.824 1.832 1.215 2.441 3.04.61 1.215 1.221-1.215 1.221-3.04-1.83v1.83l1.216 1.221 3.04-.61.607-1.221 2.432.61 1.823-2.441h1.824l1.823-3.052-1.216-1.221 1.216-4.273.608-3.662v-6.714l-.608-.61v-4.884l-.608-3.662-1.215-1.221v-1.22l-2.432-2.442h-1.215l-.608-1.221 1.823.61-1.215-2.441-.608-.61-2.432-4.273-2.431-3.663-3.04-4.883-3.038-4.273-1.216-4.272 1.216-.61.607 2.44h1.824l-5.47-6.713-5.471-7.325-3.647-8.546-.608-1.22-1.216-2.442-.608-3.052-1.823-1.22v-1.832h1.215v-1.22h-4.862l-3.04-.611-1.215 1.22v2.442l1.216.61-.608 3.663h-1.824l-1.216-1.831v-1.22l-3.647.61-35.862 2.441-.608-2.441z"/><path stroke="#313E99" fill="#FFF" stroke-linecap="round" stroke-linejoin="round" d="M647.478 177l7.305-1.846 1.217-.616v-.615l-.609-1.23-1.826.615.609-1.231v-1.23l1.217-.616-1.217-.616-1.217-.615-1.827-1.23v-1.232l-2.434-1.23v-2.462l-3.653-3.077v-1.846l-.608-.615v-1.231l1.217-1.23.609-1.847h-2.435l-1.217 1.23-.609 1.847zM662 110.889l1.846 12.222 1.23 1.222-2.46 3.056 1.23.611h1.846l3.077-3.667 1.846-.61 1.231-1.834h1.23l3.078-1.222 3.077-.611-.616-1.223 1.847.611 1.23-.61 1.846-.612 1.231-.61H686v-2.445L683.538 106l-12.923 3.667-.615-.611zM252.391 168.63c-14.797-.677-49.913-3.63-49.913-3.63L197 232.16s23.145 1.975 36.849 2.66c18.557.929 59.934 2.18 59.934 2.18L295 169.235s-26.565.13-42.609-.605z"/><path stroke="#313E99" fill="#06BEE1" stroke-linecap="round" stroke-linejoin="round" d="M62.212 129.935L8.88 119v1.823l-1.212 1.822 1.212 1.215v5.468l-2.424 4.86v1.215l-.607 2.43.607.607-1.819.608-.606 1.215-1.212.607L1 143.908v3.037l2.424 3.645.606 1.215 1.818 3.646v5.467l-1.818 3.038.606 1.822.606 4.253-1.212.607 4.243 7.29 2.424 2.43v2.43l1.212 1.823 1.212 2.43v1.215l-1.818-2.43v1.215l2.424 3.645h.606l1.819 1.823 1.212-4.86 1.818-.608 2.424 2.43 1.212-.608 1.212-.607.606 1.215 1.212.607h1.819l1.818.608 1.818 1.823h-.606l-1.818-1.215-1.212.607-1.819-.607-3.03-1.216-1.212.608-1.212-1.215-1.818 1.215v.608l.606 1.215v1.215l1.212 1.215V199.19l1.212.608-.606.607-1.818-1.215-1.818-2.43v-3.037h-1.212l-.607 1.215.607 1.215-.607 1.822.607 2.43-.607 2.43 1.819 3.645 1.818 1.823 2.424.607 1.212 2.43-.606 2.43-1.818 1.215h-.606v4.86l.606 1.215 1.818 1.823.606 2.43 1.212.608v2.43l1.212 1.822v1.823l2.425 1.215.606 2.43 2.424 1.215v1.822l-1.212 1.215.606 1.215 2.424 1.215v1.823l-.606 2.43V250.829l-1.212 1.215 1.818.608.606 1.822h4.243l.606 1.215h1.818L41 256.904l1.818.608 1.818-.608 3.637 3.038 1.212 3.038 4.242 2.43 1.212.607h3.637l1.818 2.43-.606 3.038 1.212.607 1.212-.607 1.818.607 2.425 3.038 3.636 4.252 1.818 1.823 1.212 3.645.606 3.037-.606 2.43.606 1.215 1.212 1.215v1.823l33.94 2.43.606-.608 1.818.608h.606l.606-1.215.606-1.215v-2.43l-2.424-.608-.606-1.215.606-1.822v-3.645h1.818l1.212-2.43.606-2.43.606-2.43v-1.215l1.213-1.215.606-1.215 2.424-1.215 1.818-1.823-3.03-3.037-.606-3.645-1.212-2.43-.607-1.216v-1.822l-62.424-79.584z"/><path stroke="#313E99" fill="#FFF" stroke-linecap="round" stroke-linejoin="round" d="M400.2 293.702l-1.2-30.289-3-17.567v-.606l60.6-4.24 1.8 1.817v1.212l-3 4.24-.6.606v1.212l8.4-1.212 1.2.606.6.606h-1.8v1.211l.6.606-3 1.817.6 2.423v1.212h-1.2l-.6 2.423-.6 1.817 1.2 2.423h-1.8l-1.2 2.423v1.818l-1.8 1.211v1.817h-1.8v5.452l-1.8 1.212v1.211l-2.4 2.424 1.2 1.211-.6.606-2.4 1.211.6 3.03-1.8 2.422 1.2 1.212-1.2 1.211 1.2 1.212v3.029l1.2 1.817-1.2 1.212v1.817L406.8 304v-9.087l-.6-.605h-3l-.6.605-1.2-.605zM154.04 228.283c14.32 1.541 42.96 4.015 42.96 4.015L189.13 329l-29.062-2.433L108 300.415l.605-1.824 1.211-1.825.606-.608 1.816.608h.606l1.21-2.433v-2.432l-2.421-.609-.606-1.216.606-1.825v-3.649h1.816l1.21-2.432 1.212-4.866v-1.216l1.21-1.217.606-1.216 2.422-1.216 1.816-1.825-3.027-3.04-.605-3.65-1.817-3.65v-4.256l1.211-.609v-2.432l-.605-3.041.605-1.825-.605-3.04.605-1.217-.605-1.825.605-2.433 2.422-1.216 1.816 1.216 1.211-.608.605 2.433h1.817l1.816-3.65L129.19 225s16.567 2.391 24.85 3.283zM487 262.28l.607 1.224 1.213.611v52.59l3.64 24.46h2.428l1.213 1.223h.607v-3.669l.607-3.669 2.427 1.835-.607 2.446 1.213 1.223 2.427 2.446 1.82-.612-.606-1.223h1.213l1.82-2.446-.606-1.223v-2.446l-1.82-.611-1.82-1.835.606-3.057 37.618-4.28-.607-1.835-1.82-1.835.607-6.115-2.427-3.058v-3.057l1.213-1.223v-3.058l1.82-1.834-1.82-.612v-2.446l-1.82-2.446-2.427-5.503L522.798 258z"/><path d="M51.857 11a4.294 4.294 0 0 0-4.286-4.286A4.294 4.294 0 0 0 43.286 11a4.294 4.294 0 0 0 4.285 4.286A4.294 4.294 0 0 0 51.857 11zm4.286 0c0 1.021-.117 2.076-.553 2.997l-6.093 12.957c-.352.737-1.122 1.189-1.926 1.189-.803 0-1.573-.452-1.908-1.189l-6.11-12.957C39.116 13.076 39 12.02 39 11a8.567 8.567 0 0 1 8.571-8.571A8.567 8.567 0 0 1 56.143 11zM470.857 339a4.294 4.294 0 0 0-4.286-4.286 4.294 4.294 0 0 0-4.285 4.286 4.294 4.294 0 0 0 4.285 4.286 4.294 4.294 0 0 0 4.286-4.286zm4.286 0c0 1.021-.117 2.076-.553 2.997l-6.093 12.957c-.352.737-1.122 1.189-1.926 1.189-.803 0-1.573-.452-1.908-1.189l-6.11-12.957c-.436-.921-.553-1.976-.553-2.997a8.567 8.567 0 0 1 8.571-8.571 8.567 8.567 0 0 1 8.572 8.571zM591.857 354.571a4.294 4.294 0 0 0-4.286-4.285 4.294 4.294 0 0 0-4.285 4.285 4.294 4.294 0 0 0 4.285 4.286 4.294 4.294 0 0 0 4.286-4.286zm4.286 0c0 1.022-.117 2.076-.553 2.997l-6.093 12.958c-.352.736-1.122 1.188-1.926 1.188-.803 0-1.573-.452-1.908-1.188l-6.11-12.958c-.436-.92-.553-1.975-.553-2.997a8.567 8.567 0 0 1 8.571-8.571 8.567 8.567 0 0 1 8.572 8.571zM544.857 324.571a4.294 4.294 0 0 0-4.286-4.285 4.294 4.294 0 0 0-4.285 4.285 4.294 4.294 0 0 0 4.285 4.286 4.294 4.294 0 0 0 4.286-4.286zm4.286 0c0 1.022-.117 2.076-.553 2.997l-6.093 12.958c-.352.736-1.122 1.188-1.926 1.188-.803 0-1.573-.452-1.908-1.188l-6.11-12.958c-.436-.92-.553-1.975-.553-2.997a8.567 8.567 0 0 1 8.571-8.571 8.567 8.567 0 0 1 8.572 8.571zM610.857 270a4.294 4.294 0 0 0-4.286-4.286 4.294 4.294 0 0 0-4.285 4.286 4.294 4.294 0 0 0 4.285 4.286 4.294 4.294 0 0 0 4.286-4.286zm4.286 0c0 1.021-.117 2.076-.553 2.997l-6.093 12.957c-.352.737-1.122 1.189-1.926 1.189-.803 0-1.573-.452-1.908-1.189l-6.11-12.957c-.436-.921-.553-1.976-.553-2.997a8.567 8.567 0 0 1 8.571-8.571 8.567 8.567 0 0 1 8.572 8.571zM645.857 189.571a4.294 4.294 0 0 0-4.286-4.285 4.294 4.294 0 0 0-4.285 4.285 4.294 4.294 0 0 0 4.285 4.286 4.294 4.294 0 0 0 4.286-4.286zm4.286 0c0 1.022-.117 2.076-.553 2.997l-6.093 12.958c-.352.736-1.122 1.188-1.926 1.188-.803 0-1.573-.452-1.908-1.188l-6.11-12.958c-.436-.92-.553-1.975-.553-2.997a8.567 8.567 0 0 1 8.571-8.571 8.567 8.567 0 0 1 8.572 8.571zM626.714 179.571a4.294 4.294 0 0 0-4.285-4.285 4.294 4.294 0 0 0-4.286 4.285 4.294 4.294 0 0 0 4.286 4.286 4.294 4.294 0 0 0 4.285-4.286zm4.286 0c0 1.022-.117 2.076-.552 2.997l-6.094 12.958c-.352.736-1.122 1.188-1.925 1.188-.804 0-1.574-.452-1.909-1.188l-6.11-12.958c-.436-.92-.553-1.975-.553-2.997A8.567 8.567 0 0 1 622.43 171a8.567 8.567 0 0 1 8.571 8.571zM616.857 208.571a4.294 4.294 0 0 0-4.286-4.285 4.294 4.294 0 0 0-4.285 4.285 4.294 4.294 0 0 0 4.285 4.286 4.294 4.294 0 0 0 4.286-4.286zm4.286 0c0 1.022-.117 2.076-.553 2.997l-6.093 12.958c-.352.736-1.122 1.188-1.926 1.188-.803 0-1.573-.452-1.908-1.188l-6.11-12.958c-.436-.92-.553-1.975-.553-2.997a8.567 8.567 0 0 1 8.571-8.571 8.567 8.567 0 0 1 8.572 8.571zM639.857 147.571a4.294 4.294 0 0 0-4.286-4.285 4.294 4.294 0 0 0-4.285 4.285 4.294 4.294 0 0 0 4.285 4.286 4.294 4.294 0 0 0 4.286-4.286zm4.286 0c0 1.022-.117 2.076-.553 2.997l-6.093 12.958c-.352.736-1.122 1.188-1.926 1.188-.803 0-1.573-.452-1.908-1.188l-6.11-12.958c-.436-.92-.553-1.975-.553-2.997a8.567 8.567 0 0 1 8.571-8.571 8.567 8.567 0 0 1 8.572 8.571zM659.857 131.714a4.294 4.294 0 0 0-4.286-4.285 4.294 4.294 0 0 0-4.285 4.285A4.294 4.294 0 0 0 655.57 136a4.294 4.294 0 0 0 4.286-4.286zm4.286 0c0 1.021-.117 2.076-.553 2.997l-6.093 12.958c-.352.736-1.122 1.188-1.926 1.188-.803 0-1.573-.452-1.908-1.188l-6.11-12.958c-.436-.92-.553-1.976-.553-2.997a8.567 8.567 0 0 1 8.571-8.571 8.567 8.567 0 0 1 8.572 8.571zM694.857 97a4.294 4.294 0 0 0-4.286-4.286A4.294 4.294 0 0 0 686.286 97a4.294 4.294 0 0 0 4.285 4.286A4.294 4.294 0 0 0 694.857 97zm4.286 0c0 1.021-.117 2.076-.553 2.997l-6.093 12.957c-.352.737-1.122 1.189-1.926 1.189-.803 0-1.573-.452-1.908-1.189l-6.11-12.957C682.116 99.076 682 98.02 682 97a8.567 8.567 0 0 1 8.571-8.571A8.567 8.567 0 0 1 699.143 97zM56.857 244.571a4.294 4.294 0 0 0-4.286-4.285 4.294 4.294 0 0 0-4.285 4.285 4.294 4.294 0 0 0 4.285 4.286 4.294 4.294 0 0 0 4.286-4.286zm4.286 0c0 1.022-.117 2.076-.553 2.997l-6.093 12.958c-.352.736-1.122 1.188-1.926 1.188-.803 0-1.573-.452-1.908-1.188l-6.11-12.958c-.436-.92-.553-1.975-.553-2.997A8.567 8.567 0 0 1 52.571 236a8.567 8.567 0 0 1 8.572 8.571zM51.857 203.571a4.294 4.294 0 0 0-4.286-4.285 4.294 4.294 0 0 0-4.285 4.285 4.294 4.294 0 0 0 4.285 4.286 4.294 4.294 0 0 0 4.286-4.286zm4.286 0c0 1.022-.117 2.076-.553 2.997l-6.093 12.958c-.352.736-1.122 1.188-1.926 1.188-.803 0-1.573-.452-1.908-1.188l-6.11-12.958c-.436-.92-.553-1.975-.553-2.997A8.567 8.567 0 0 1 47.571 195a8.567 8.567 0 0 1 8.572 8.571zM81.857 279a4.294 4.294 0 0 0-4.286-4.286A4.294 4.294 0 0 0 73.286 279a4.294 4.294 0 0 0 4.285 4.286A4.294 4.294 0 0 0 81.857 279zm4.286 0c0 1.021-.117 2.076-.553 2.997l-6.093 12.957c-.352.737-1.122 1.189-1.926 1.189-.803 0-1.573-.452-1.908-1.189l-6.11-12.957C69.116 281.076 69 280.02 69 279a8.567 8.567 0 0 1 8.571-8.571A8.567 8.567 0 0 1 86.143 279z" fill="#EE4266"/></g></svg>