<svg width="116" height="56" viewBox="0 0 116 56" xmlns="http://www.w3.org/2000/svg"><title>indus-logo-white</title><g fill="#FFF" fill-rule="evenodd"><path d="M23.093 48.701l.079.774h.853l-.447-2.981h-1.044l-1.852 2.981h.864l.452-.774h1.095zm-.858-.486l.378-.642c.102-.172.209-.402.305-.584h.011l.057.584.073.642h-.824zM25.28 49.475l.23-.96c.113-.477.424-.738.69-.738.203 0 .27.106.27.256 0 .08-.01.168-.028.244l-.288 1.198h.814l.304-1.256c.023-.106.046-.27.046-.367 0-.372-.255-.588-.706-.588-.367 0-.712.123-.972.407h-.01l.056-.359h-.723c-.034.19-.08.43-.147.704l-.35 1.46h.813M31.21 47.675h-1.355l.158-.637h1.434l.136-.544H29.33l-.723 2.981h2.332l.13-.544H29.55l.175-.72h1.356l.13-.536M32.403 49.475l.226-.973c.102-.424.39-.73.666-.73.198 0 .26.12.26.266 0 .075-.017.159-.04.247l-.282 1.19h.785l.231-.982c.108-.433.373-.72.644-.72.192 0 .277.106.277.256 0 .084-.017.177-.04.265l-.276 1.181h.785l.299-1.26c.028-.11.05-.279.05-.372 0-.367-.248-.58-.677-.58-.356 0-.7.129-.948.408-.023-.19-.215-.407-.656-.407-.356 0-.694.12-.942.398h-.012l.05-.35h-.699c-.034.19-.08.43-.142.704l-.344 1.46h.785M36.898 50.351l.226-.915h.011c.096.044.288.088.514.088.96 0 1.598-.69 1.598-1.442 0-.442-.288-.818-.887-.818-.333 0-.66.128-.886.362h-.011l.05-.314h-.728c-.034.221-.102.58-.164.836l-.53 2.203h.807zm.452-1.88c.101-.424.383-.694.689-.694.265 0 .355.181.355.354 0 .424-.339.91-.773.91a.62.62 0 0 1-.373-.105l.102-.465zM40.297 49.475l.768-3.14h-.813l-.768 3.14h.813M42.725 47.264c-.982 0-1.649.615-1.649 1.367 0 .535.47.893 1.17.893.96 0 1.648-.58 1.648-1.371 0-.491-.429-.89-1.169-.89zm-.107.482c.328 0 .435.212.435.411 0 .372-.249.88-.695.88-.282 0-.44-.168-.44-.42-.006-.336.231-.871.7-.871zM44.244 47.312l.547 1.96c.012.049.012.075-.016.106a1.3 1.3 0 0 1-.447.376 1.875 1.875 0 0 1-.468.173l.18.544a2.07 2.07 0 0 0 .887-.367c.367-.27.694-.664 1.062-1.239l.988-1.553h-.859l-.502.951c-.119.235-.18.376-.243.505h-.011c-.023-.137-.051-.292-.09-.513l-.17-.943h-.858M49.07 48.892c-.22.084-.473.137-.773.137-.237 0-.423-.058-.53-.168a.363.363 0 0 1-.085-.222c1.107.023 1.79-.177 1.79-.73 0-.402-.401-.645-.96-.645-1 0-1.61.685-1.61 1.344 0 .562.407.912 1.198.912.304 0 .706-.04 1.027-.168l-.056-.46zm-.36-.978c0 .195-.317.265-.949.26.057-.203.27-.446.65-.446.186 0 .299.075.299.186zM51.9 48.892c-.22.084-.474.137-.773.137-.238 0-.424-.058-.531-.168a.363.363 0 0 1-.085-.222c1.107.023 1.79-.177 1.79-.73 0-.402-.4-.645-.96-.645-1 0-1.61.685-1.61 1.344 0 .562.407.912 1.198.912.305 0 .706-.04 1.028-.168l-.057-.46zm-.362-.978c0 .195-.316.265-.948.26.056-.203.271-.446.65-.446.186 0 .298.075.298.186zM55.732 46.445c-.548 0-1.034.16-1.39.425a1.78 1.78 0 0 0-.7 1.411c0 .695.554 1.243 1.542 1.243.57 0 1.05-.16 1.406-.429.434-.336.677-.863.677-1.407 0-.712-.53-1.243-1.535-1.243zm-.097.531c.599 0 .769.358.769.73 0 .345-.164.836-.463 1.07a1.067 1.067 0 0 1-.639.217c-.553 0-.796-.314-.796-.734 0-.358.17-.823.475-1.057.175-.142.4-.226.654-.226zM57.703 47.312l.26 2.163h.767l.47-.783c.112-.199.18-.358.327-.663h.011c0 .26.005.469.023.694l.079.752h.762l1.344-2.163h-.819l-.468.903a9.39 9.39 0 0 0-.306.703h-.016c.016-.23.005-.442-.006-.694l-.068-.912h-.666l-.542.943c-.119.216-.243.433-.339.663h-.011c.017-.239.028-.442.028-.69l-.006-.916h-.824M62.44 49.475l.232-.96c.113-.477.423-.738.689-.738.203 0 .27.106.27.256 0 .08-.01.168-.028.244l-.287 1.198h.813l.305-1.256c.022-.106.045-.27.045-.367 0-.372-.254-.588-.706-.588-.367 0-.711.123-.971.407h-.012l.057-.359h-.723c-.034.19-.079.43-.147.704l-.35 1.46h.813M67.06 48.892c-.22.084-.475.137-.774.137-.237 0-.424-.058-.531-.168a.366.366 0 0 1-.085-.222c1.107.023 1.79-.177 1.79-.73 0-.402-.4-.645-.96-.645-1 0-1.609.685-1.609 1.344 0 .562.407.912 1.197.912.305 0 .706-.04 1.028-.168l-.057-.46zm-.362-.978c0 .195-.316.265-.949.26.057-.203.271-.446.65-.446.186 0 .299.075.299.186zM70.157 46.335l-.237.977a1.416 1.416 0 0 0-.378-.048c-1.044 0-1.739.69-1.739 1.442 0 .526.39.818.858.818.322 0 .66-.11.904-.398h.01l-.038.35h.745c.011-.257.062-.562.13-.841l.559-2.3h-.814zm-.497 2.07c-.107.411-.395.606-.626.606-.237 0-.384-.146-.384-.407 0-.416.344-.858.83-.858.136 0 .26.035.322.075l-.142.584zM74.644 48.878a2.496 2.496 0 0 1-.723.098c-.672 0-1.011-.319-1.011-.792 0-.416.203-.757.525-.96.231-.15.542-.23.87-.23.327 0 .575.053.689.097l.22-.517c-.107-.054-.418-.129-.83-.129-.537 0-1.006.102-1.4.319-.577.3-.96.823-.96 1.49 0 .788.677 1.266 1.682 1.266.457 0 .802-.058 1.005-.129l-.067-.513M76.92 47.264c-.983 0-1.65.615-1.65 1.367 0 .535.47.893 1.17.893.96 0 1.649-.58 1.649-1.371 0-.491-.43-.89-1.17-.89zm-.108.482c.328 0 .435.212.435.411 0 .372-.248.88-.694.88-.283 0-.44-.168-.44-.42-.007-.336.23-.871.7-.871zM79.116 49.475l.226-.973c.102-.424.39-.73.667-.73.197 0 .26.12.26.266 0 .075-.018.159-.04.247l-.283 1.19h.785l.232-.982c.107-.433.373-.72.643-.72.193 0 .277.106.277.256 0 .084-.017.177-.04.265l-.276 1.181h.785l.299-1.26c.028-.11.051-.279.051-.372 0-.367-.249-.58-.678-.58-.356 0-.7.129-.948.408-.023-.19-.215-.407-.656-.407-.355 0-.694.12-.942.398h-.012l.051-.35h-.7c-.034.19-.08.43-.141.704l-.345 1.46h.785M83.61 50.351l.227-.915h.011c.096.044.288.088.514.088.96 0 1.598-.69 1.598-1.442 0-.442-.288-.818-.886-.818-.334 0-.66.128-.887.362h-.011l.05-.314h-.728c-.034.221-.101.58-.164.836l-.53 2.203h.807zm.453-1.88c.101-.424.384-.694.689-.694.265 0 .356.181.356.354 0 .424-.34.91-.774.91a.617.617 0 0 1-.373-.105l.102-.465zM88.755 49.475c-.011-.27.04-.694.107-.973l.294-1.132a4.138 4.138 0 0 0-.914-.106c-1.361 0-1.977.778-1.977 1.508 0 .451.339.752.836.752.322 0 .672-.12.926-.478h.017c-.017.155-.034.301-.04.43h.751zm-.644-1.212c-.124.531-.423.748-.666.748-.226 0-.333-.146-.333-.358 0-.403.384-.907.91-.907.078 0 .157.009.22.017l-.13.5zM90.139 49.475l.231-.96c.113-.477.424-.738.689-.738.204 0 .271.106.271.256 0 .08-.011.168-.028.244l-.288 1.198h.813l.305-1.256c.023-.106.045-.27.045-.367 0-.372-.254-.588-.706-.588-.367 0-.711.123-.97.407h-.012l.056-.359h-.723c-.034.19-.079.43-.146.704l-.35 1.46h.813M92.611 47.312l.548 1.96c.012.049.012.075-.017.106-.102.146-.26.274-.446.376-.158.089-.339.142-.469.173l.181.544a2.07 2.07 0 0 0 .886-.367c.368-.27.695-.664 1.062-1.239l.988-1.553h-.858l-.502.951c-.119.235-.181.376-.243.505h-.012c-.022-.137-.05-.292-.09-.513l-.17-.943h-.858M.24 54.616c.181.106.56.212 1.09.212.847 0 1.548-.34 1.548-1.004 0-.354-.294-.597-.757-.787-.322-.142-.554-.248-.554-.42 0-.164.198-.315.577-.315.316-.004.587.08.711.133l.254-.53c-.164-.072-.435-.151-.898-.151-.83 0-1.502.367-1.502.968 0 .39.384.62.79.792.351.142.515.252.515.42 0 .235-.288.35-.604.35-.35 0-.672-.084-.898-.19l-.271.522M5.51 54.2c-.22.084-.475.137-.774.137-.237 0-.423-.057-.53-.168a.363.363 0 0 1-.086-.221c1.107.022 1.79-.177 1.79-.73 0-.403-.4-.646-.96-.646-.999 0-1.609.686-1.609 1.345 0 .562.407.911 1.197.911.305 0 .706-.04 1.028-.168l-.056-.46zm-.362-.978c0 .195-.316.266-.948.261.056-.203.27-.446.649-.446.186 0 .3.075.3.185zM6.899 54.784l.192-.805c.101-.425.344-.788.864-.788.045 0 .09 0 .13.005l.158-.62c-.051-.004-.102-.004-.153-.004-.378 0-.689.204-.88.491h-.018l.051-.442h-.706c-.028.186-.062.548-.14.876l-.311 1.287h.813M8.481 52.62l.469 2.164h.824l1.542-2.163h-.91l-.558.95c-.147.266-.238.43-.306.585H9.52c-.01-.16-.045-.323-.073-.589l-.125-.946h-.84M12.005 54.784l.525-2.163h-.814l-.524 2.163h.813zm.22-2.433c.26 0 .48-.133.48-.358 0-.19-.17-.315-.407-.315-.248 0-.463.146-.468.363 0 .19.17.31.395.31zM14.72 54.231c-.14.044-.31.088-.547.088-.305 0-.542-.15-.542-.446 0-.407.356-.792.937-.792.164 0 .277.022.373.053l.197-.487a1.886 1.886 0 0 0-.558-.075c-1.05 0-1.802.602-1.802 1.371 0 .562.48.885 1.164.885.327 0 .61-.044.785-.11l-.006-.487M17.335 54.2c-.22.084-.475.137-.774.137-.237 0-.424-.057-.53-.168a.363.363 0 0 1-.085-.221c1.106.022 1.79-.177 1.79-.73 0-.403-.401-.646-.96-.646-1 0-1.61.686-1.61 1.345 0 .562.407.911 1.197.911.305 0 .706-.04 1.028-.168l-.056-.46zm-.362-.978c0 .195-.316.266-.948.261.056-.203.27-.446.649-.446.186 0 .3.075.3.185zM18.884 54.749c.187.026.582.053 1.039.053.825 0 1.384-.12 1.824-.394.474-.296.785-.796.785-1.371-.006-.438-.198-.735-.503-.934-.322-.217-.796-.323-1.389-.323-.367 0-.728.022-1.05.067l-.706 2.902zm1.412-2.438c.085-.013.203-.018.344-.018.672 0 1.005.28 1.005.748 0 .358-.135.668-.395.898-.249.226-.638.35-1.078.35a2.71 2.71 0 0 1-.356-.018l.48-1.96zM23.623 54.784l.525-2.163h-.813l-.525 2.163h.813zm.22-2.433c.26 0 .48-.133.48-.358 0-.19-.17-.315-.406-.315-.25 0-.463.146-.47.363 0 .19.17.31.396.31zM24.21 54.66c.164.097.497.168.847.168.729 0 1.265-.265 1.265-.76 0-.302-.316-.474-.615-.593-.226-.085-.34-.16-.34-.248 0-.115.148-.19.362-.19.243 0 .435.053.553.097l.193-.451c-.136-.062-.39-.11-.712-.11-.711 0-1.214.295-1.214.742 0 .27.266.451.587.575.254.098.345.173.345.28 0 .105-.119.194-.35.194-.266 0-.565-.089-.723-.15l-.198.446M29.213 54.784c-.011-.27.04-.695.107-.973l.294-1.133a4.139 4.139 0 0 0-.915-.106c-1.36 0-1.976.779-1.976 1.509 0 .45.339.752.836.752.322 0 .672-.12.926-.478h.017c-.017.155-.034.3-.04.429h.751zm-.644-1.212c-.124.53-.423.747-.666.747-.226 0-.333-.146-.333-.358 0-.402.384-.907.909-.907.08 0 .158.01.22.018l-.13.5zM30.535 51.643l-.56 2.19a1.556 1.556 0 0 0-.062.394c0 .384.328.606.983.606 1.242 0 1.83-.806 1.83-1.509 0-.385-.26-.752-.836-.752-.339 0-.65.115-.853.305h-.01l.326-1.234h-.818zm.299 2.053c.096-.376.384-.61.678-.61.248 0 .361.163.361.37 0 .381-.339.894-.808.894-.186 0-.304-.084-.31-.238-.006-.093.017-.169.028-.24l.05-.176zM33.759 54.784l.768-3.14h-.813l-.768 3.14h.813M36.695 54.2c-.22.084-.474.137-.773.137-.238 0-.424-.057-.531-.168a.363.363 0 0 1-.085-.221c1.107.022 1.79-.177 1.79-.73 0-.403-.4-.646-.96-.646-1 0-1.61.686-1.61 1.345 0 .562.407.911 1.198.911.305 0 .706-.04 1.028-.168l-.057-.46zm-.361-.978c0 .195-.316.266-.95.261.057-.203.272-.446.65-.446.187 0 .3.075.3.185zM39.699 51.643l-.237.978a1.416 1.416 0 0 0-.378-.049c-1.045 0-1.74.69-1.74 1.442 0 .527.39.819.859.819.322 0 .66-.111.903-.399h.012l-.04.35h.745c.012-.257.063-.562.13-.84l.56-2.3h-.814zm-.497 2.07c-.107.412-.395.606-.627.606-.237 0-.383-.146-.383-.407 0-.415.344-.858.83-.858.135 0 .26.036.322.075l-.142.584zM43.198 54.784l1.965-2.982h-.91l-.852 1.416c-.187.31-.367.628-.509.92h-.01c-.023-.31-.051-.602-.091-.916l-.17-1.42h-.84l.473 2.982h.944M46.917 54.2c-.22.084-.474.137-.774.137-.237 0-.423-.057-.53-.168a.363.363 0 0 1-.085-.221c1.106.022 1.79-.177 1.79-.73 0-.403-.4-.646-.96-.646-1 0-1.61.686-1.61 1.345 0 .562.407.911 1.198.911.305 0 .706-.04 1.027-.168l-.056-.46zm-.362-.978c0 .195-.316.266-.948.261.056-.203.271-.446.649-.446.187 0 .3.075.3.185zM48.29 52.165l-.113.456h-.356l-.113.482h.35l-.214.863c-.04.163-.057.283-.057.402 0 .27.232.465.717.465.175 0 .379-.018.48-.05l.096-.499c-.073.009-.152.009-.226.009-.175 0-.231-.075-.231-.181 0-.076.022-.186.045-.275l.186-.734h.588l.118-.482h-.587l.147-.606-.83.15M51.71 54.2c-.22.084-.473.137-.773.137-.237 0-.423-.057-.53-.168a.363.363 0 0 1-.085-.221c1.107.022 1.79-.177 1.79-.73 0-.403-.401-.646-.96-.646-1 0-1.61.686-1.61 1.345 0 .562.407.911 1.198.911.304 0 .706-.04 1.027-.168l-.056-.46zm-.36-.978c0 .195-.317.266-.949.261.057-.203.27-.446.65-.446.186 0 .299.075.299.185zM53.1 54.784l.192-.805c.101-.425.344-.788.864-.788.045 0 .09 0 .13.005l.158-.62c-.05-.004-.101-.004-.153-.004-.378 0-.688.204-.88.491h-.018l.052-.442h-.706c-.029.186-.063.548-.141.876l-.311 1.287h.813M56.871 54.784c-.01-.27.04-.695.108-.973l.294-1.133a4.138 4.138 0 0 0-.915-.106c-1.361 0-1.977.779-1.977 1.509 0 .45.34.752.836.752.322 0 .672-.12.926-.478h.017c-.017.155-.034.3-.04.429h.751zm-.643-1.212c-.124.53-.424.747-.666.747-.227 0-.334-.146-.334-.358 0-.402.384-.907.91-.907.078 0 .157.01.22.018l-.13.5zM58.349 54.784l.231-.96c.114-.478.424-.739.69-.739.203 0 .27.106.27.257 0 .08-.01.168-.028.243l-.288 1.199h.813l.305-1.256c.023-.107.045-.27.045-.368 0-.371-.254-.588-.705-.588a1.28 1.28 0 0 0-.972.407H58.7l.056-.358h-.722c-.034.19-.08.429-.147.703l-.35 1.46h.813M63.93 51.754c-.547 0-1.033.159-1.389.424a1.78 1.78 0 0 0-.7 1.412c0 .694.553 1.243 1.542 1.243.57 0 1.05-.16 1.405-.43.435-.336.678-.862.678-1.406 0-.712-.53-1.243-1.536-1.243zm-.096.53c.6 0 .768.359.768.73 0 .346-.164.837-.463 1.071a1.067 1.067 0 0 1-.638.217c-.553 0-.796-.314-.796-.735 0-.358.17-.822.474-1.057.175-.141.401-.225.655-.225zM65.996 52.62l.26 2.164h.767l.47-.783c.112-.2.18-.358.327-.664h.011c0 .261.005.47.023.695l.079.752h.762l1.344-2.163h-.819l-.469.902a9.585 9.585 0 0 0-.305.704h-.016c.016-.23.005-.443-.006-.695l-.068-.911h-.666l-.542.942c-.119.217-.243.434-.34.664h-.01c.017-.24.028-.443.028-.69l-.006-.916h-.824M70.733 54.784l.232-.96c.113-.478.423-.739.689-.739.203 0 .27.106.27.257 0 .08-.01.168-.028.243l-.288 1.199h.814l.305-1.256c.022-.107.045-.27.045-.368 0-.371-.254-.588-.706-.588-.367 0-.712.124-.971.407h-.012l.057-.358h-.723c-.034.19-.079.429-.147.703l-.35 1.46h.813M75.352 54.2c-.22.084-.474.137-.773.137-.237 0-.424-.057-.531-.168a.363.363 0 0 1-.085-.221c1.107.022 1.79-.177 1.79-.73 0-.403-.4-.646-.96-.646-1 0-1.609.686-1.609 1.345 0 .562.407.911 1.197.911.305 0 .706-.04 1.028-.168l-.057-.46zm-.36-.978c0 .195-.317.266-.95.261.057-.203.271-.446.65-.446.186 0 .3.075.3.185zM78.357 51.643l-.238.978a1.415 1.415 0 0 0-.378-.049c-1.045 0-1.74.69-1.74 1.442 0 .527.39.819.859.819.322 0 .66-.111.904-.399h.011l-.04.35h.746a4.6 4.6 0 0 1 .13-.84l.559-2.3h-.813zm-.497 2.07c-.108.412-.396.606-.627.606-.238 0-.384-.146-.384-.407 0-.415.344-.858.83-.858.135 0 .26.036.322.075l-.141.584zM79.946 54.616c.18.106.558.212 1.09.212.846 0 1.547-.34 1.547-1.004 0-.354-.294-.597-.757-.787-.322-.142-.554-.248-.554-.42 0-.164.198-.315.576-.315.317-.004.588.08.712.133l.254-.53c-.164-.072-.435-.151-.898-.151-.83 0-1.502.367-1.502.968 0 .39.384.62.79.792.35.142.515.252.515.42 0 .235-.288.35-.605.35-.35 0-.671-.084-.898-.19l-.27.522M83.809 54.784l.226-.973c.102-.425.39-.73.666-.73.198 0 .26.12.26.265 0 .075-.017.16-.04.248l-.282 1.19h.785l.232-.982c.107-.434.372-.721.644-.721.191 0 .276.106.276.256 0 .084-.017.177-.04.266l-.276 1.18h.785l.3-1.26c.027-.11.05-.279.05-.371 0-.368-.249-.58-.678-.58-.355 0-.7.128-.948.407-.023-.19-.215-.407-.655-.407-.356 0-.695.12-.944.398h-.011l.051-.35h-.7c-.034.191-.079.43-.141.704l-.345 1.46h.785M90.275 54.784c-.012-.27.04-.695.107-.973l.294-1.133a4.138 4.138 0 0 0-.915-.106c-1.361 0-1.977.779-1.977 1.509 0 .45.34.752.836.752.322 0 .672-.12.926-.478h.017c-.017.155-.034.3-.04.429h.752zm-.644-1.212c-.124.53-.424.747-.666.747-.226 0-.334-.146-.334-.358 0-.402.384-.907.91-.907.079 0 .157.01.22.018l-.13.5zM91.658 54.784l.768-3.14h-.813l-.768 3.14h.813M93.154 54.784l.769-3.14h-.814l-.768 3.14h.813M94.805 54.749c.187.03.531.053.96.053.633 0 1.113-.071 1.435-.24.299-.154.52-.389.52-.707 0-.327-.232-.562-.599-.65v-.014c.412-.092.768-.331.768-.707 0-.253-.187-.443-.44-.545-.255-.119-.548-.159-.944-.159a7.04 7.04 0 0 0-1 .071l-.7 2.898zm1.401-2.451c.062-.013.175-.022.316-.022.311 0 .537.093.537.31 0 .252-.305.402-.751.402h-.271l.17-.69zm-.294 1.154h.254c.379 0 .695.089.695.385 0 .332-.401.47-.842.47-.118 0-.214-.005-.31-.014l.203-.84zM100.363 52.62l-.243 1c-.107.434-.389.695-.666.695-.209 0-.276-.11-.276-.252 0-.08.016-.186.039-.283l.277-1.16h-.813l-.288 1.208c-.04.15-.057.28-.057.399 0 .411.265.606.706.606.333 0 .672-.12.954-.403h.012l-.051.354h.717c.04-.195.079-.43.147-.703l.356-1.46h-.814M101.244 54.66c.164.097.497.168.847.168.729 0 1.265-.265 1.265-.76 0-.302-.316-.474-.615-.593-.226-.085-.34-.16-.34-.248 0-.115.147-.19.362-.19.243 0 .435.053.554.097l.191-.451c-.135-.062-.389-.11-.71-.11-.713 0-1.215.295-1.215.742 0 .27.265.451.587.575.255.098.345.173.345.28 0 .105-.119.194-.35.194-.266 0-.565-.089-.723-.15l-.198.446M104.502 54.784l.526-2.163h-.814l-.525 2.163h.813zm.22-2.433c.26 0 .48-.133.48-.358 0-.19-.169-.315-.406-.315-.249 0-.463.146-.469.363 0 .19.17.31.395.31zM105.999 54.784l.231-.96c.113-.478.424-.739.69-.739.203 0 .27.106.27.257 0 .08-.01.168-.028.243l-.288 1.199h.813l.305-1.256c.023-.107.045-.27.045-.368 0-.371-.254-.588-.706-.588-.367 0-.711.124-.97.407h-.012l.056-.358h-.723c-.034.19-.079.429-.146.703l-.35 1.46h.813M110.618 54.2c-.22.084-.475.137-.774.137-.237 0-.424-.057-.53-.168a.363.363 0 0 1-.085-.221c1.107.022 1.79-.177 1.79-.73 0-.403-.401-.646-.96-.646-1 0-1.61.686-1.61 1.345 0 .562.407.911 1.198.911.304 0 .705-.04 1.027-.168l-.056-.46zm-.361-.978c0 .195-.317.266-.95.261.057-.203.272-.446.65-.446.186 0 .3.075.3.185zM111.098 54.66c.164.097.496.168.847.168.728 0 1.265-.265 1.265-.76 0-.302-.316-.474-.616-.593-.226-.085-.338-.16-.338-.248 0-.115.146-.19.36-.19.244 0 .435.053.554.097l.192-.451c-.135-.062-.39-.11-.711-.11-.712 0-1.214.295-1.214.742 0 .27.265.451.587.575.254.098.344.173.344.28 0 .105-.118.194-.35.194-.265 0-.565-.089-.722-.15l-.198.446M113.447 54.66c.164.097.497.168.847.168.728 0 1.265-.265 1.265-.76 0-.302-.316-.474-.616-.593-.226-.085-.338-.16-.338-.248 0-.115.146-.19.36-.19.244 0 .435.053.554.097l.192-.451c-.135-.062-.39-.11-.711-.11-.712 0-1.214.295-1.214.742 0 .27.265.451.587.575.254.098.344.173.344.28 0 .105-.118.194-.35.194-.265 0-.565-.089-.722-.15l-.198.446M8.768 26.858C21.41 20.568 43.71 14.232 58.58 12.707c.38-.039.748-.073 1.11-.105l-3.898 1.796c-14.763 1.484-33.805 6.929-45.695 12.845-10.703 5.325-10.505 8.82-.34 8.492-12.01.7-12.71-3.045-.99-8.877"/><path d="M17.052 26.123c8.673-4.316 23.975-8.663 34.176-9.709.26-.027.514-.05.763-.073l-2.676 1.233c-10.129 1.018-23.193 4.754-31.352 8.813-7.343 3.654-7.208 6.051-.233 5.826-8.24.48-8.72-2.089-.678-6.09"/><path d="M27.19 25.224c3.817-1.9 10.55-3.812 15.038-4.272.115-.012.227-.023.336-.032l-1.178.542c-4.456.448-10.205 2.092-13.794 3.878-3.231 1.607-3.172 2.662-.103 2.563-3.626.212-3.837-.919-.298-2.68"/><path d="M39.167 23.535c-.174-.12-.485-.189-.939-.189-1.371 0-3.49.626-4.733 1.397-1.241.771-1.136 1.396.235 1.396.081 0 .172-.009.258-.013l-19.782 9.896h8.145l38.365-23.267-21.549 10.78M51.179 20.13l.256.282a.55.55 0 0 1 .122.176c.027.064.04.133.04.208V35.15c0 .09-.013.169-.04.237a.525.525 0 0 1-.122.18l-.256.282v.158h2.948v-.158l-.256-.282a.516.516 0 0 1-.105-.18.722.722 0 0 1-.036-.237V20.796c0-.082.01-.152.03-.208a.51.51 0 0 1 .11-.176l.257-.282v-.158h-2.948v.158M66.17 20.123l.285.282a.52.52 0 0 1 .106.175.972.972 0 0 1 .04.209v10.316L56.476 19.42v15.725c0 .09-.012.169-.035.236a.454.454 0 0 1-.116.18l-.28.283V36h2.775v-.158l-.25-.283a.444.444 0 0 1-.112-.18.75.75 0 0 1-.034-.236V25.048l10.094 11.475V20.788c0-.075.014-.144.04-.208a.632.632 0 0 1 .112-.175l.256-.282v-.158h-2.755v.158M82.64 30.723a5.033 5.033 0 0 1-1.417 1.997 3.89 3.89 0 0 1-1.453.814c-.533.162-1.269.242-2.207.242h-4.39V22.169h4.47c.87 0 1.6.09 2.19.27.587.179 1.077.46 1.468.841.578.554 1.024 1.241 1.34 2.06a7.3 7.3 0 0 1 .473 2.644c0 1.032-.158 1.946-.473 2.739m.055-9.138a5.693 5.693 0 0 0-2.127-1.224c-.81-.26-1.782-.39-2.918-.39h-7v.16l.28.287c.054.06.091.118.11.175a.668.668 0 0 1 .03.208v14.347c0 .09-.012.17-.035.237a.545.545 0 0 1-.104.18l-.28.282v.16h6.92c1.338 0 2.386-.13 3.143-.389.756-.259 1.473-.693 2.15-1.303a7.168 7.168 0 0 0 1.846-2.652c.418-1.03.627-2.178.627-3.442 0-1.361-.226-2.61-.678-3.746a7.778 7.778 0 0 0-1.964-2.89M96.594 20.13l.26.28c.053.06.088.12.107.175a.996.996 0 0 1 .04.208v10.876c0 .907-.283 1.537-.846 1.89-.565.352-1.603.528-3.115.528-1.482 0-2.502-.178-3.063-.534-.56-.356-.84-.984-.84-1.884V20.793c0-.075.011-.144.034-.208a.461.461 0 0 1 .117-.174l.256-.282v-.157h-2.937v.158l.256.282a.5.5 0 0 1 .111.176c.02.056.03.125.03.207v11.632c0 1.278.507 2.24 1.522 2.888 1.014.646 2.526.97 4.533.97 2.014 0 3.525-.324 4.533-.97 1.007-.647 1.51-1.61 1.51-2.888V20.795a.82.82 0 0 1 .047-.213.469.469 0 0 1 .118-.17l.244-.282v-.158h-2.917v.157M114.34 29.193c-.906-1.096-2.228-1.892-3.965-2.388l-4.444-1.273a2.3 2.3 0 0 1-.124-.034c-1.896-.532-2.844-1.203-2.844-2.013 0-.45.143-.78.427-.995.284-.214.721-.32 1.313-.32h8.002c.105 0 .19.03.252.091a.325.325 0 0 1 .096.243v.046l-.012.207h.115l1.39-2.785h-9.854c-1.24 0-2.204.312-2.891.936-.688.624-1.031 1.489-1.031 2.594 0 .97.257 1.765.771 2.385.515.62 1.294 1.081 2.339 1.381l5.962 1.68c1.235.368 2.155.909 2.759 1.623.602.715.905 1.622.905 2.722 0 .135-.002.236-.006.303-.004.068-.01.128-.017.18h-12.26l-.883 2.232h15.36v-2.771c0-1.6-.454-2.948-1.36-4.044"/><path d="M79.155.475l.23.352-1.709 1.116-.23-.352 1.71-1.116zm-3.591 2.297l.23.352-3.996 2.609-.23-.352 3.996-2.61zm-6.89 4.422l.23.352-5.245 3.424-.23-.352 5.245-3.424z" fill-rule="nonzero"/><path d="M3.739 39.732v4.473H2.187v-4.473H.337V39.2H5.59v.533h-1.85M8.445 44.204v-5.005h3.846v.533H9.988v1.618h2.254v.54H9.988v1.78h2.303v.534H8.445M21.022 40.208h-.154c-.308-.316-.915-.674-1.696-.674-1.666 0-2.399 1.121-2.399 2.16 0 1.3.829 2.16 2.4 2.16.539 0 1.31-.166 1.878-.551l.145.041-.231.633c-.694.263-1.436.319-2.062.319-1.946 0-3.835-.773-3.835-2.602 0-1.733 1.889-2.602 4.104-2.602.771 0 1.465.13 2.082.359l-.232.757M28.84 44.205V41.89h-3.169v2.315H24.13v-5.008h1.542v2.153h3.17v-2.153h1.551v5.008H28.84M38.728 44.205l-4.561-3.547v3.547h-.814v-5.008h1.007l4.446 3.451v-3.45h.813v5.007h-.89M50.362 41.76c0-1.703-1.397-2.653-3.895-2.653-2.536 0-3.982 1.177-3.982 2.653 0 1.819 1.812 2.536 3.837 2.536 2.218 0 4.04-1.06 4.04-2.536m-1.706-.2c0 1.456-.964 2.293-2.334 2.293-1.138 0-2.121-.597-2.121-1.963 0-1.064.444-2.348 2.266-2.348 1.456 0 2.19.982 2.19 2.018M53.223 44.204v-5.006h1.543v4.473h2.302v.533h-3.845M66.932 41.76c0-1.703-1.397-2.653-3.895-2.653-2.536 0-3.982 1.177-3.982 2.653 0 1.819 1.813 2.536 3.838 2.536 2.217 0 4.039-1.06 4.039-2.536m-1.706-.2c0 1.456-.964 2.293-2.333 2.293-1.138 0-2.122-.597-2.122-1.963 0-1.064.444-2.348 2.266-2.348 1.456 0 2.189.982 2.189 2.018M73.758 44.296c-2.476 0-4.057-.923-4.057-2.475 0-1.565 1.58-2.714 4.317-2.714.781 0 1.669.131 2.42.456l-.28.735h-.144c-.52-.529-1.195-.748-2.005-.748-1.36 0-2.593.706-2.593 2.271 0 1.435.945 2.032 2.342 2.032.569 0 .926-.09 1.254-.226v-1.771h1.552v2.101c-.598.124-1.552.339-2.806.339M83.069 41.911v2.294h-1.552v-2.114l-2.178-2.893h1.657l1.706 2.232 1.58-2.232h.945l-2.158 2.713M88.18 43.896l-1.666 1.7-.25-.083.558-1.617c.193-.558.414-.792.858-.792.347 0 .693.186.693.448 0 .123-.097.247-.192.344M96.083 44.205h1.543v-5.008h-1.543zM105.982 44.205l-4.562-3.547v3.547h-.814v-5.008h1.007l4.446 3.451v-3.45h.814v5.007h-.891M115.694 40.208h-.154c-.309-.316-.916-.674-1.696-.674-1.667 0-2.399 1.121-2.399 2.16 0 1.3.828 2.16 2.399 2.16.54 0 1.31-.166 1.879-.551l.144.041-.231.633c-.694.263-1.435.319-2.062.319-1.946 0-3.835-.773-3.835-2.602 0-1.733 1.89-2.602 4.105-2.602.77 0 1.464.13 2.08.359l-.23.757"/></g></svg>