<?xml version="1.0" encoding="UTF-8"?>
<svg width="733px" height="506px" viewBox="0 0 733 506" version="1.1" xmlns="http://www.w3.org/2000/svg" xmlns:xlink="http://www.w3.org/1999/xlink">
    <!-- Generator: Sketch 49 (51002) - http://www.bohemiancoding.com/sketch -->
    <title>locations-map</title>
    <desc>Created with Sketch.</desc>
    <defs></defs>
    <g id="locations-map" stroke="none" stroke-width="1" fill="none" fill-rule="evenodd">
        <g id="United-States" transform="translate(1.000000, 2.000000)">
            <path d="M216.13579,97.5667013 C204.980849,96.7855143 182.670968,94 182.670968,94 L176,161.272727 C176,161.272727 200.781112,163.692804 213.171668,164.597057 C231.507993,165.935228 268.180645,168 268.180645,168 L270,100.115702 C270,100.115702 234.090526,98.8240818 216.13579,97.5667013 Z" id="Wyoming-(WY)" stroke="#313E99" fill="#FFFFFF" stroke-linecap="round" stroke-linejoin="round"></path>
            <polygon id="Wisconsin-(WI)" stroke="#313E99" fill="#FFFFFF" stroke-linecap="round" stroke-linejoin="round" points="416.885246 68.2809917 416.278689 70.1157025 415.065574 70.1157025 415.672131 76.231405 415.672131 79.9008264 410.819672 82.9586777 410.213115 84.7933884 409 86.6280992 409 88.4628099 410.819672 89.0743802 412.032787 90.9090909 411.42623 93.3553719 410.819672 95.1900826 411.42623 96.4132231 410.819672 97.0247934 411.42623 98.2479339 410.819672 101.917355 413.852459 104.363636 416.278689 104.363636 418.098361 106.198347 420.52459 106.809917 422.95082 109.256198 424.770492 111.702479 426.590164 112.92562 429.016393 112.92562 431.442623 115.371901 432.04918 117.206612 432.04918 122.099174 432.655738 122.099174 433.262295 123.933884 435.081967 125.157025 433.868852 126.991736 434.47541 131.272727 436.295082 134.942149 439.934426 134.942149 441.147541 138 477.540984 134.330579 476.934426 131.884298 477.540984 130.661157 477.540984 128.826446 476.327869 128.214876 475.721311 125.768595 475.114754 122.099174 475.114754 119.652893 475.721311 117.818182 475.721311 115.983471 476.934426 113.53719 475.721311 112.31405 476.327869 108.644628 476.934426 106.809917 478.754098 105.586777 477.540984 103.752066 477.540984 100.082645 479.360656 97.0247934 478.754098 95.1900826 480.57377 93.3553719 481.180328 90.2975207 481.786885 87.8512397 483 86.0165289 481.786885 86.0165289 481.180328 87.8512397 479.967213 89.6859504 479.360656 89.6859504 479.360656 91.5206612 478.147541 92.7438017 478.754098 93.9669421 478.147541 94.5785124 477.540984 94.5785124 475.721311 95.1900826 474.508197 97.6363636 473.295082 98.8595041 472.081967 100.694215 470.868852 100.082645 470.868852 98.2479339 472.081967 95.1900826 473.295082 93.3553719 475.114754 92.1322314 475.114754 90.9090909 473.295082 89.6859504 474.508197 86.0165289 473.901639 86.0165289 472.081967 86.6280992 471.47541 86.6280992 472.688525 84.1818182 471.47541 81.1239669 469.655738 79.9008264 467.836066 79.9008264 467.836066 78.0661157 466.016393 77.4545455 461.770492 76.8429752 459.344262 77.4545455 456.918033 76.231405 449.032787 74.3966942 442.360656 73.1735537 440.540984 70.7272727 438.721311 70.1157025 434.47541 68.892562 432.04918 70.1157025 432.04918 68.892562 433.262295 64.6115702 432.04918 64 429.016393 65.8347107 427.196721 66.446281 422.95082 68.892562 419.311475 69.5041322"></polygon>
            <polygon id="West-Virginia-(WV)" stroke="#313E99" fill="#FFFFFF" stroke-linecap="round" stroke-linejoin="round" points="565.267327 206.454545 565.267327 207.070707 565.871287 207.070707 565.871287 208.30303 566.475248 208.30303 566.475248 209.535354 567.079208 209.535354 567.683168 210.767677 569.49505 210.767677 570.09901 211.383838 571.910891 212 573.722772 210.151515 574.326733 208.919192 576.742574 210.151515 577.950495 208.919192 580.366337 208.919192 580.970297 207.686869 580.366337 206.454545 581.574257 205.838384 582.782178 206.454545 585.19802 204.606061 585.80198 205.222222 588.217822 203.373737 587.613861 202.757576 588.821782 201.525253 588.821782 200.909091 587.613861 200.909091 587.613861 199.676768 588.217822 197.828283 590.633663 194.131313 591.237624 191.666667 590.633663 191.050505 592.445545 189.20202 591.841584 188.585859 593.049505 186.737374 593.049505 184.272727 593.653465 183.656566 594.861386 183.656566 596.069307 184.888889 598.485149 184.888889 599.693069 183.656566 599.693069 181.808081 600.29703 181.191919 600.29703 179.343434 600.90099 178.111111 601.50495 177.494949 603.316832 178.111111 603.920792 175.646465 605.128713 175.646465 605.128713 175.030303 606.336634 173.79798 606.336634 172.565657 607.544554 170.717172 607.544554 168.868687 608.148515 167.636364 607.544554 166.40404 608.148515 165.787879 615.39604 169.484848 616 165.787879 616 164.555556 614.792079 163.939394 614.188119 162.707071 613.584158 162.707071 614.188119 161.474747 611.772277 162.090909 609.356436 160.858586 608.752475 161.474747 608.148515 162.707071 606.336634 162.707071 605.732673 164.555556 604.524752 165.171717 602.712871 165.171717 601.50495 163.323232 601.50495 165.171717 599.693069 167.020202 597.881188 167.020202 597.277228 168.252525 596.069307 170.10101 593.653465 172.565657 591.841584 163.939394 578.554455 166.40404 575.534653 151 573.722772 152.232323 575.534653 153.464646 574.930693 155.313131 575.534653 157.161616 574.930693 159.626263 574.930693 162.707071 574.326733 166.40404 574.326733 168.868687 571.306931 170.717172 571.306931 172.565657 568.891089 175.030303 567.683168 173.79798 565.871287 175.030303 565.871287 176.262626 564.663366 176.878788 564.059406 179.343434 563.455446 180.575758 564.059406 181.191919 564.059406 182.424242 562.851485 183.656566 562.247525 183.656566 562.247525 182.424242 561.039604 181.808081 559.831683 183.040404 559.227723 184.888889 559.227723 186.121212 559.831683 189.20202 558.623762 189.818182 558.623762 191.666667 555 193.515152 555.60396 195.363636 555 197.828283 557.415842 200.292929 558.019802 201.525253 560.435644 204.606061 563.455446 206.454545"></polygon>
            <polygon id="Washington-D.C.-(DC)" stroke="#313E99" fill="#FFFFFF" stroke-linecap="round" stroke-linejoin="round" points="628.5 173 630 171.8 627.75 170 627 171.2 627.75 171.8"></polygon>
            <path d="M111.921569,69 L111.921569,67.17 L112.529412,66.56 L112.529412,65.34 L111.313725,62.9 L118,20.81 C118,20.81 83.5649457,14.8227081 66.3474185,11.5240622 C61.277364,10.5527081 51.1372549,8 51.1372549,8 L50.5294118,9.22 L51.1372549,12.27 L52.9607843,12.27 L52.9607843,14.71 L52.3529412,17.15 L51.1372549,17.15 L50.5294118,15.93 L49.9215686,14.71 L48.0980392,12.27 L46.8823529,12.88 L48.0980392,13.49 L49.3137255,14.71 L48.0980392,15.32 L46.2745098,14.1 L44.4509804,13.49 L45.0588235,15.32 L48.0980392,16.54 L49.3137255,15.32 L50.5294118,17.15 L48.7058824,19.59 L49.3137255,21.42 L50.5294118,25.08 L51.745098,25.69 L51.1372549,23.86 L49.9215686,20.81 L50.5294118,18.98 L51.745098,18.98 L52.9607843,19.59 L52.9607843,22.03 L52.9607843,23.86 L54.1764706,24.47 L52.9607843,26.3 L51.1372549,28.13 L51.1372549,29.96 L51.1372549,31.79 L50.5294118,34.84 L49.3137255,36.67 L48.0980392,36.06 L46.2745098,37.89 L45.6666667,38.5 L43.8431373,37.89 L42.627451,38.5 L40.8039216,37.89 L42.0196078,36.06 L43.8431373,34.23 L45.0588235,34.84 L46.2745098,33.62 L47.4901961,35.45 L48.0980392,31.79 L46.8823529,31.18 L47.4901961,28.74 C46.846935,28.74 49.3137255,28.74 49.3137255,28.74 L49.9215686,26.91 L45.6666667,29.35 L44.4509804,29.96 L42.0196078,31.79 L43.2352941,33.01 L44.4509804,33.01 L43.2352941,33.62 L40.1960784,33.62 L40.8039216,32.4 L43.2352941,29.96 L45.0588235,28.13 L45.0588235,26.3 L46.2745098,26.3 L46.2745098,27.52 L48.0980392,25.69 L46.8823529,22.03 L46.8823529,23.86 L45.0588235,22.03 L44.4509804,22.64 L42.627451,20.81 L40.8039216,20.81 L34.1176471,18.37 L31.6862745,17.15 L30.4705882,15.93 L26.2156863,13.49 L25,16.54 L25,20.2 L26.8235294,22.64 L27.4313725,25.08 L26.8235294,29.96 L28.0392157,31.79 L27.4313725,35.45 L29.254902,35.45 L29.254902,36.67 L31.6862745,37.89 L28.6470588,38.5 L28.0392157,39.72 L27.4313725,39.11 L27.4313725,40.94 L29.8627451,40.94 L31.0784314,42.77 L29.254902,42.77 L28.6470588,45.21 L29.254902,47.04 L27.4313725,47.04 L26.8235294,45.82 L26.2156863,48.26 L27.4313725,48.26 L28.6470588,48.87 L31.0784314,48.87 L31.6862745,49.48 L33.5098039,49.48 L34.1176471,51.31 L35.3333333,51.92 L37.1568627,51.92 L38.9803922,53.75 L40.1960784,56.8 L39.5882353,61.07 L39.5882353,62.29 L43.8431373,63.51 L45.6666667,64.73 L49.9215686,63.51 L51.745098,62.9 L55.3921569,63.51 L58.4313725,64.73 L59.0392157,66.56 L61.4705882,65.95 L62.0784314,66.56 L66.3333333,65.95 L69.372549,66.56 L72.4117647,65.95 L77.8823529,65.34 L79.7058824,64.73 L85.1764706,65.95 L87,64.73 L111.921569,69 Z" id="Washington-(WA)" stroke="#313E99" fill="#5ADBFF" stroke-linecap="round" stroke-linejoin="round"></path>
            <path d="M648.352273,208.244898 L648.352273,207.020408 L648.960227,207.020408 L648.960227,203.959184 L647.744318,202.122449 L643.488636,202.122449 L644.096591,203.959184 L642.272727,203.346939 L641.056818,204.571429 L641.056818,202.734694 L638.017045,201.510204 L638.017045,199.673469 L636.193182,199.673469 L634.369318,199.673469 L633.153409,198.44898 L628.897727,199.061224 L628.897727,197.836735 L633.761364,197.22449 L634.369318,198.44898 L634.977273,196.612245 L635.585227,198.44898 L638.017045,198.44898 L638.625,198.44898 L638.625,199.673469 L642.272727,201.510204 L643.488636,200.285714 L642.272727,199.673469 L642.272727,198.44898 L641.056818,197.836735 L639.232955,197.836735 L634.977273,194.163265 L634.977273,192.938776 L639.232955,196.612245 L641.056818,196.612245 L639.840909,195.387755 L640.448864,193.55102 L642.880682,195.387755 L642.272727,193.55102 L640.448864,192.326531 L638.017045,191.714286 L636.801136,189.877551 L634.977273,189.265306 L632.545455,187.428571 L630.721591,184.979592 L629.505682,184.979592 L627.681818,184.367347 L628.289773,183.755102 L630.721591,183.755102 L634.977273,188.040816 L636.193182,188.040816 L638.625,190.489796 L638.625,189.265306 L640.448864,190.489796 L640.448864,188.040816 L639.840909,186.816327 L641.056818,186.204082 L639.232955,185.591837 L636.801136,184.979592 L636.193182,183.755102 L634.369318,183.142857 L633.153409,183.755102 L630.721591,183.142857 L628.897727,181.306122 L628.897727,180.081633 L627.073864,181.918367 L624.642045,181.918367 L624.642045,180.693878 L624.642045,180.081633 L624.642045,176.408163 L625.857955,175.183673 L627.073864,174.571429 L627.073864,172.734694 L626.465909,171.510204 L625.857955,170.897959 L624.034091,170.897959 L623.426136,169.673469 L620.994318,169.673469 L619.778409,168.44898 L620.386364,166.612245 L618.5625,166 L616.130682,166 L615.522727,169.673469 L608.227273,166 L607.619318,166.612245 L608.227273,167.836735 L607.619318,169.061224 L607.619318,170.897959 L606.403409,172.734694 L606.403409,173.959184 L605.1875,175.183673 L605.1875,175.795918 L603.971591,175.795918 L603.363636,178.244898 L601.539773,177.632653 L600.931818,178.244898 L600.323864,179.469388 L600.323864,181.306122 L599.715909,181.918367 L599.715909,183.755102 L598.5,184.979592 L596.068182,184.979592 L594.852273,183.755102 L593.636364,183.755102 L593.028409,184.367347 L593.028409,186.816327 L591.8125,188.653061 L592.420455,189.265306 L590.596591,191.102041 L591.204545,191.714286 L590.596591,194.163265 L588.164773,197.836735 L587.556818,199.673469 L587.556818,200.897959 L588.772727,200.897959 L588.772727,201.510204 L587.556818,202.734694 L588.164773,203.346939 L585.732955,205.183673 L585.125,204.571429 L582.693182,206.408163 L581.477273,205.795918 L580.261364,206.408163 L580.869318,207.632653 L580.261364,208.857143 L577.829545,208.857143 L576.613636,210.081633 L574.181818,208.857143 L573.573864,210.081633 L571.75,211.918367 L569.926136,211.306122 L569.318182,210.693878 L567.494318,210.693878 L566.886364,209.469388 L566.278409,209.469388 L566.278409,208.244898 L565.670455,208.244898 L565.670455,207.020408 L565.0625,207.020408 L560.806818,212.530612 L556.551136,214.979592 L556.551136,216.816327 L555.335227,218.040816 L555.335227,219.265306 L552.295455,220.489796 L551.6875,222.326531 L545,226 L571.75,221.714286 L571.75,222.326531 L648.352273,208.244898 Z M648.960227,182.530612 L648.960227,183.755102 L648.352273,184.367347 L648.960227,185.591837 L647.744318,187.428571 L647.136364,189.265306 L647.136364,191.714286 L646.528409,194.163265 L647.136364,196.612245 L647.744318,197.22449 L648.352273,195.387755 L648.352273,191.714286 L648.960227,189.877551 L650.784091,190.489796 L650.784091,186.816327 L652,184.367347 L651.392045,183.142857 L651.392045,181.306122 L648.960227,182.530612 Z" id="Virginia-(VA)" stroke="#313E99" fill="#06BEE1" stroke-linecap="round" stroke-linejoin="round"></path>
            <path d="M651,61.0869565 L673.153846,55 L673.769231,55.6086957 L674.384615,56.826087 L673.153846,59.2608696 L675,61.6956522 L674.384615,62.3043478 L674.384615,63.5217391 L672.538462,66.5652174 L671.923077,67.173913 L670.692308,67.173913 L670.076923,68.3913043 L670.692308,70.2173913 L670.692308,72.0434783 L670.692308,74.4782609 L670.076923,75.0869565 L670.076923,77.5217391 L669.461538,78.7391304 L669.461538,80.5652174 L668.846154,81.173913 L669.461538,84.826087 L670.076923,85.4347826 L669.461538,87.8695652 L670.076923,89.0869565 L670.076923,90.9130435 L669.461538,91.5217391 L669.461538,93.3478261 L671.923077,95.173913 L661.461538,97 L660.846154,96.3913043 L658.384615,85.4347826 L658.384615,84.2173913 L657.153846,83 L655.923077,84.2173913 L655.923077,80.5652174 L655.307692,79.9565217 L655.307692,79.3478261 L654.692308,78.7391304 L654.076923,76.9130435 L653.461538,76.9130435 L653.461538,73.8695652 L654.076923,72.6521739 L652.846154,70.826087 L652.230769,68.3913043 L651.615385,67.173913 L651.615385,64.1304348 L651,63.5217391 L651,61.0869565 Z" id="Vermont-(VT)" stroke="#313E99" fill="#FFFFFF" stroke-linecap="round" stroke-linejoin="round"></path>
            <path d="M138.396694,140 L128,223.72 C128,223.72 146.682313,226.312294 156.02347,227.305107 C169.514269,228.73896 196.495868,231 196.495868,231 L202,163.66 L175.702479,161.233333 L177.53719,144.853333 L138.396694,140 Z" id="Utah-(UT)" stroke="#313E99" fill="#FFFFFF" stroke-linecap="round" stroke-linejoin="round"></path>
            <path d="M278.247619,244 L320.304762,244.608696 L320.304762,277.478261 L322.133333,277.478261 L325.790476,281.130435 L327.619048,280.521739 L328.838095,280.521739 L329.447619,279.304348 L331.885714,281.73913 L331.885714,283.565217 L334.933333,283.565217 L338.590476,284.782609 L340.419048,284.173913 L342.247619,286 L344.07619,284.782609 L347.733333,284.782609 L347.733333,286.608696 L349.561905,287.217391 L350.780952,289.652174 L354.438095,286.608696 L355.047619,288.434783 L356.266667,288.434783 L358.095238,289.652174 L360.533333,288.434783 L361.752381,291.478261 L364.190476,287.217391 L367.238095,289.043478 L369.066667,288.434783 L370.285714,289.652174 L373.942857,290.869565 L375.161905,290.869565 L375.771429,289.043478 L378.819048,288.434783 L380.038095,288.434783 L383.695238,287.217391 L386.133333,287.826087 L388.571429,286.608696 L392.228571,287.826087 L394.057143,289.652174 L395.885714,290.869565 L399.542857,291.478261 L401.980952,292.695652 L402.590476,292.086957 L405.638095,292.086957 L406.247619,292.695652 L406.247619,301.826087 L406.857143,301.826087 L407.466667,319.478261 L409.295238,321.304348 L411.12381,323.73913 L411.12381,326.173913 L412.342857,327.391304 L412.342857,328 L413.561905,329.217391 L413.561905,331.043478 L414.780952,332.26087 L415.390476,332.869565 L415.390476,334.695652 L416,335.304348 L415.390476,335.913043 L415.390476,339.565217 L414.780952,341.391304 L413.561905,343.826087 L413.561905,345.652174 L412.952381,346.869565 L414.171429,349.304348 L413.561905,351.73913 L412.342857,352.956522 L411.12381,355.391304 L410.514286,356.608696 L411.733333,358.434783 L409.295238,358.434783 L403.809524,361.478261 L401.371429,361.478261 L398.32381,362.086957 L399.542857,360.26087 L400.152381,358.434783 L398.933333,357.826087 L397.714286,358.434783 L396.495238,359.652174 L394.057143,359.043478 L394.666667,361.478261 L395.885714,363.304348 L397.104762,364.521739 L396.495238,365.73913 L394.057143,368.173913 L392.838095,367.565217 L393.447619,370.608696 L389.790476,373.652174 L386.133333,376.086957 L381.866667,376.695652 L381.257143,377.913043 L378.209524,377.913043 L378.209524,376.695652 L376.380952,377.913043 L375.161905,376.695652 L373.942857,375.478261 L374.552381,378.521739 L372.72381,377.913043 L371.504762,376.695652 L370.895238,377.304348 L372.114286,379.73913 L373.333333,380.347826 L372.114286,381.565217 L374.552381,380.956522 L374.552381,382.173913 L371.504762,384 L369.066667,380.956522 L368.457143,382.782609 L368.457143,385.826087 L367.847619,387.043478 L367.238095,384.608696 L363.580952,387.043478 L362.971429,388.26087 L364.190476,389.478261 L366.019048,388.26087 L363.580952,391.913043 L358.704762,391.304348 L358.095238,392.521739 L359.92381,393.130435 L362.361905,394.956522 L359.92381,401.043478 L358.704762,399.826087 L356.87619,401.043478 L354.438095,398.608696 L355.047619,401.043478 L354.438095,401.652174 L355.047619,402.26087 L358.095238,402.869565 L359.314286,402.26087 L358.704762,406.521739 L358.095238,407.130435 L358.095238,410.782609 L359.314286,410.782609 L359.92381,414.434783 L359.314286,415.652174 L361.142857,418.695652 L362.361905,421.73913 L363.580952,422.347826 L362.971429,424.782609 L361.752381,426 L359.314286,425.391304 L356.87619,422.956522 L348.342857,422.956522 L345.295238,420.521739 L341.638095,419.913043 L339.2,417.478261 L334.933333,417.478261 L334.933333,415.652174 L333.714286,415.043478 L332.495238,410.173913 L330.666667,407.73913 L329.447619,406.521739 L329.447619,403.478261 L328.228571,401.652174 L328.838095,400.434783 L328.838095,398.608696 L328.228571,396.782609 L325.790476,395.565217 L322.742857,393.130435 L322.133333,391.304348 L319.695238,387.652174 L317.866667,386.434783 L316.647619,384.608696 L315.428571,380.347826 L313.6,377.913043 L312.990476,376.086957 L311.161905,373.652174 L311.161905,370.608696 L309.333333,369.391304 L309.333333,368.173913 L305.066667,365.73913 L305.066667,364.521739 L302.628571,363.913043 L302.628571,362.086957 L301.409524,362.086957 L299.580952,359.043478 L295.314286,359.043478 L291.657143,358.434783 L288.609524,358.434783 L286.171429,357.217391 L284.952381,359.043478 L280.685714,359.652174 L278.247619,363.304348 L277.638095,366.347826 L276.419048,368.173913 L273.371429,371.217391 L273.371429,372.434783 L269.714286,371.217391 L267.885714,369.391304 L265.447619,369.391304 L263.619048,366.956522 L260.571429,366.347826 L256.914286,362.695652 L255.085714,362.086957 L253.257143,360.26087 L252.647619,357.826087 L251.428571,355.391304 L250.819048,353.565217 L251.428571,351.73913 L248.990476,347.478261 L248.990476,345.652174 L247.161905,342.608696 L244.114286,340.173913 L241.67619,339.565217 L238.628571,335.913043 L238.628571,334.695652 L236.190476,332.869565 L233.752381,330.434783 L231.92381,329.217391 L230.095238,328 L228.266667,326.173913 L228.266667,323.73913 L227.047619,323.130435 L225.828571,322.521739 L224,320.695652 L224,318.869565 L275.809524,321.304348 L278.247619,244 Z" id="Texas-(TX)" stroke="#313E99" fill="#FFFFFF" stroke-linecap="round" stroke-linejoin="round"></path>
            <polygon id="Tennessee-(TN)" stroke="#313E99" fill="#FFFFFF" stroke-linecap="round" stroke-linejoin="round" points="456 265 539.642105 255.171429 539.642105 250.871429 540.252632 250.257143 542.694737 250.871429 543.305263 247.185714 546.968421 244.114286 550.021053 244.114286 554.294737 239.2 556.736842 239.2 557.347368 236.128571 558.568421 236.128571 559.178947 234.285714 561.010526 233.671429 561.621053 234.9 562.842105 234.9 564.063158 231.828571 567.115789 231.214286 568.336842 231.828571 570.168421 227.528571 571.389474 226.3 572 226.3 572 222 545.136842 226.3 543.915789 227.528571 487.747368 233.057143 484.084211 233.057143 484.694737 234.9 484.694737 236.128571 465.768421 237.971429 465.157895 238.585714 463.936842 237.357143 463.936842 238.585714 464.547368 241.042857 463.326316 241.042857 463.936842 242.885714 462.715789 242.885714 463.936842 244.728571 462.715789 245.342857 462.105263 247.185714 463.326316 247.8 463.936842 248.414286 462.105263 248.414286 462.105263 249.642857 462.715789 250.257143 459.663158 252.1 460.273684 254.557143 460.273684 255.785714 459.052632 255.785714 458.442105 258.242857 457.831579 260.085714 459.052632 262.542857 457.221053 262.542857"></polygon>
            <path d="M296.325738,133.586147 C287.217158,133.429772 269,132.510638 269,132.510638 L269.603774,99.1595745 L270.207547,99.1595745 L270.811321,84 C270.811321,84 304.448428,84.606383 321.528302,84.606383 C335.039623,84.606383 362.584906,84 362.584906,84 L361.981132,85.8191489 L360.773585,87.6382979 L358.962264,88.8510638 L360.773585,92.4893617 L363.188679,93.0957447 L364.396226,94.9148936 L365,124.62766 L363.188679,124.62766 L363.188679,125.840426 L364.396226,127.053191 L363.792453,128.87234 L365,130.085106 L364.396226,134.93617 L363.188679,136.755319 L365,141 L363.792453,141 L362.584906,139.180851 L362.584906,137.968085 L360.773585,137.968085 L360.169811,137.361702 L358.358491,136.755319 L356.54717,136.755319 L354.735849,134.93617 L351.716981,135.542553 L347.490566,135.542553 L346.283019,136.755319 L344.471698,136.755319 L339.641509,133.723404 C339.641509,133.723404 310.764328,133.834027 296.325738,133.586147 Z" id="South-Dakota-(SD)" stroke="#313E99" fill="#FFFFFF" stroke-linecap="round" stroke-linejoin="round"></path>
            <polygon id="South-Carolina-(SC)" stroke="#313E99" fill="#06BEE1" stroke-linecap="round" stroke-linejoin="round" points="561.263158 250.546512 557.026316 252.395349 555.815789 254.244186 554 257.94186 557.026316 259.174419 557.631579 259.790698 559.447368 261.023256 561.868421 260.406977 561.868421 262.255814 563.684211 263.488372 564.289474 265.337209 564.894737 265.953488 566.710526 267.186047 567.315789 269.034884 568.526316 269.034884 569.131579 270.267442 572.157895 271.5 573.973684 274.581395 575.789474 274.581395 577.605263 276.430233 577.605263 277.662791 579.421053 278.27907 579.421053 279.511628 580.631579 280.127907 580.631579 281.360465 582.447368 281.360465 585.473684 283.209302 585.473684 284.44186 586.684211 286.290698 587.289474 288.755814 587.894737 289.988372 589.710526 289.988372 590.315789 291.22093 592.131579 293.686047 592.131579 296.151163 593.342105 298 593.947368 297.383721 595.157895 297.383721 596.368421 297.383721 596.973684 295.534884 596.973684 293.686047 598.184211 294.918605 596.368421 291.837209 595.157895 289.372093 595.763158 288.755814 597.578947 291.837209 598.789474 292.453488 598.184211 289.988372 599.394737 291.22093 600 293.069767 601.210526 291.837209 600.605263 289.988372 599.394737 289.372093 598.184211 288.755814 600.605263 288.139535 602.421053 288.755814 603.631579 287.523256 603.631579 286.290698 605.447368 286.290698 607.263158 285.05814 608.473684 283.825581 607.263158 282.593023 607.263158 281.360465 608.473684 281.360465 609.078947 282.593023 610.289474 281.360465 611.5 280.127907 611.5 277.662791 612.710526 277.046512 613.921053 277.662791 615.131579 275.813953 614.526316 274.581395 616.947368 273.348837 615.131579 272.732558 615.131579 270.883721 616.342105 269.034884 616.342105 272.116279 618.157895 266.569767 619.973684 263.488372 623 260.406977 605.447368 247.465116 589.710526 249.930233 589.105263 247.465116 586.684211 245.616279 585.473684 246.848837 584.868421 245 566.710526 247.465116 564.289474 248.697674 562.473684 249.313953 561.868421 250.546512"></polygon>
            <polygon id="Rhode-Island-(RI)" stroke="#313E99" fill="#06BEE1" stroke-linecap="round" stroke-linejoin="round" points="683 104.714286 685.545455 112.714286 685.545455 115 686.818182 114.428571 688.090909 113.285714 690 113.285714 690 112.142857 690 111 689.363636 109.857143 690 108.714286 688.727273 108.714286 689.363636 107.571429 688.727273 106.428571 689.363636 105.857143 689.363636 104.714286 688.727273 104.714286 688.090909 103"></polygon>
            <polygon id="Pennsylvania-(PA)" stroke="#313E99" fill="#FFFFFF" stroke-linecap="round" stroke-linejoin="round" points="572 129.357143 575.636364 151.821429 578.666667 167 640.484848 154.857143 641.090909 153.035714 642.30303 151.821429 645.333333 151.821429 645.939394 150.607143 647.757576 149.392857 647.757576 148.178571 652 144.535714 652 143.321429 648.363636 140.892857 647.151515 140.892857 646.545455 138.464286 644.727273 139.071429 644.121212 136.642857 644.727273 134.821429 645.333333 133.607143 644.121212 132.392857 644.121212 131.178571 645.333333 129.964286 646.545455 127.535714 646.545455 126.321429 648.363636 124.5 647.151515 123.285714 645.333333 123.285714 643.515152 123.285714 642.30303 121.464286 642.30303 120.25 642.30303 118.428571 640.484848 117.214286 639.272727 117.821429 638.666667 116.607143 636.848485 116 581.69697 127.535714 581.090909 123.285714"></polygon>
            <polygon id="Oregon-(OR)" stroke="#313E99" fill="#FFFFFF" stroke-linecap="round" stroke-linejoin="round" points="100.5 135 105.388889 104.42446 106.611111 101.978417 106.611111 100.143885 107.833333 98.9208633 106.611111 97.6978417 104.166667 97.0863309 104.777778 93.4172662 107.833333 89.7482014 110.277778 87.3021583 110.888889 85.4676259 113.333333 81.7985612 113.944444 80.5755396 117 76.9064748 116.388889 73.8489209 112.722222 70.7913669 112.722222 68.9568345 87.0555556 64.676259 85.2222222 65.8992806 79.7222222 64.676259 77.8888889 65.2877698 72.3888889 65.8992806 69.3333333 66.5107914 66.2777778 65.8992806 62 66.5107914 61.3888889 65.8992806 58.9444444 66.5107914 58.3333333 64.676259 55.2777778 63.4532374 51.6111111 62.8417266 45.5 64.676259 43.6666667 63.4532374 39.3888889 62.2302158 39.3888889 61.0071942 40 56.7266187 38.7777778 53.6690647 36.9444444 51.8345324 35.1111111 52.4460432 33.2777778 52.4460432 32.6666667 50.6115108 30.2222222 51.2230216 29 50.6115108 28.3888889 51.8345324 26.5555556 50 26.5555556 53.057554 25.3333333 54.2805755 25.3333333 56.7266187 25.9444444 57.9496403 24.7222222 59.1726619 25.3333333 61.618705 24.1111111 61.618705 20.4444444 72.0143885 19.8333333 73.8489209 20.4444444 75.0719424 19.8333333 76.294964 19.2222222 77.5179856 19.2222222 78.7410072 18 79.9640288 16.7777778 85.4676259 15.5555556 88.5251799 16.1666667 89.7482014 14.9444444 90.3597122 13.1111111 93.4172662 14.3333333 93.4172662 14.3333333 95.2517986 13.1111111 94.6402878 11.8888889 96.4748201 11.2777778 95.2517986 9.44444444 99.5323741 7.61111111 103.201439 8.22222222 105.647482 7.61111111 109.316547 7 112.985612 7 115.431655 8.22222222 117.877698 62 128.884892"></polygon>
            <path d="M279,234.606383 C279,234.606383 316.229757,235.621409 334.844635,235.522539 C354.285594,235.419281 393.167513,234 393.167513,234 L393.771574,243.095745 L396.791878,260.680851 L398,291 L394.375635,290.393617 L392.563452,289.180851 L390.751269,287.361702 L388.939086,286.755319 L387.126904,286.148936 L384.71066,287.361702 L382.294416,286.755319 L378.670051,287.968085 L377.461929,287.968085 L374.441624,288.574468 L373.837563,290.393617 L372.629442,290.393617 L370.817259,289.787234 L369.005076,289.180851 L367.796954,287.968085 L365.984772,288.574468 L362.964467,286.755319 L360.548223,291 L359.340102,287.968085 L356.923858,289.180851 L355.111675,287.968085 L353.903553,287.968085 L353.299492,286.148936 L349.675127,289.180851 L348.467005,286.755319 L346.654822,286.148936 L346.654822,284.329787 L343.030457,284.329787 L341.218274,285.542553 L339.406091,283.723404 L337.593909,284.329787 L333.969543,283.117021 L330.949239,283.117021 L330.949239,281.297872 L328.532995,278.87234 L327.928934,280.085106 L326.720812,280.085106 L324.908629,280.691489 L323.096447,278.87234 L321.284264,277.053191 L319.472081,277.053191 L319.472081,244.308511 L279,243.702128 L279,234.606383 Z" id="Oklahoma-(OK)" stroke="#313E99" fill="#FFFFFF" stroke-linecap="round" stroke-linejoin="round"></path>
            <polygon id="Ohio-(OH)" stroke="#313E99" fill="#FFFFFF" stroke-linecap="round" stroke-linejoin="round" points="518 142.283019 523.494737 185.754717 524.715789 184.54717 526.547368 185.754717 527.768421 184.54717 528.989474 185.754717 530.210526 185.754717 532.042105 189.377358 533.873684 189.981132 536.926316 189.377358 538.757895 191.188679 539.978947 191.792453 541.2 189.981132 543.642105 189.981132 544.863158 191.188679 545.473684 190.584906 547.305263 190.584906 547.915789 189.377358 550.357895 187.566038 551.578947 190.584906 554.021053 191.188679 555.242105 193 556.463158 192.396226 558.905263 191.188679 558.905263 189.377358 560.126316 188.773585 559.515789 185.754717 559.515789 184.54717 560.126316 182.735849 561.347368 181.528302 562.568421 182.132075 562.568421 183.339623 563.178947 183.339623 564.4 182.132075 564.4 180.924528 563.789474 180.320755 564.4 179.113208 565.010526 176.698113 566.231579 176.09434 566.231579 174.886792 568.063158 173.679245 569.284211 174.886792 571.726316 172.471698 571.726316 170.660377 574.778947 168.849057 574.778947 166.433962 575.389474 162.811321 575.389474 159.792453 576 157.377358 575.389474 155.566038 576 153.754717 574.168421 152.54717 576 151.339623 572.336842 129 562.568421 135.037736 558.294737 139.867925 556.463158 140.471698 554.021053 140.471698 551.578947 141.679245 549.747368 142.283019 549.136842 143.490566 545.473684 142.886792 544.252632 142.886792 543.031579 143.490566 541.2 142.886792 544.863158 141.075472 543.642105 141.075472 542.421053 141.679245 539.368421 140.471698 536.315789 139.867925 535.094737 139.264151"></polygon>
            <path d="M318.111842,86 C302.315382,86 271,85.3855422 271,85.3855422 L272.223684,35 C272.223684,35 295.269152,35.7871742 306.791886,35.8735324 C322.598099,35.9919935 354.210526,35.6144578 354.210526,35.6144578 L356.046053,40.5301205 L355.434211,42.373494 L355.434211,49.1325301 L359.105263,57.7349398 L359.717105,60.8072289 L359.717105,65.7228916 L360.328947,68.7951807 L360.328947,70.0240964 L360.940789,74.3253012 L361.552632,76.7831325 L363.388158,79.2409639 L364,85.3855422 C364,85.3855422 333.315382,86 318.111842,86 Z" id="North-Dakota-(ND)" stroke="#313E99" fill="#FFFFFF" stroke-linecap="round" stroke-linejoin="round"></path>
            <polygon id="North-Carolina-(NC)" stroke="#313E99" fill="#06BEE1" stroke-linecap="round" stroke-linejoin="round" points="572.188482 222.070588 648.712042 208 651.141361 210.447059 653.570681 214.117647 650.534031 211.670588 651.141361 213.505882 648.104712 211.670588 646.890052 212.282353 649.926702 214.117647 648.712042 214.729412 646.282723 214.117647 648.104712 215.952941 644.460733 214.117647 644.460733 215.341176 646.282723 216.564706 644.460733 217.788235 642.031414 217.788235 641.424084 215.341176 641.424084 212.894118 640.209424 212.894118 640.209424 216.564706 641.424084 218.4 641.424084 220.235294 644.460733 219.623529 645.675393 218.4 646.890052 219.623529 648.712042 219.011765 649.926702 217.176471 651.141361 219.011765 650.534031 220.847059 651.748691 221.458824 650.534031 222.682353 652.356021 222.682353 652.963351 220.235294 652.356021 218.4 654.17801 218.4 654.78534 217.176471 656 219.623529 656 221.458824 656 223.294118 654.78534 222.682353 654.17801 223.294118 652.963351 226.964706 651.748691 228.188235 649.319372 228.188235 648.104712 226.964706 646.890052 228.188235 646.282723 226.964706 647.497382 225.741176 643.853403 226.352941 645.068063 228.188235 641.424084 228.188235 638.994764 227.576471 640.209424 229.411765 643.853403 230.023529 647.497382 230.023529 647.497382 231.247059 645.068063 232.470588 646.890052 233.082353 645.068063 235.529412 643.246073 235.529412 639.602094 233.694118 642.031414 236.752941 644.460733 237.364706 645.675393 237.364706 646.890052 235.529412 648.104712 236.752941 651.141361 234.917647 648.712042 239.811765 646.890052 238.588235 645.068063 239.811765 642.031414 241.647059 640.209424 240.423529 640.209424 242.258824 638.387435 244.705882 637.780105 242.258824 636.565445 242.258824 637.172775 243.482353 636.565445 244.094118 637.780105 245.317647 635.350785 247.152941 633.528796 250.211765 632.314136 253.270588 632.314136 255.105882 631.099476 252.658824 631.099476 258.164706 626.848168 258.164706 626.240838 258.164706 625.026178 259.388235 623.204188 260 605.591623 247.152941 589.801047 249.6 589.193717 247.152941 586.764398 245.317647 585.549738 246.541176 584.942408 244.705882 566.722513 247.152941 562.471204 248.988235 561.863874 250.211765 561.256545 250.211765 557.005236 252.047059 540 254.494118 540 250.211765 540.60733 249.6 543.036649 250.211765 543.643979 246.541176 547.287958 243.482353 550.324607 243.482353 554.575916 238.588235 557.005236 238.588235 557.612565 235.529412 558.827225 235.529412 559.434555 233.694118 561.256545 233.082353 561.863874 234.305882 563.078534 234.305882 564.293194 231.247059 567.329843 230.635294 568.544503 231.247059 570.366492 226.964706 571.581152 225.741176 572.188482 225.741176"></polygon>
            <path d="M581,123.516129 L581.608187,127.806452 L636.953216,116.16129 L638.777778,116.774194 L639.385965,118 L640.602339,117.387097 L642.426901,118.612903 L642.426901,121.677419 L643.643275,123.516129 L647.292398,123.516129 L648.508772,124.741935 L659.45614,128.419355 L659.45614,127.806452 L658.847953,125.967742 L657.631579,124.741935 L657.631579,122.903226 L658.239766,122.903226 L658.847953,124.129032 L659.45614,125.354839 L660.064327,125.967742 L660.672515,130.870968 L662.497076,129.032258 L663.105263,127.806452 L661.888889,125.967742 L664.321637,122.903226 L663.105263,121.677419 L661.280702,109.419355 L660.672515,109.419355 L661.280702,97.1612903 L660.672515,96.5483871 L658.239766,85.516129 L658.239766,84.2903226 L657.023392,83.0645161 L656.415205,83.6774194 L655.807018,84.2903226 L655.807018,83.0645161 L655.807018,80.6129032 L655.19883,80 L655.19883,79.3870968 L654.590643,78.7741935 L653.982456,76.9354839 L653.374269,76.9354839 L653.374269,73.8709677 L653.982456,72.6451613 L652.766082,70.8064516 L652.157895,68.3548387 L651.549708,67.1290323 L651.549708,65.2903226 L651.549708,64.0645161 L650.94152,63.4516129 L650.94152,61 L633.912281,65.2903226 L632.087719,65.2903226 L629.046784,67.7419355 L627.830409,69.5806452 L624.181287,74.483871 L623.573099,75.7096774 L623.573099,77.5483871 L621.748538,79.3870968 L617.491228,83.6774194 L618.099415,84.2903226 L619.923977,84.2903226 L621.140351,84.2903226 L621.748538,84.9032258 L621.140351,86.1290323 L619.923977,87.9677419 L619.315789,87.9677419 L620.532164,89.1935484 L620.532164,90.4193548 L621.748538,91.0322581 L621.140351,91.6451613 L621.140351,92.8709677 L619.923977,93.483871 L618.707602,93.483871 L616.274854,96.5483871 L615.666667,97.7741935 L613.233918,99 L612.625731,99.6129032 L610.80117,99.6129032 L608.976608,99.6129032 L607.760234,100.225806 L605.327485,101.451613 L604.111111,101.451613 L602.894737,100.225806 L597.421053,100.83871 L596.204678,101.451613 L593.77193,101.451613 L586.473684,104.516129 L587.081871,105.741935 L587.081871,106.967742 L587.081871,107.580645 L589.51462,107.580645 L589.51462,108.806452 L588.906433,110.032258 L590.122807,111.258065 L590.122807,112.483871 L588.906433,114.322581 L587.690058,116.774194 L585.25731,118.612903 L584.040936,120.451613 L581,123.516129 Z M658.847953,134.548387 L658.239766,135.16129 L657.631579,137 L658.847953,136.387097 L659.45614,135.16129 L658.847953,134.548387 Z M660.064327,133.935484 L660.064327,134.548387 L660.672515,135.16129 L661.280702,134.548387 L661.888889,133.935484 L662.497076,133.322581 L663.71345,133.935484 L664.321637,133.322581 L669.187135,130.870968 L671.011696,130.870968 L671.011696,129.645161 L672.22807,129.645161 L674.660819,127.806452 L677.701754,127.193548 L678.309942,125.967742 L677.701754,125.354839 L677.093567,125.967742 L676.48538,125.354839 L678.918129,122.290323 L678.309942,121.677419 L675.877193,124.741935 L675.269006,125.354839 L672.22807,125.967742 L671.011696,125.967742 L670.403509,126.580645 L669.795322,126.580645 L669.795322,127.193548 L667.362573,127.806452 L666.754386,128.419355 L665.538012,127.806452 L665.538012,129.032258 L664.929825,128.419355 L664.321637,129.032258 L664.321637,130.258065 L663.105263,130.870968 L662.497076,131.483871 L661.280702,131.483871 L660.672515,132.096774 L660.064327,133.935484 Z M678.918129,124.741935 L678.918129,125.354839 L679.526316,125.354839 L681.350877,124.129032 L681.959064,122.903226 L683.175439,122.903226 L685,121.064516 L682.567251,122.290323 L681.959064,122.290323 L681.350877,122.290323 L680.134503,122.903226 L679.526316,123.516129 L678.918129,124.741935 Z" id="New-York-(NY)" stroke="#313E99" fill="#FFFFFF" stroke-linecap="round" stroke-linejoin="round"></path>
            <path d="M195.886667,231 C195.886667,231 217.874851,232.896971 228.868943,233.541109 C245.579295,234.52016 279,235.869565 279,235.869565 L279,244.391304 L277.786667,244.391304 L275.36,321.695652 L223.793333,319.26087 L223.793333,321.086957 L225.613333,322.913043 L200.74,321.086957 L200.133333,329 L188,327.782609 L195.886667,231 Z" id="New-Mexico-(NM)" stroke="#313E99" fill="#FFFFFF" stroke-linecap="round" stroke-linejoin="round"></path>
            <polygon id="New-Jersey-(NJ)" stroke="#313E99" fill="#06BEE1" stroke-linecap="round" stroke-linejoin="round" points="648.344828 125 659.517241 128.671642 660.137931 129.283582 659.517241 131.731343 659.517241 133.567164 658.275862 134.179104 657.655172 135.402985 657.034483 137.238806 657.655172 138.462687 660.137931 139.074627 661.37931 139.074627 662 142.134328 661.37931 145.19403 661.37931 147.029851 661.37931 148.865672 660.758621 149.477612 661.37931 150.701493 660.758621 153.149254 660.137931 153.761194 658.896552 153.761194 660.137931 155.597015 658.896552 155.597015 658.896552 156.820896 659.517241 157.432836 658.275862 157.432836 657.655172 158.656716 656.413793 159.268657 657.655172 159.880597 656.413793 162.328358 656.413793 162.940299 655.793103 163.552239 655.793103 164.776119 654.551724 166 654.551724 164.776119 654.551724 161.716418 653.310345 161.716418 652.068966 161.716418 650.827586 162.328358 650.206897 161.104478 648.344828 161.104478 647.724138 159.880597 646.482759 159.880597 644.62069 158.656716 644.62069 156.820896 644 156.208955 644.62069 154.373134 644.62069 153.149254 645.241379 153.149254 646.482759 151.313433 647.724138 150.089552 647.724138 148.865672 652.068966 145.19403 652.068966 143.970149 648.344828 141.522388 647.103448 141.522388 646.482759 139.074627 644.62069 139.686567 644 137.238806 644.62069 135.402985 645.241379 134.179104 644 132.955224 644 131.731343 645.241379 130.507463 646.482759 128.059701 646.482759 126.835821"></polygon>
            <polygon id="New-Hampshire-(NH)" stroke="#313E99" fill="#FFFFFF" stroke-linecap="round" stroke-linejoin="round" points="671.026316 95 683.736842 92 685.552632 91.4 686.763158 89 687.368421 89 687.973684 87.8 689.184211 87.2 690.394737 87.2 690.394737 85.4 691 84.2 688.578947 83 688.578947 81.2 686.157895 80 686.157895 78.2 684.947368 75.2 676.473684 50 675.868421 51.2 674.052632 50.6 673.447368 51.2 673.447368 52.4 672.842105 54.2 672.842105 56 673.447368 57.2 672.236842 59.6 674.052632 62 673.447368 62.6 673.447368 63.8 671.631579 66.8 671.026316 67.4 669.815789 67.4 669.210526 68.6 669.815789 70.4 669.815789 74.6 669.210526 75.2 669.210526 77.6 668.605263 78.8 668.605263 80.6 668 81.2 668.605263 84.8 669.210526 85.4 668.605263 87.8 669.210526 89 669.210526 90.8 668.605263 91.4 668.605263 93.2"></polygon>
            <path d="M101.038163,134.413221 C113.692109,136.332085 139,139.561321 139,139.561321 L126.801418,236.311321 L126.191489,237.528302 L124.971631,239.962264 L123.141844,239.962264 L122.531915,237.528302 L121.312057,238.136792 L119.48227,236.919811 L117.042553,238.136792 L116.432624,240.570755 L117.042553,242.396226 L116.432624,243.613208 L117.042553,246.65566 L116.432624,248.481132 L117.042553,251.523585 L117.042553,253.957547 L115.822695,254.566038 L115.822695,257 L53,177.287736 L62.1489362,128 C62.1489362,128 88.2783972,132.478311 101.038163,134.413221 Z" id="Nevada-(NV)" stroke="#313E99" fill="#FFFFFF" stroke-linecap="round" stroke-linejoin="round"></path>
            <path d="M293.164021,167.151069 L293.164021,184.836444 C293.164021,184.836444 317.423251,185.113216 329.552865,184.946681 C347.035243,184.706655 382,183.616763 382,183.616763 L380.783069,182.397082 L380.783069,181.177401 L379.566138,179.34788 L377.740741,178.128199 L376.52381,175.078996 L375.306878,174.469156 L375.306878,172.029793 L374.089947,170.810112 L374.089947,168.37075 L374.089947,163.492026 L372.873016,162.272345 L374.089947,161.662505 L372.26455,160.442824 L372.26455,158.613302 L370.439153,156.78378 L371.047619,153.124737 L369.830688,151.905056 L369.830688,150.075535 L368.613757,149.465694 L368.005291,147.636173 L366.78836,147.026332 L366.78836,144.58697 L366.179894,141.537767 L363.746032,141.537767 L362.529101,139.708246 L362.529101,138.488565 L360.703704,138.488565 L360.095238,137.878724 L358.269841,137.268884 L356.444444,137.268884 L354.619048,135.439362 L351.57672,136.049203 L350.359788,136.049203 L347.31746,136.049203 L346.100529,137.268884 L344.275132,137.268884 L339.407407,134.219681 C339.407407,134.219681 309.583987,134.318568 294.672277,134.063091 C285.853828,133.912007 268.216931,133 268.216931,133 L267,167.151069 L293.164021,167.151069 Z" id="Nebraska-(NE)" stroke="#313E99" fill="#FFFFFF" stroke-linecap="round" stroke-linejoin="round"></path>
            <path d="M224.909649,97.8362429 C239.190812,98.8201215 270.179916,99.5757576 270.179916,99.5757576 L272,34.7272727 C272,34.7272727 249.646026,33.9548043 225.921017,32.26895 C211.733208,31.2607912 197.055094,29.5366671 186.374058,28.5377852 C167.391632,26.7625638 129.426778,22 129.426778,22 L127,37.1515152 L129.426778,40.7878788 L130.640167,43.8181818 L130.033473,45.030303 L130.640167,46.8484848 L130.033473,46.8484848 L132.460251,49.8787879 L134.280335,51.0909091 L138.527197,56.5454545 L137.920502,57.7575758 L140.34728,60.1818182 L141.560669,60.1818182 L141.560669,62 L145.200837,62 L142.774059,69.2727273 L141.560669,69.8787879 L142.167364,74.7272727 L140.34728,75.3333333 L140.34728,78.969697 L142.774059,81.3939394 L147.627615,77.7575758 L148.841004,80.1818182 L150.054393,85.030303 L152.481172,89.8787879 L151.874477,92.3030303 L153.694561,94.1212121 L155.514644,94.1212121 L156.728033,98.969697 L159.154812,101.393939 L160.368201,99.5757576 L164.615063,100.787879 L165.828452,98.969697 L171.288703,99.5757576 L171.895397,100.181818 L175.535565,100.181818 L176.748954,97.7575758 L177.962343,97.7575758 L180.995816,102 L181.60251,101.393939 L182.209205,93.5151515 C182.209205,93.5151515 209.867242,96.7999195 224.909649,97.8362429 Z" id="Montana-(MT)" stroke="#313E99" fill="#FFFFFF" stroke-linecap="round" stroke-linejoin="round"></path>
            <path d="M397.811169,173.398836 C390.540779,173.811822 376,174.031496 376,174.031496 L376,175.244094 L377.212903,175.850394 L378.425806,178.88189 L380.245161,180.094488 L381.458065,181.913386 L381.458065,183.125984 L382.670968,184.338583 L385.703226,186.15748 L386.916129,185.551181 L388.129032,186.15748 L388.735484,187.976378 L387.522581,188.582677 L386.916129,189.795276 L385.703226,191.614173 L386.916129,192.826772 L388.735484,194.03937 L388.735484,195.251969 L389.948387,197.070866 L391.767742,197.070866 L392.980645,197.677165 L394.193548,234.661417 L394.8,243.149606 L456.051613,238.905512 L457.870968,240.724409 L457.870968,241.937008 L454.83871,246.181102 L454.232258,246.787402 L454.232258,247.393701 L454.232258,248 L462.722581,246.787402 L463.329032,244.968504 L464.541935,244.362205 L463.329032,242.543307 L464.541935,242.543307 L463.935484,240.724409 L465.148387,240.724409 L464.541935,238.299213 L464.541935,237.086614 L465.754839,238.299213 L466.36129,237.692913 L466.967742,235.874016 L466.967742,235.267717 L468.787097,236.480315 L469.393548,234.661417 L470,232.84252 L469.393548,231.629921 L470,229.204724 L468.787097,229.204724 L467.574194,227.992126 L467.574194,229.204724 L465.754839,228.598425 L465.754839,227.385827 L463.935484,224.96063 L463.935484,224.354331 L464.541935,222.535433 L464.541935,221.929134 L463.329032,220.716535 L463.329032,218.291339 L460.903226,217.07874 L459.690323,215.259843 L459.083871,215.259843 L456.658065,214.047244 L455.445161,213.440945 L450.593548,209.80315 L450.593548,207.377953 L452.412903,202.527559 L452.412903,200.708661 L453.019355,199.496063 L451.2,197.677165 L448.774194,197.677165 L446.954839,199.496063 L445.741935,198.283465 L444.529032,195.251969 L444.529032,193.433071 L443.316129,191.614173 L439.677419,189.795276 L439.070968,188.582677 L435.432258,185.551181 L434.825806,184.338583 L434.219355,183.125984 L433.612903,181.913386 L432.4,178.275591 L433.006452,175.850394 L433.612903,174.637795 L429.367742,171 C429.367742,171 408.330027,172.801324 397.811169,173.398836 Z" id="Missouri-(MO)" stroke="#313E99" fill="#FFFFFF" stroke-linecap="round" stroke-linejoin="round"></path>
            <polygon id="Mississippi-(MS)" stroke="#313E99" fill="#FFFFFF" stroke-linecap="round" stroke-linejoin="round" points="486.4875 261 487.1 262.217391 488.325 262.826087 488.325 304.826087 488.325 315.173913 492 339.521739 491.3875 341.347826 488.9375 340.130435 488.325 340.73913 486.4875 340.73913 484.0375 339.521739 481.5875 341.347826 479.75 342.565217 477.9125 341.347826 477.9125 342.565217 477.3 344.391304 474.2375 345 474.2375 343.782609 473.0125 340.73913 471.175 338.913043 470.5625 337.086957 471.175 332.826087 471.175 331.608696 443.6125 334.043478 443.6125 331.608696 443 329.173913 444.225 329.173913 444.8375 327.956522 444.225 325.521739 445.45 323.695652 446.675 319.434783 450.35 316.391304 449.7375 313.956522 450.35 313.956522 451.575 310.304348 449.125 308.478261 449.125 306.652174 447.9 304.826087 449.125 304.217391 448.5125 303.608696 447.9 302.391304 449.125 300.565217 447.2875 299.347826 447.2875 297.521739 448.5125 296.304348 447.2875 294.478261 447.2875 291.434783 446.0625 290.217391 447.2875 289 446.0625 287.782609 447.9 285.347826 447.2875 282.304348 449.7375 281.086957 450.35 280.478261 449.125 279.26087 451.575 276.826087 451.575 275.608696 453.4125 274.391304 453.4125 268.913043 455.25 268.913043 455.25 267.086957 457.0875 265.869565 457.0875 264.043478"></polygon>
            <polygon id="Minnesota-(MN)" stroke="#313E99" fill="#FFFFFF" stroke-linecap="round" stroke-linejoin="round" points="432.596026 121.3625 366.18543 125 365.576159 95.29375 364.357616 93.475 361.92053 92.86875 360.092715 89.23125 361.92053 88.01875 363.139073 86.2 363.748344 84.38125 363.139073 78.31875 361.311258 75.89375 360.701987 73.46875 360.092715 69.225 360.092715 68.0125 359.483444 64.98125 359.483444 60.13125 358.874172 56.49375 355.218543 48.6125 355.218543 41.94375 355.827815 40.125 354 35.275 378.980132 34.0625 378.980132 28 381.417219 28.60625 382.635762 30.425 383.854305 34.0625 383.854305 36.4875 385.682119 38.30625 389.337748 38.30625 389.94702 38.9125 394.821192 39.51875 395.430464 41.3375 397.258278 40.73125 399.695364 40.73125 400.304636 39.51875 402.13245 38.9125 405.788079 38.9125 407.006623 39.51875 409.443709 39.51875 409.443709 40.73125 408.225166 40.73125 408.834437 41.3375 411.271523 41.3375 411.880795 43.7625 413.099338 44.36875 413.708609 44.975 414.317881 42.55 416.754967 42.55 417.364238 44.36875 418.582781 44.36875 420.410596 44.36875 421.019868 46.1875 422.238411 46.1875 422.847682 47.4 425.89404 46.1875 427.112583 45.58125 430.768212 43.15625 432.596026 45.58125 435.033113 44.975 440.516556 44.36875 442.344371 46.1875 443.562914 45.58125 446 45.58125 441.735099 48.6125 435.033113 51.0375 430.768212 54.675 425.89404 60.13125 421.019868 64.98125 417.97351 66.8 417.364238 68.61875 416.754967 69.83125 415.536424 69.83125 416.145695 75.89375 416.145695 79.53125 414.317881 80.74375 411.271523 82.5625 410.662252 84.38125 409.443709 86.2 409.443709 88.01875 411.271523 88.625 412.490066 90.44375 411.880795 92.86875 411.271523 94.6875 411.880795 95.9 411.271523 96.50625 411.880795 97.71875 411.271523 101.35625 414.317881 103.78125 416.754967 103.78125 418.582781 105.6 421.019868 106.20625 423.456954 108.63125 425.284768 111.05625 427.112583 112.26875 429.549669 112.26875 431.986755 114.69375 432.596026 116.5125"></polygon>
            <path d="M492.305085,145 L518.542373,141.328947 L518.542373,142.552632 L535.627119,139.493421 L535.627119,137.657895 L538.067797,134.598684 L538.067797,130.315789 L539.288136,127.868421 L541.118644,127.256579 L540.508475,124.809211 L542.338983,123.585526 L541.728814,122.361842 L542.949153,121.75 L544.779661,123.585526 L546,116.243421 L543.559322,113.184211 L541.728814,107.065789 L539.898305,102.171053 L538.677966,99.7236842 L536.237288,99.7236842 L533.79661,101.559211 L532.576271,101.559211 L530.745763,106.453947 L529.525424,106.453947 L528.915254,108.289474 L527.084746,108.289474 L524.033898,107.677632 L524.644068,102.782895 L527.084746,101.559211 L528.305085,100.335526 L528.305085,97.8881579 L529.525424,96.6644737 L530.745763,95.4407895 L530.135593,88.7105263 L528.915254,86.2631579 L527.084746,85.0394737 L527.694915,83.2039474 L529.525424,83.8157895 L528.305085,81.9802632 L527.084746,81.9802632 L527.084746,79.5328947 L524.644068,79.5328947 L522.813559,78.9210526 L520.983051,78.3092105 L517.322034,78.3092105 L516.711864,76.4736842 L514.881356,75.8618421 L513.050847,75.8618421 L509.389831,74.6381579 L507.559322,75.8618421 L505.728814,77.6973684 L505.728814,79.5328947 L506.338983,80.1447368 L508.779661,80.7565789 L508.169492,81.3684211 L504.508475,82.5921053 L502.677966,83.8157895 L503.288136,86.875 L503.288136,90.5460526 L502.067797,92.9934211 L500.847458,92.3815789 L500.237288,91.1578947 L500.237288,88.0986842 L500.237288,85.6513158 L498.40678,89.3223684 L497.79661,90.5460526 L496.576271,90.5460526 L494.745763,91.7697368 L495.355932,93.6052632 L492.915254,94.8289474 L494.135593,96.6644737 L494.135593,100.947368 L492.915254,103.394737 L491.084746,105.842105 L492.915254,108.289474 L492.915254,110.125 L491.694915,112.572368 L492.915254,115.631579 L494.745763,118.078947 L495.355932,118.690789 L496.576271,118.690789 L495.966102,120.526316 L497.186441,123.585526 L497.79661,125.421053 L497.79661,133.375 L495.966102,137.657895 L494.745763,140.717105 L494.135593,143.776316 L492.305085,145 Z M475.220339,90.5460526 L478.881356,81.9802632 L480.711864,78.9210526 L481.322034,75.25 L482.542373,77.0855263 L482.542373,78.9210526 L484.372881,76.4736842 L486.813559,75.25 L487.423729,77.6973684 L485.59322,79.5328947 L486.20339,80.1447368 L489.254237,76.4736842 L490.474576,74.6381579 L492.915254,73.4144737 L494.745763,74.0263158 L497.79661,72.8026316 L499.016949,70.9671053 L503.288136,70.3552632 L506.949153,71.5789474 L508.779661,73.4144737 L510,69.7434211 L513.050847,69.7434211 L517.932203,70.3552632 L519.762712,69.7434211 L521.59322,69.7434211 L524.033898,69.7434211 L524.033898,68.5197368 L522.813559,67.2960526 L521.59322,69.1315789 L519.152542,69.1315789 L517.322034,67.9078947 L516.101695,67.2960526 L514.881356,66.6842105 L514.881356,65.4605263 L515.491525,63.625 L514.881356,61.1776316 L513.050847,62.4013158 L510.610169,63.625 L509.389831,63.625 L508.779661,63.0131579 L506.949153,63.625 L503.898305,63.0131579 L503.898305,58.7302632 L501.457627,59.3421053 L497.79661,61.7894737 L493.525424,61.1776316 L489.864407,62.4013158 L486.20339,65.4605263 L484.983051,66.6842105 L483.152542,66.0723684 L481.932203,67.2960526 L480.101695,65.4605263 L477.050847,67.2960526 L475.220339,66.6842105 L471.559322,61.7894737 L467.898305,61.1776316 L465.457627,61.7894737 L461.79661,64.2368421 L461.186441,59.9539474 L463.627119,56.8947368 L466.677966,53.8355263 L466.067797,53.2236842 L469.728814,52 L467.898305,52 L464.237288,52.6118421 L460.576271,55.0592105 L459.355932,56.8947368 L457.525424,57.5065789 L456.305085,59.3421053 L455.084746,61.1776316 L453.254237,61.1776316 L450.813559,63.625 L445.322034,64.8486842 L444.101695,66.6842105 L442.271186,67.9078947 L438,69.7434211 L440.440678,70.3552632 L442.271186,72.8026316 L456.915254,75.8618421 L459.355932,77.0855263 L462.40678,76.4736842 L466.067797,77.0855263 L467.898305,77.6973684 L467.898305,79.5328947 L469.728814,79.5328947 L471.559322,80.7565789 L472.779661,83.8157895 L471.559322,86.2631579 L472.169492,86.2631579 L474,85.6513158 L474.610169,85.6513158 L473.389831,89.3223684 L475.220339,90.5460526 Z" id="Michigan-(MI)" stroke="#313E99" fill="#FFFFFF" stroke-linecap="round" stroke-linejoin="round"></path>
            <path d="M661,108.95122 L661.607595,108.95122 L669.506329,107.121951 L670.113924,107.731707 L682.873418,104.073171 L682.873418,104.682927 L687.734177,102.853659 L688.341772,104.682927 L688.949367,104.682927 L689.556962,104.682927 L689.556962,106.512195 L691.379747,107.121951 L691.987342,105.292683 L692.594937,105.292683 L692.594937,106.512195 L691.987342,107.731707 L692.594937,110.170732 L693.202532,110.780488 L693.810127,109.560976 L694.417722,108.95122 L695.025316,109.560976 L695.632911,108.341463 L695.632911,107.121951 L696.240506,107.121951 L697.455696,105.902439 L697.455696,104.682927 L698.670886,104.682927 L699.278481,105.902439 L699.278481,107.731707 L700.493671,107.731707 L701.101266,106.512195 L701.708861,105.902439 L703.531646,105.292683 L707.177215,103.463415 L707.177215,101.634146 L706.56962,101.02439 L705.962025,99.804878 L704.746835,97.9756098 L704.139241,97.9756098 L704.746835,99.195122 C704.746835,99.195122 706.149935,100.52568 706.547688,101.190958 C706.75753,101.54194 706.56962,102.243902 706.56962,102.243902 L704.746835,102.853659 L704.139241,103.463415 L703.531646,104.073171 L702.316456,104.073171 L699.886076,104.073171 L699.278481,102.853659 L699.278481,101.02439 L698.063291,101.634146 L696.240506,101.02439 L696.848101,99.195122 L694.417722,96.7560976 L693.202532,97.3658537 L692.594937,97.9756098 L691.379747,97.3658537 L690.772152,96.7560976 L690.772152,95.5365854 L691.379747,94.9268293 L691.379747,94.3170732 L692.594937,93.7073171 L691.987342,93.097561 L691.987342,91.8780488 L694.417722,91.2682927 L695.025316,90.0487805 L693.810127,90.6585366 L692.594937,90.0487805 L691.987342,89.4390244 L691.987342,88.2195122 L690.772152,88.2195122 L691.379747,87 L690.164557,87 L688.949367,87.6097561 C688.949367,87.6097561 688.544304,88.4227642 688.341772,88.8292683 L687.734177,88.8292683 L686.518987,91.2682927 L684.696203,91.8780488 L671.936709,94.9268293 L661.607595,96.7560976 L661,108.95122 Z M698.670886,110.780488 L698.670886,112 L699.886076,110.780488 L702.316456,110.170732 L700.493671,108.95122 L699.886076,110.170732 L698.670886,110.780488 Z M706.56962,110.170732 L707.177215,110.780488 L708.392405,110.780488 L709,110.170732 L708.392405,108.95122 L707.78481,110.170732 L706.56962,110.170732 Z M691.379747,108.341463 L690.772152,109.560976 L691.379747,111.390244 L691.987342,110.780488 L691.379747,108.341463 Z" id="Massachusetts-(MA)" stroke="#313E99" fill="#FFFFFF" stroke-linecap="round" stroke-linejoin="round"></path>
            <polygon id="Maryland-(MD)" stroke="#313E99" fill="#06BEE1" stroke-linecap="round" stroke-linejoin="round" points="593 164.87234 594.805825 173.510638 597.213592 171.042553 598.417476 169.191489 599.019417 167.957447 600.825243 167.957447 602.631068 166.106383 602.631068 164.255319 603.834951 166.106383 605.640777 166.106383 606.84466 165.489362 607.446602 163.638298 609.252427 163.638298 609.854369 162.404255 610.456311 161.787234 612.864078 163.021277 615.271845 162.404255 614.669903 163.638298 615.271845 163.638298 615.873786 164.87234 617.07767 165.489362 617.07767 166.723404 619.485437 166.723404 621.291262 167.340426 620.68932 169.191489 621.893204 170.425532 624.300971 170.425532 624.902913 171.659574 626.708738 171.659574 627.31068 170.425532 629.116505 172.276596 628.514563 173.510638 628.514563 174.744681 627.912621 175.978723 627.912621 177.212766 626.708738 179.06383 626.708738 180.914894 627.912621 180.914894 627.912621 179.06383 629.116505 179.680851 629.718447 179.06383 630.92233 180.914894 632.126214 181.531915 631.524272 179.680851 632.728155 180.914894 633.330097 182.148936 635.135922 181.531915 636.339806 182.148936 636.941748 182.765957 638.145631 182.148936 639.349515 184 639.951456 182.765957 638.145631 180.914894 637.543689 180.914894 635.737864 179.680851 634.533981 179.06383 633.330097 177.212766 633.330097 174.744681 634.533981 177.212766 635.737864 178.446809 638.145631 179.680851 638.145631 179.06383 635.737864 176.595745 635.737864 174.744681 634.533981 173.510638 634.533981 172.276596 634.533981 170.425532 633.330097 169.808511 634.533981 169.191489 632.728155 168.574468 634.533981 166.723404 632.126214 164.87234 633.330097 164.255319 633.932039 164.87234 633.932039 163.638298 635.135922 162.404255 634.533981 161.787234 635.737864 161.170213 636.339806 162.404255 636.339806 159.93617 636.941748 161.170213 638.145631 160.553191 637.543689 159.319149 638.145631 158.085106 639.349515 156.851064 639.951456 158.702128 641.15534 157.468085 641.15534 158.702128 639.951456 159.93617 641.757282 160.553191 641.15534 161.170213 638.747573 161.787234 637.543689 163.638298 637.543689 166.106383 638.747573 165.489362 639.349515 165.489362 638.747573 167.957447 638.145631 168.574468 636.941748 168.574468 636.941748 169.808511 639.349515 168.574468 639.951456 169.808511 639.349515 171.042553 640.553398 171.042553 639.951456 172.276596 639.349515 172.893617 641.15534 174.12766 642.359223 173.510638 642.961165 174.744681 639.349515 175.361702 639.951456 176.595745 639.349515 177.829787 641.757282 178.446809 642.961165 180.297872 642.961165 178.446809 644.165049 178.446809 645.368932 176.595745 645.368932 178.446809 645.368932 179.680851 645.970874 179.680851 645.368932 180.914894 646.572816 180.914894 647.174757 182.148936 646.572816 184 649.582524 183.382979 652.592233 182.148936 652.592233 180.297872 653.796117 179.680851 653.194175 177.829787 655 177.212766 655 175.978723 653.796117 174.12766 646.572816 175.978723 641.15534 155"></polygon>
            <polygon id="Maine-(ME)" stroke="#313E99" fill="#FFFFFF" stroke-linecap="round" stroke-linejoin="round" points="689.235294 9.42519685 683.729412 23.3700787 684.341176 27.6141732 683.117647 29.4330709 683.117647 30.6456693 682.505882 32.4645669 683.729412 33.0708661 683.117647 33.6771654 683.117647 36.1023622 684.341176 36.1023622 683.117647 38.5275591 683.117647 40.3464567 681.282353 42.7716535 680.670588 44.5905512 681.894118 45.8031496 681.282353 47.015748 680.058824 46.4094488 680.058824 47.015748 680.058824 49.4409449 678.223529 47.6220472 677 49.4409449 686.788235 77.9370079 686.788235 79.7559055 689.235294 80.9685039 689.235294 82.7874016 691.682353 84 692.294118 80.9685039 691.682353 78.5433071 693.517647 77.3307087 694.129412 76.7244094 693.517647 74.2992126 695.352941 73.6929134 694.129412 71.2677165 696.576471 68.2362205 697.8 68.2362205 697.8 70.0551181 698.411765 68.8425197 699.635294 70.0551181 700.247059 68.8425197 697.188235 65.2047244 700.247059 67.6299213 700.247059 64.5984252 702.082353 67.6299213 703.305882 63.3858268 705.141176 64.5984252 706.364706 63.3858268 706.976471 60.9606299 706.364706 56.7165354 706.976471 55.503937 708.2 53.6850394 708.811765 54.8976378 710.035294 56.7165354 711.870588 56.7165354 712.482353 54.2913386 714.317647 54.8976378 715.541176 56.1102362 716.764706 52.4724409 715.541176 51.2598425 717.988235 52.4724409 719.823529 51.2598425 721.658824 47.6220472 722.882353 47.6220472 725.329412 46.4094488 728.388235 43.984252 729 41.5590551 727.164706 42.1653543 727.164706 39.7401575 724.717647 37.9212598 723.494118 38.5275591 721.047059 37.3149606 720.435294 36.1023622 719.823529 34.2834646 720.435294 32.4645669 719.211765 31.8582677 716.152941 31.8582677 714.929412 31.2519685 714.317647 27.6141732 708.2 10.0314961 705.141176 8.81889764 703.305882 7 700.858824 7.60629921 699.635294 9.42519685 697.188235 10.6377953 694.741176 11.8503937 692.905882 11.2440945 692.294118 8.81889764"></polygon>
            <polygon id="Louisiana-(LA)" stroke="#313E99" fill="#06BEE1" stroke-linecap="round" stroke-linejoin="round" points="406 301.429907 446.828125 299 448.65625 300.214953 447.4375 302.037383 448.046875 303.252336 448.65625 303.859813 447.4375 304.46729 448.65625 306.28972 448.65625 308.11215 451.09375 309.934579 449.875 313.579439 449.265625 313.579439 449.875 316.009346 446.21875 319.046729 445 323.299065 443.78125 325.121495 444.390625 327.551402 443.78125 328.766355 442.5625 328.766355 443.171875 331.196262 443.171875 333.626168 470.59375 331.196262 470.59375 332.411215 469.984375 336.663551 470.59375 338.485981 472.421875 340.308411 473.640625 343.953271 473.640625 344.560748 471.8125 344.560748 468.765625 343.953271 466.9375 342.130841 464.5 342.130841 461.453125 345.775701 462.0625 347.598131 464.5 348.205607 466.9375 348.813084 470.59375 346.383178 473.03125 346.383178 472.421875 347.598131 470.59375 348.205607 471.203125 349.420561 472.421875 349.420561 473.640625 350.635514 474.859375 349.420561 476.078125 346.990654 477.296875 349.420561 477.90625 350.635514 476.078125 350.635514 474.859375 353.065421 473.03125 352.457944 473.640625 354.280374 472.421875 354.88785 476.6875 357.925234 481.5625 359.140187 484 362.17757 482.171875 364 480.34375 362.17757 479.734375 362.785047 477.90625 360.962617 475.46875 360.35514 474.859375 359.140187 473.03125 359.747664 471.203125 357.317757 467.546875 356.102804 465.71875 356.102804 466.328125 357.317757 468.15625 358.53271 468.15625 360.35514 468.15625 362.17757 466.9375 364 465.71875 362.785047 465.71875 361.570093 463.28125 360.35514 461.453125 360.962617 460.234375 361.570093 459.625 364 455.359375 363.392523 453.53125 363.392523 450.484375 362.785047 450.484375 361.570093 452.921875 362.17757 452.3125 360.962617 450.484375 359.140187 451.09375 357.317757 450.484375 356.71028 449.265625 358.53271 446.828125 357.925234 446.21875 357.317757 445.609375 356.102804 445 356.71028 444.390625 354.88785 441.34375 355.495327 441.34375 353.672897 439.515625 353.672897 437.078125 354.88785 435.859375 355.495327 437.6875 357.317757 435.25 359.140187 429.15625 359.140187 423.671875 356.102804 420.015625 355.495327 417.578125 356.102804 412.703125 357.317757 411.484375 357.317757 410.875 356.102804 412.703125 355.495327 412.703125 353.672897 412.703125 352.457944 412.703125 351.242991 413.3125 348.813084 412.09375 346.383178 412.703125 345.168224 412.703125 343.345794 413.921875 340.915888 414.53125 339.093458 414.53125 335.448598 415.140625 334.841121 414.53125 334.233645 414.53125 332.411215 412.703125 330.588785 412.703125 328.766355 411.484375 327.551402 411.484375 326.943925 410.265625 325.728972 410.265625 323.299065 408.4375 320.869159 406.609375 319.046729"></polygon>
            <polygon id="Kentucky-(KY)" stroke="#313E99" fill="#FFFFFF" stroke-linecap="round" stroke-linejoin="round" points="466 238 484.828221 236.151163 484.828221 234.918605 484.220859 233.069767 487.865031 233.069767 543.742331 227.523256 544.957055 226.290698 551.638037 222.593023 552.245399 220.744186 555.282209 219.511628 555.282209 218.27907 556.496933 217.046512 556.496933 215.197674 560.748466 212.732558 565 207.186047 565 206.569767 563.177914 206.569767 560.141104 204.72093 557.711656 201.639535 557.104294 200.406977 554.674847 197.94186 555.282209 195.476744 554.674847 193.627907 553.460123 191.77907 551.030675 191.162791 549.815951 188.081395 547.386503 189.930233 546.779141 191.162791 544.957055 191.162791 544.349693 191.77907 543.134969 190.546512 540.705521 190.546512 539.490798 192.395349 538.276074 191.77907 536.453988 189.930233 533.417178 190.546512 531.595092 189.930233 530.98773 188.697674 529.773006 186.232558 528.558282 186.232558 527.343558 185 526.128834 186.232558 524.306748 185 522.484663 186.848837 523.092025 188.081395 523.092025 189.313953 524.306748 189.930233 524.306748 191.77907 522.484663 191.77907 519.447853 193.627907 518.233129 193.011628 515.803681 193.627907 516.411043 196.709302 515.196319 198.55814 513.981595 198.55814 513.981595 201.023256 512.766871 201.639535 511.552147 201.639535 510.944785 204.104651 510.944785 206.569767 509.122699 207.802326 507.300613 206.569767 505.478528 205.953488 504.871166 204.72093 503.656442 206.569767 502.441718 209.034884 501.834356 210.883721 500.619632 210.267442 498.797546 209.034884 496.97546 209.651163 496.368098 210.267442 495.153374 212.732558 493.93865 211.5 490.90184 210.267442 489.079755 211.5 488.472393 210.267442 488.472393 212.116279 487.865031 212.732558 487.257669 211.5 486.042945 212.116279 484.220859 211.5 484.220859 213.965116 482.398773 213.965116 481.791411 215.197674 481.184049 217.046512 482.398773 218.27907 482.398773 219.511628 477.539877 221.360465 476.932515 223.209302 478.147239 225.05814 478.754601 226.290698 477.539877 226.906977 476.932515 226.906977 472.680982 225.05814 470.858896 225.05814 469.644172 226.290698 468.429448 228.139535 469.03681 228.755814 468.429448 229.372093 469.644172 229.372093 469.03681 231.837209 469.644172 233.069767 468.429448 236.767442 466.607362 235.534884 466.607362 236.151163"></polygon>
            <path d="M340.437623,185.195132 C324.698934,185.412475 293.221557,185.23144 293.221557,185.23144 L292,236.336208 C292,236.336208 325.050824,237.168627 341.576236,236.969117 C359.050824,236.758147 394,235.104768 394,235.104768 L392.778443,197.545842 L391.556886,196.930122 L389.724551,196.930122 L388.502994,195.082962 L388.502994,193.851521 L386.670659,192.620081 L385.449102,191.388641 L386.670659,189.541481 L387.281437,188.310041 L388.502994,187.694321 L387.892216,185.84716 L386.670659,185.23144 L385.449102,185.84716 L382.39521,184 C382.39521,184 354.423485,185.001995 340.437623,185.195132 Z" id="Kansas-(KS)" stroke="#313E99" fill="#FFFFFF" stroke-linecap="round" stroke-linejoin="round"></path>
            <path d="M376.230216,174.383721 C376.230216,174.383721 393.755092,173.996504 402.517531,173.494756 C411.692742,172.969372 430.043165,171.302326 430.043165,171.302326 L434.323741,175 L434.935252,174.383721 L434.323741,171.918605 L437.992806,169.453488 L437.992806,166.988372 L440.438849,164.523256 L439.827338,162.674419 L437.381295,160.209302 L438.604317,156.511628 L443.496403,155.27907 L447.165468,152.813953 L447.165468,150.348837 L449,148.5 L448.388489,143.569767 L444.719424,142.337209 L444.719424,140.488372 L441.661871,138.023256 L440.438849,134.94186 L436.769784,134.94186 L434.935252,131.244186 L434.323741,126.930233 L435.546763,125.081395 L433.71223,123.848837 L433.100719,122 L364,125.697674 L364,126.930233 L365.223022,128.162791 L364.611511,130.011628 L365.834532,131.244186 L365.223022,136.174419 L364,138.023256 L365.834532,142.337209 L367.057554,142.337209 L367.669065,145.418605 L367.669065,147.883721 L368.892086,148.5 L369.503597,150.348837 L370.726619,150.965116 L370.726619,152.813953 L371.94964,154.046512 L371.338129,157.744186 L373.172662,159.593023 L373.172662,161.44186 L375.007194,162.674419 L373.784173,163.290698 L375.007194,164.523256 L375.007194,171.918605 L376.230216,173.151163 L376.230216,174.383721 Z" id="Iowa-(IA)" stroke="#313E99" fill="#FFFFFF" stroke-linecap="round" stroke-linejoin="round"></path>
            <polygon id="Indiana-(IN)" stroke="#313E99" fill="#FFFFFF" stroke-linecap="round" stroke-linejoin="round" points="482.614286 146.445378 484.457143 147.655462 486.3 147.655462 491.828571 144.630252 518.242857 141 518.242857 142.210084 523.771429 185.773109 523.157143 186.378151 523.771429 187.588235 523.771429 188.798319 525 189.403361 525 191.218487 523.157143 191.218487 520.085714 193.033613 518.857143 192.428571 516.4 193.033613 517.014286 196.058824 515.785714 197.87395 514.557143 197.87395 514.557143 200.294118 513.328571 200.89916 512.1 200.89916 511.485714 203.319328 511.485714 205.739496 509.642857 206.94958 507.8 205.739496 505.957143 205.134454 505.342857 203.92437 504.114286 205.739496 503.5 206.94958 502.885714 208.159664 502.271429 209.97479 501.042857 209.369748 499.2 208.159664 497.357143 208.764706 496.742857 209.369748 495.514286 211.789916 494.285714 210.579832 491.214286 209.369748 489.371429 210.579832 488.757143 209.369748 488.757143 211.184874 488.142857 211.789916 487.528571 210.579832 486.3 211.184874 484.457143 210.579832 484.457143 211.789916 484.457143 213 482.614286 213 482 211.184874 482.614286 210.579832 482.614286 208.159664 483.842857 206.94958 482.614286 205.739496 483.228571 204.529412 484.457143 203.92437 485.685714 201.504202 486.914286 200.294118 486.914286 198.478992 488.142857 196.663866 488.142857 195.453782 487.528571 193.638655 487.528571 192.428571 486.3 190.613445 485.071429 189.403361 486.3 188.798319 485.685714 186.983193 486.914286 185.773109"></polygon>
            <polygon id="Illinois-(IL)" stroke="#313E99" fill="#FFFFFF" stroke-linecap="round" stroke-linejoin="round" points="477.043478 134 440.521739 137.615385 443.565217 140.025641 443.565217 141.833333 447.217391 143.038462 447.826087 147.858974 446 149.666667 446 152.076923 442.347826 154.487179 437.478261 155.692308 436.26087 159.307692 438.695652 161.717949 439.304348 163.525641 436.869565 165.935897 436.869565 168.346154 433.217391 170.75641 433.826087 173.166667 433.217391 173.769231 432.608696 174.974359 432 177.384615 433.217391 181 435.043478 184.615385 438.695652 187.628205 439.304348 188.833333 442.956522 190.641026 444.173913 192.448718 444.173913 194.25641 445.391304 197.269231 446.608696 198.474359 448.434783 196.666667 450.869565 196.666667 452.695652 198.474359 452.086957 199.076923 452.086957 201.487179 450.26087 206.307692 450.26087 208.717949 455.130435 212.333333 458.782609 214.141026 459.391304 214.141026 460.608696 215.948718 463.043478 217.153846 463.043478 219.564103 464.26087 220.769231 464.26087 221.371795 463.652174 223.179487 463.652174 223.782051 465.478261 226.192308 465.478261 227.397436 467.304348 228 467.304348 226.794872 468.521739 228 469.130435 227.397436 468.521739 226.794872 469.73913 224.987179 470.956522 223.782051 472.782609 223.782051 477.043478 225.589744 477.652174 225.589744 478.869565 224.987179 478.26087 223.782051 477.043478 221.974359 477.652174 220.166667 479.478261 219.564103 482.521739 218.358974 482.521739 217.153846 481.304348 215.948718 481.913043 214.141026 482.521739 212.935897 481.913043 211.128205 482.521739 210.525641 482.521739 208.115385 483.73913 206.910256 482.521739 205.705128 483.130435 204.5 484.347826 203.897436 485.565217 201.487179 486.782609 200.282051 486.782609 198.474359 488 196.666667 488 195.461538 487.391304 193.653846 487.391304 192.448718 486.173913 190.641026 484.956522 189.435897 486.173913 188.833333 485.565217 187.025641 486.782609 185.820513 482.521739 146.653846 480.695652 144.846154 480.086957 143.038462 480.086957 141.230769 478.26087 140.025641 477.652174 138.217949 477.043478 137.615385"></polygon>
            <polygon id="Idaho-(ID)" stroke="#313E99" fill="#FFFFFF" stroke-linecap="round" stroke-linejoin="round" points="177.345865 144 181 102.058824 177.954887 97.8039216 176.736842 97.8039216 175.518797 100.235294 171.864662 100.235294 171.255639 99.627451 165.774436 99.0196078 164.556391 100.843137 160.293233 99.627451 159.075188 101.45098 156.639098 99.0196078 155.421053 94.1568627 153.593985 94.1568627 151.766917 92.3333333 152.37594 89.9019608 149.93985 85.0392157 148.721805 80.1764706 147.503759 77.745098 142.631579 81.3921569 140.195489 78.9607843 140.195489 75.3137255 142.022556 74.7058824 141.413534 69.8431373 142.631579 69.2352941 145.067669 61.9411765 141.413534 61.9411765 141.413534 60.1176471 140.195489 60.1176471 137.759398 57.6862745 138.368421 56.4705882 134.105263 51 132.278195 49.7843137 129.842105 46.745098 130.451128 46.745098 129.842105 44.9215686 130.451128 43.7058824 129.233083 40.6666667 126.796992 37.0196078 129.233083 21.8235294 117.661654 20 110.962406 61.9411765 112.180451 64.372549 112.180451 65.5882353 111.571429 66.1960784 112.180451 69.8431373 115.834586 72.8823529 116.443609 75.9215686 113.398496 79.5686275 112.789474 80.7843137 110.353383 84.4313725 109.744361 86.254902 107.308271 88.6862745 104.263158 92.3333333 103.654135 95.9803922 106.090226 96.5882353 107.308271 97.8039216 106.090226 99.0196078 106.090226 100.843137 104.87218 103.27451 100 133.666667 138.368421 139.137255"></polygon>
            <path d="M327.607143,500 L328.821429,499.392157 L329.428571,497.568627 L332.464286,495.137255 L334.892857,493.921569 L337.321429,493.313725 L340.357143,492.705882 L342.785714,490.882353 L344,488.45098 L340.964286,487.235294 L340.357143,484.803922 L338.535714,484.803922 L338.535714,482.372549 L336.107143,479.941176 L329.428571,477.509804 L328.821429,478.117647 L325.785714,476.294118 L324.571429,475.078431 L322.75,476.294118 L323.964286,478.72549 L324.571429,479.941176 L322.142857,482.980392 L320.321429,485.411765 L321.535714,487.843137 L322.75,490.882353 L323.357143,493.313725 L322.75,496.960784 L323.964286,498.784314 L326.392857,498.784314 L327.607143,500 Z M245.035714,442.254902 L243.214286,444.078431 L242,445.294118 L242,446.509804 L242.607143,447.117647 L243.821429,445.294118 L245.642857,444.686275 L245.642857,442.862745 L245.035714,442.254902 Z M254.75,438 L251.714286,439.823529 L250.5,441.647059 L251.107143,443.470588 L252.928571,443.470588 L254.75,445.294118 L255.964286,445.294118 L258.392857,444.686275 L259,442.254902 L260.214286,440.431373 L258.392857,438.607843 L255.964286,439.215686 L254.75,438 Z M284.5,448.333333 L286.928571,451.372549 L286.928571,453.803922 L289.357143,452.588235 L289.964286,454.411765 L290.571429,456.235294 L288.75,456.235294 L285.714286,455.627451 L283.892857,454.411765 L283.892857,455.627451 L282.678571,456.235294 L280.857143,454.411765 L279.642857,452.588235 L279.035714,450.156863 L281.464286,450.764706 L284.5,448.333333 Z M297.857143,456.843137 L299.071429,457.45098 L300.892857,458.058824 L303.321429,458.058824 L303.321429,457.45098 L304.535714,458.666667 L308.785714,458.666667 L306.357143,460.490196 L303.928571,460.490196 L302.107143,459.27451 L298.464286,459.882353 L297.25,459.882353 L296.642857,458.666667 L297.857143,458.058824 L297.857143,456.843137 Z M302.107143,462.921569 L303.928571,462.921569 L306.357143,464.745098 L304.535714,466.568627 L302.714286,465.960784 L302.714286,464.137255 L301.5,463.529412 L302.107143,462.921569 Z M310.607143,469 L308.178571,469.607843 L308.178571,470.215686 L309.392857,470.823529 L311.214286,470.215686 L310.607143,469 Z M311.821429,465.352941 L313.035714,466.568627 L313.035714,468.392157 L313.642857,469.607843 L314.857143,469 L316.678571,469 L317.892857,467.784314 L319.107143,468.392157 L320.928571,466.568627 L320.928571,465.352941 L319.107143,464.137255 L316.071429,462.313725 L313.642857,463.529412 L312.428571,462.921569 L309.392857,459.882353 L308.785714,461.705882 L308.178571,462.921569 L310,465.352941 L311.821429,465.352941 Z" id="Hawaii-(HI)" stroke="#313E99" fill="#FFFFFF" stroke-linecap="round" stroke-linejoin="round"></path>
            <polygon id="Georgia-(GA)" stroke="#313E99" fill="#FFFFFF" stroke-linecap="round" stroke-linejoin="round" points="556.548387 252 521 256.864 532.032258 290.912 534.483871 296.384 536.322581 298.816 536.322581 301.248 538.16129 301.856 536.322581 303.68 536.322581 306.72 535.096774 307.936 535.096774 310.976 537.548387 314.016 536.935484 320.096 538.774194 321.92 539.387097 323.744 540.612903 325.568 541.225806 328 577.387097 325.568 581.064516 324.96 581.064516 326.176 582.290323 328 584.129032 328 584.741935 324.352 583.516129 323.744 583.516129 321.312 584.741935 320.096 587.806452 320.704 591.483871 320.704 590.258065 318.88 591.483871 316.448 590.258065 316.448 590.870968 315.232 590.258065 314.016 590.258065 313.408 590.258065 311.584 591.483871 311.584 591.483871 313.408 592.709677 310.976 589.645161 310.368 589.645161 309.152 592.709677 309.76 592.096774 308.544 593.935484 306.72 592.096774 307.328 590.870968 306.112 593.322581 305.504 592.096774 304.288 592.709677 303.072 591.483871 302.464 593.935484 302.464 594.548387 301.248 592.709677 300.64 593.322581 299.424 595.774194 300.032 595.774194 298.816 597 297.6 595.16129 296.992 593.935484 296.384 593.322581 296.992 592.096774 295.168 592.096774 292.736 590.258065 290.304 589.645161 289.088 587.806452 289.088 587.193548 287.872 586.580645 285.44 585.354839 283.616 585.354839 282.4 582.290323 280.576 580.451613 280.576 580.451613 279.36 579.225806 278.752 579.225806 277.536 577.387097 276.928 577.387097 275.712 575.548387 273.888 573.709677 273.888 571.870968 270.848 568.806452 269.632 568.193548 268.416 566.967742 268.416 566.354839 266.592 564.516129 265.376 563.903226 264.768 563.290323 262.944 561.451613 261.728 561.451613 259.904 559 260.512 557.16129 259.296 556.548387 258.688 554.709677 258.08 553.483871 257.472 554.709677 255.04 555.322581 253.824"></polygon>
            <polygon id="Florida-(FL)" stroke="#313E99" fill="#06BEE1" stroke-linecap="round" stroke-linejoin="round" points="540.294118 323.662338 502.607843 327.935065 502 330.987013 503.823529 332.818182 505.647059 333.428571 505.647059 335.87013 506.254902 337.090909 507.470588 337.090909 506.254902 339.532468 506.862745 340.142857 509.901961 336.480519 509.294118 334.649351 511.117647 335.87013 511.72549 334.649351 512.941176 334.649351 512.333333 335.87013 514.156863 336.480519 512.941176 337.090909 518.411765 336.480519 519.627451 334.649351 520.843137 334.649351 523.882353 334.038961 525.705882 335.87013 522.666667 336.480519 527.529412 337.701299 531.176471 339.532468 529.352941 337.701299 531.176471 336.480519 531.784314 337.701299 533.607843 335.87013 534.215686 337.090909 532.392157 338.922078 533.607843 339.532468 535.431373 339.532468 536.647059 340.753247 535.431373 341.363636 533.607843 340.753247 536.647059 342.584416 538.470588 344.415584 538.470588 346.246753 540.294118 346.246753 542.72549 345.025974 545.156863 343.194805 545.764706 344.415584 550.019608 340.753247 552.45098 340.753247 550.019608 339.532468 552.45098 337.701299 554.27451 337.090909 557.313725 337.090909 559.745098 338.311688 561.568627 338.311688 564 340.753247 564.607843 341.974026 567.039216 342.584416 567.647059 345.025974 568.862745 346.246753 570.686275 346.857143 571.901961 348.688312 573.72549 349.909091 577.372549 349.909091 578.588235 352.961039 580.411765 354.181818 580.411765 356.623377 581.019608 357.844156 581.019608 363.948052 579.803922 367 581.019608 368.220779 580.411765 372.493506 582.843137 374.324675 583.45098 371.883117 581.627451 370.662338 582.235294 368.831169 584.666667 370.051948 584.666667 371.883117 585.882353 370.051948 586.490196 371.272727 587.098039 372.493506 584.666667 376.155844 584.058824 378.597403 585.882353 380.428571 586.490196 382.25974 588.313725 384.701299 589.529412 386.532468 591.352941 388.363636 593.176471 388.363636 590.745098 385.922078 592.568627 385.922078 595 385.311688 595.607843 385.922078 594.392157 386.532468 595 390.805195 595.607843 392.636364 596.823529 392.025974 596.823529 390.805195 599.254902 388.974026 599.254902 390.194805 598.039216 391.415584 596.823529 393.246753 598.039216 393.857143 598.647059 393.246753 599.862745 395.688312 600.470588 398.74026 602.294118 401.181818 607.156863 402.402597 608.980392 403.623377 608.980392 404.844156 609.588235 405.454545 611.411765 407.285714 612.627451 409.727273 615.666667 410.337662 616.882353 411.558442 615.666667 412.779221 612.627451 410.948052 612.627451 412.779221 613.843137 414 616.882353 413.38961 617.490196 412.168831 619.921569 412.779221 621.745098 410.337662 623.568627 410.337662 625.392157 407.285714 624.176471 406.064935 625.392157 401.792208 626 398.12987 626 395.077922 626 391.415584 625.392157 390.805195 625.392157 385.922078 624.784314 382.25974 623.568627 381.038961 623.568627 379.818182 621.137255 377.376623 619.921569 377.376623 619.313725 376.155844 621.137255 376.766234 619.921569 374.324675 619.313725 373.714286 616.882353 369.441558 614.45098 365.779221 611.411765 360.896104 608.372549 356.623377 607.156863 352.350649 608.372549 351.74026 608.980392 354.181818 610.803922 354.181818 605.333333 347.467532 599.862745 340.142857 596.215686 331.597403 595.607843 330.376623 594.392157 327.935065 593.784314 324.883117 591.960784 323.662338 591.960784 321.831169 593.176471 321.831169 593.176471 320.61039 588.313725 320.61039 585.27451 320 584.058824 321.220779 584.058824 323.662338 585.27451 324.272727 584.666667 327.935065 582.843137 327.935065 581.627451 326.103896 581.627451 324.883117 577.980392 325.493506 542.117647 327.935065 541.509804 325.493506"></polygon>
            <polygon id="Delaware-(DE)" stroke="#313E99" fill="#FFFFFF" stroke-linecap="round" stroke-linejoin="round" points="646.478261 175 653.782609 173.153846 655 172.538462 655 171.923077 654.391304 170.692308 652.565217 171.307692 653.173913 170.076923 653.173913 168.846154 654.391304 168.230769 653.173913 167.615385 651.956522 167 650.130435 165.769231 650.130435 164.538462 647.695652 163.307692 647.695652 160.846154 644.043478 157.769231 644.043478 155.923077 643.434783 155.307692 643.434783 154.076923 644.652174 152.846154 645.26087 151 642.826087 151 641.608696 152.230769 641 154.076923"></polygon>
            <polygon id="Connecticut-(CT)" stroke="#313E99" fill="#FFFFFF" stroke-linecap="round" stroke-linejoin="round" points="661 108.888889 662.846154 121.111111 664.076923 122.333333 661.615385 125.388889 662.846154 126 664.692308 126 667.769231 122.333333 669.615385 121.722222 670.846154 119.888889 672.076923 119.888889 675.153846 118.666667 678.230769 118.055556 677.615385 116.833333 679.461538 117.444444 680.692308 116.833333 682.538462 116.222222 683.769231 115.611111 685 115.611111 685 113.166667 682.538462 104 669.615385 107.666667 669 107.055556"></polygon>
            <path d="M251.391304,166.630252 C236.593969,165.952886 201.478261,163 201.478261,163 L196,230.159664 C196,230.159664 219.145498,232.135366 232.848682,232.820696 C251.406368,233.748811 292.782609,235 292.782609,235 L294,167.235294 C294,167.235294 267.434549,167.364651 251.391304,166.630252 Z" id="Colorado-(CO)" stroke="#313E99" fill="#FFFFFF" stroke-linecap="round" stroke-linejoin="round"></path>
            <polygon id="California-(CA)" stroke="#313E99" fill="#06BEE1" stroke-linecap="round" stroke-linejoin="round" points="61.2121212 127.935154 7.87878788 117 7.87878788 118.822526 6.66666667 120.645051 7.87878788 121.860068 7.87878788 127.327645 5.45454545 132.187713 5.45454545 133.40273 4.84848485 135.832765 5.45454545 136.440273 3.63636364 137.047782 3.03030303 138.262799 1.81818182 138.870307 0 141.90785 0 144.945392 2.42424242 148.590444 3.03030303 149.805461 4.84848485 153.450512 4.84848485 158.918089 3.03030303 161.955631 3.63636364 163.778157 4.24242424 168.030717 3.03030303 168.638225 7.27272727 175.928328 9.6969697 178.358362 9.6969697 180.788396 10.9090909 182.610922 12.1212121 185.040956 12.1212121 186.255973 10.3030303 183.825939 10.3030303 185.040956 12.7272727 188.686007 13.3333333 188.686007 15.1515152 190.508532 16.3636364 185.648464 18.1818182 185.040956 20.6060606 187.47099 21.8181818 186.863481 23.030303 186.255973 23.6363636 187.47099 24.8484848 188.078498 26.6666667 188.078498 28.4848485 188.686007 30.3030303 190.508532 29.6969697 190.508532 27.8787879 189.293515 26.6666667 189.901024 24.8484848 189.293515 21.8181818 188.078498 20.6060606 188.686007 19.3939394 187.47099 17.5757576 188.686007 17.5757576 189.293515 18.1818182 190.508532 18.1818182 191.723549 19.3939394 192.938567 19.3939394 195.368601 19.3939394 197.191126 20.6060606 197.798635 20 198.406143 18.1818182 197.191126 16.3636364 194.761092 16.3636364 193.546075 16.3636364 191.723549 15.1515152 191.723549 14.5454545 192.938567 15.1515152 194.153584 14.5454545 195.976109 15.1515152 198.406143 14.5454545 200.836177 16.3636364 204.481229 18.1818182 206.303754 20.6060606 206.911263 21.8181818 209.341297 21.2121212 211.771331 19.3939394 212.986348 18.7878788 212.986348 18.7878788 217.846416 19.3939394 219.061433 21.2121212 220.883959 21.8181818 223.313993 23.030303 223.921502 23.030303 226.351536 24.2424242 228.174061 24.2424242 229.996587 26.6666667 231.211604 27.2727273 233.641638 29.6969697 234.856655 29.6969697 236.679181 28.4848485 237.894198 29.0909091 239.109215 31.5151515 240.324232 31.5151515 242.146758 30.9090909 244.576792 30.9090909 247.006826 30.9090909 248.829352 29.6969697 250.044369 31.5151515 250.651877 32.1212121 252.474403 36.3636364 252.474403 36.969697 253.68942 38.7878788 253.68942 40 254.904437 41.8181818 255.511945 43.6363636 254.904437 47.2727273 257.94198 48.4848485 260.979522 52.7272727 263.409556 53.9393939 264.017065 57.5757576 264.017065 59.3939394 266.447099 58.7878788 269.484642 60 270.09215 61.2121212 269.484642 63.030303 270.09215 65.4545455 273.129693 69.0909091 277.382253 70.9090909 279.204778 72.1212121 282.849829 72.7272727 285.887372 72.1212121 288.317406 72.7272727 289.532423 73.9393939 290.74744 73.9393939 292.569966 107.878788 295 108.484848 294.392491 110.30303 295 110.909091 295 111.515152 293.784983 112.121212 292.569966 112.121212 290.139932 109.69697 289.532423 109.090909 288.317406 109.69697 286.494881 109.69697 282.849829 111.515152 282.849829 112.727273 280.419795 113.333333 277.989761 113.939394 275.559727 113.939394 274.34471 115.151515 273.129693 115.757576 271.914676 118.181818 270.699659 120 268.877133 116.969697 265.83959 116.363636 262.194539 115.151515 259.764505 114.545455 258.549488 114.545455 256.726962 52.1212121 177.143345"></polygon>
            <polygon id="Arkansas-(AR)" stroke="#313E99" fill="#FFFFFF" stroke-linecap="round" stroke-linejoin="round" points="399.2 291.701923 398 261.413462 395 243.846154 395 243.240385 455.6 239 457.4 240.817308 457.4 242.028846 454.4 246.269231 453.8 246.875 453.8 248.086538 462.2 246.875 463.4 247.480769 464 248.086538 462.2 248.086538 462.2 249.298077 462.8 249.903846 459.8 251.721154 460.4 254.144231 460.4 255.355769 459.2 255.355769 458.6 257.778846 458 259.596154 459.2 262.019231 457.4 262.019231 456.2 264.442308 456.2 266.259615 454.4 267.471154 454.4 269.288462 452.6 269.288462 452.6 274.740385 450.8 275.951923 450.8 277.163462 448.4 279.586538 449.6 280.798077 449 281.403846 446.6 282.615385 447.2 285.644231 445.4 288.067308 446.6 289.278846 445.4 290.490385 446.6 291.701923 446.6 294.730769 447.8 296.548077 446.6 297.759615 446.6 299.576923 405.8 302 405.8 292.913462 405.2 292.307692 402.2 292.307692 401.6 292.913462 400.4 292.307692"></polygon>
            <path d="M153.040231,226.282732 C167.360154,227.823966 196,230.298246 196,230.298246 L188.129252,327 L159.068027,324.567251 L107,298.415205 L107.605442,296.590643 L108.816327,294.766082 L109.421769,294.157895 L111.238095,294.766082 L111.843537,294.766082 L113.054422,292.333333 L113.054422,289.900585 L110.632653,289.292398 L110.027211,288.076023 L110.632653,286.251462 L110.632653,282.602339 L112.44898,282.602339 L113.659864,280.169591 L114.870748,275.304094 L114.870748,274.087719 L116.081633,272.871345 L116.687075,271.654971 L119.108844,270.438596 L120.92517,268.614035 L117.897959,265.573099 L117.292517,261.923977 L115.47619,258.274854 L115.47619,254.017544 L116.687075,253.409357 L116.687075,250.976608 L116.081633,247.935673 L116.687075,246.111111 L116.081633,243.070175 L116.687075,241.853801 L116.081633,240.02924 L116.687075,237.596491 L119.108844,236.380117 L120.92517,237.596491 L122.136054,236.988304 L122.741497,239.421053 L124.557823,239.421053 L126.37415,235.77193 L128.190476,223 C128.190476,223 144.75698,225.391217 153.040231,226.282732 Z" id="Arizona-(AZ)" stroke="#313E99" fill="#FFFFFF" stroke-linecap="round" stroke-linejoin="round"></path>
            <polygon id="Alabama-(AL)" stroke="#313E99" fill="#FFFFFF" stroke-linecap="round" stroke-linejoin="round" points="486 260.280576 486.606742 261.503597 487.820225 262.115108 487.820225 314.705036 491.460674 339.165468 493.88764 339.165468 495.101124 340.388489 495.707865 340.388489 495.707865 336.719424 496.314607 333.05036 498.741573 334.884892 498.134831 337.330935 499.348315 338.553957 501.775281 341 503.595506 340.388489 502.988764 339.165468 504.202247 339.165468 506.022472 336.719424 505.41573 335.496403 505.41573 333.05036 503.595506 332.438849 501.775281 330.604317 502.382022 327.546763 540 323.266187 539.393258 321.431655 537.573034 319.597122 538.179775 313.482014 535.752809 310.42446 535.752809 307.366906 536.966292 306.143885 536.966292 303.086331 538.786517 301.251799 536.966292 300.640288 536.966292 298.194245 535.146067 295.748201 532.719101 290.244604 521.797753 256"></polygon>
            <path d="M50.8571582,8.99998212 C50.8571582,6.63948823 48.9319327,4.71426272 46.5714388,4.71426272 C44.2109449,4.71426272 42.2857194,6.63948823 42.2857194,8.99998212 C42.2857194,11.360476 44.2109449,13.2857015 46.5714388,13.2857015 C48.9319327,13.2857015 50.8571582,11.360476 50.8571582,8.99998212 Z M55.1428776,8.99998212 C55.1428776,10.0211887 55.0256899,11.0758775 54.5904216,11.9966375 L48.4966643,24.9542422 C48.1451014,25.6908502 47.3750112,26.1428597 46.5714388,26.1428597 C45.7678664,26.1428597 44.9977762,25.6908502 44.6629544,24.9542422 L38.552456,11.9966375 C38.1171876,11.0758775 38,10.0211887 38,8.99998212 C38,4.26225326 41.8337099,0.428543329 46.5714388,0.428543329 C51.3091677,0.428543329 55.1428776,4.26225326 55.1428776,8.99998212 Z" id="map-marker---FontAwesome" fill="#EE4266"></path>
            <path d="M469.857158,336.999982 C469.857158,334.639488 467.931933,332.714263 465.571439,332.714263 C463.210945,332.714263 461.285719,334.639488 461.285719,336.999982 C461.285719,339.360476 463.210945,341.285702 465.571439,341.285702 C467.931933,341.285702 469.857158,339.360476 469.857158,336.999982 Z M474.142878,336.999982 C474.142878,338.021189 474.02569,339.075877 473.590422,339.996637 L467.496664,352.954242 C467.145101,353.69085 466.375011,354.14286 465.571439,354.14286 C464.767866,354.14286 463.997776,353.69085 463.662954,352.954242 L457.552456,339.996637 C457.117188,339.075877 457,338.021189 457,336.999982 C457,332.262253 460.83371,328.428543 465.571439,328.428543 C470.309168,328.428543 474.142878,332.262253 474.142878,336.999982 Z" id="map-marker---FontAwesome-Copy-3" fill="#EE4266"></path>
            <path d="M590.857158,352.571439 C590.857158,350.210945 588.931933,348.285719 586.571439,348.285719 C584.210945,348.285719 582.285719,350.210945 582.285719,352.571439 C582.285719,354.931933 584.210945,356.857158 586.571439,356.857158 C588.931933,356.857158 590.857158,354.931933 590.857158,352.571439 Z M595.142878,352.571439 C595.142878,353.592645 595.02569,354.647334 594.590422,355.568094 L588.496664,368.525699 C588.145101,369.262307 587.375011,369.714316 586.571439,369.714316 C585.767866,369.714316 584.997776,369.262307 584.662954,368.525699 L578.552456,355.568094 C578.117188,354.647334 578,353.592645 578,352.571439 C578,347.83371 581.83371,344 586.571439,344 C591.309168,344 595.142878,347.83371 595.142878,352.571439 Z" id="map-marker---FontAwesome-Copy-4" fill="#EE4266"></path>
            <path d="M543.857158,322.571439 C543.857158,320.210945 541.931933,318.285719 539.571439,318.285719 C537.210945,318.285719 535.285719,320.210945 535.285719,322.571439 C535.285719,324.931933 537.210945,326.857158 539.571439,326.857158 C541.931933,326.857158 543.857158,324.931933 543.857158,322.571439 Z M548.142878,322.571439 C548.142878,323.592645 548.02569,324.647334 547.590422,325.568094 L541.496664,338.525699 C541.145101,339.262307 540.375011,339.714316 539.571439,339.714316 C538.767866,339.714316 537.997776,339.262307 537.662954,338.525699 L531.552456,325.568094 C531.117188,324.647334 531,323.592645 531,322.571439 C531,317.83371 534.83371,314 539.571439,314 C544.309168,314 548.142878,317.83371 548.142878,322.571439 Z" id="map-marker---FontAwesome-Copy-13" fill="#EE4266"></path>
            <path d="M609.857158,267.999982 C609.857158,265.639488 607.931933,263.714263 605.571439,263.714263 C603.210945,263.714263 601.285719,265.639488 601.285719,267.999982 C601.285719,270.360476 603.210945,272.285702 605.571439,272.285702 C607.931933,272.285702 609.857158,270.360476 609.857158,267.999982 Z M614.142878,267.999982 C614.142878,269.021189 614.02569,270.075877 613.590422,270.996637 L607.496664,283.954242 C607.145101,284.69085 606.375011,285.14286 605.571439,285.14286 C604.767866,285.14286 603.997776,284.69085 603.662954,283.954242 L597.552456,270.996637 C597.117188,270.075877 597,269.021189 597,267.999982 C597,263.262253 600.83371,259.428543 605.571439,259.428543 C610.309168,259.428543 614.142878,263.262253 614.142878,267.999982 Z" id="map-marker---FontAwesome-Copy-5" fill="#EE4266"></path>
            <path d="M644.857158,187.571439 C644.857158,185.210945 642.931933,183.285719 640.571439,183.285719 C638.210945,183.285719 636.285719,185.210945 636.285719,187.571439 C636.285719,189.931933 638.210945,191.857158 640.571439,191.857158 C642.931933,191.857158 644.857158,189.931933 644.857158,187.571439 Z M649.142878,187.571439 C649.142878,188.592645 649.02569,189.647334 648.590422,190.568094 L642.496664,203.525699 C642.145101,204.262307 641.375011,204.714316 640.571439,204.714316 C639.767866,204.714316 638.997776,204.262307 638.662954,203.525699 L632.552456,190.568094 C632.117188,189.647334 632,188.592645 632,187.571439 C632,182.83371 635.83371,179 640.571439,179 C645.309168,179 649.142878,182.83371 649.142878,187.571439 Z" id="map-marker---FontAwesome-Copy-6" fill="#EE4266"></path>
            <path d="M625.714281,177.571439 C625.714281,175.210945 623.789055,173.285719 621.428561,173.285719 C619.068067,173.285719 617.142842,175.210945 617.142842,177.571439 C617.142842,179.931933 619.068067,181.857158 621.428561,181.857158 C623.789055,181.857158 625.714281,179.931933 625.714281,177.571439 Z M630,177.571439 C630,178.592645 629.882812,179.647334 629.447544,180.568094 L623.353787,193.525699 C623.002224,194.262307 622.232134,194.714316 621.428561,194.714316 C620.624989,194.714316 619.854899,194.262307 619.520077,193.525699 L613.409578,180.568094 C612.97431,179.647334 612.857122,178.592645 612.857122,177.571439 C612.857122,172.83371 616.690832,169 621.428561,169 C626.16629,169 630,172.83371 630,177.571439 Z" id="map-marker---FontAwesome-Copy-12" fill="#EE4266"></path>
            <path d="M615.857158,206.571439 C615.857158,204.210945 613.931933,202.285719 611.571439,202.285719 C609.210945,202.285719 607.285719,204.210945 607.285719,206.571439 C607.285719,208.931933 609.210945,210.857158 611.571439,210.857158 C613.931933,210.857158 615.857158,208.931933 615.857158,206.571439 Z M620.142878,206.571439 C620.142878,207.592645 620.02569,208.647334 619.590422,209.568094 L613.496664,222.525699 C613.145101,223.262307 612.375011,223.714316 611.571439,223.714316 C610.767866,223.714316 609.997776,223.262307 609.662954,222.525699 L603.552456,209.568094 C603.117188,208.647334 603,207.592645 603,206.571439 C603,201.83371 606.83371,198 611.571439,198 C616.309168,198 620.142878,201.83371 620.142878,206.571439 Z" id="map-marker---FontAwesome-Copy-10" fill="#EE4266"></path>
            <path d="M638.857158,145.571439 C638.857158,143.210945 636.931933,141.285719 634.571439,141.285719 C632.210945,141.285719 630.285719,143.210945 630.285719,145.571439 C630.285719,147.931933 632.210945,149.857158 634.571439,149.857158 C636.931933,149.857158 638.857158,147.931933 638.857158,145.571439 Z M643.142878,145.571439 C643.142878,146.592645 643.02569,147.647334 642.590422,148.568094 L636.496664,161.525699 C636.145101,162.262307 635.375011,162.714316 634.571439,162.714316 C633.767866,162.714316 632.997776,162.262307 632.662954,161.525699 L626.552456,148.568094 C626.117188,147.647334 626,146.592645 626,145.571439 C626,140.83371 629.83371,137 634.571439,137 C639.309168,137 643.142878,140.83371 643.142878,145.571439 Z" id="map-marker---FontAwesome-Copy-7" fill="#EE4266"></path>
            <path d="M658.857158,129.714281 C658.857158,127.353787 656.931933,125.428561 654.571439,125.428561 C652.210945,125.428561 650.285719,127.353787 650.285719,129.714281 C650.285719,132.074774 652.210945,134 654.571439,134 C656.931933,134 658.857158,132.074774 658.857158,129.714281 Z M663.142878,129.714281 C663.142878,130.735487 663.02569,131.790176 662.590422,132.710936 L656.496664,145.668541 C656.145101,146.405149 655.375011,146.857158 654.571439,146.857158 C653.767866,146.857158 652.997776,146.405149 652.662954,145.668541 L646.552456,132.710936 C646.117188,131.790176 646,130.735487 646,129.714281 C646,124.976552 649.83371,121.142842 654.571439,121.142842 C659.309168,121.142842 663.142878,124.976552 663.142878,129.714281 Z" id="map-marker---FontAwesome-Copy-11" fill="#EE4266"></path>
            <path d="M693.857158,94.9999821 C693.857158,92.6394882 691.931933,90.7142627 689.571439,90.7142627 C687.210945,90.7142627 685.285719,92.6394882 685.285719,94.9999821 C685.285719,97.360476 687.210945,99.2857015 689.571439,99.2857015 C691.931933,99.2857015 693.857158,97.360476 693.857158,94.9999821 Z M698.142878,94.9999821 C698.142878,96.0211887 698.02569,97.0758775 697.590422,97.9966375 L691.496664,110.954242 C691.145101,111.69085 690.375011,112.14286 689.571439,112.14286 C688.767866,112.14286 687.997776,111.69085 687.662954,110.954242 L681.552456,97.9966375 C681.117188,97.0758775 681,96.0211887 681,94.9999821 C681,90.2622533 684.83371,86.4285433 689.571439,86.4285433 C694.309168,86.4285433 698.142878,90.2622533 698.142878,94.9999821 Z" id="map-marker---FontAwesome-Copy-8" fill="#EE4266"></path>
            <path d="M55.8571582,242.571439 C55.8571582,240.210945 53.9319327,238.285719 51.5714388,238.285719 C49.2109449,238.285719 47.2857194,240.210945 47.2857194,242.571439 C47.2857194,244.931933 49.2109449,246.857158 51.5714388,246.857158 C53.9319327,246.857158 55.8571582,244.931933 55.8571582,242.571439 Z M60.1428776,242.571439 C60.1428776,243.592645 60.0256899,244.647334 59.5904216,245.568094 L53.4966643,258.525699 C53.1451014,259.262307 52.3750112,259.714316 51.5714388,259.714316 C50.7678664,259.714316 49.9977762,259.262307 49.6629544,258.525699 L43.552456,245.568094 C43.1171876,244.647334 43,243.592645 43,242.571439 C43,237.83371 46.8337099,234 51.5714388,234 C56.3091677,234 60.1428776,237.83371 60.1428776,242.571439 Z" id="map-marker---FontAwesome-Copy" fill="#EE4266"></path>
            <path d="M50.8571582,201.571439 C50.8571582,199.210945 48.9319327,197.285719 46.5714388,197.285719 C44.2109449,197.285719 42.2857194,199.210945 42.2857194,201.571439 C42.2857194,203.931933 44.2109449,205.857158 46.5714388,205.857158 C48.9319327,205.857158 50.8571582,203.931933 50.8571582,201.571439 Z M55.1428776,201.571439 C55.1428776,202.592645 55.0256899,203.647334 54.5904216,204.568094 L48.4966643,217.525699 C48.1451014,218.262307 47.3750112,218.714316 46.5714388,218.714316 C45.7678664,218.714316 44.9977762,218.262307 44.6629544,217.525699 L38.552456,204.568094 C38.1171876,203.647334 38,202.592645 38,201.571439 C38,196.83371 41.8337099,193 46.5714388,193 C51.3091677,193 55.1428776,196.83371 55.1428776,201.571439 Z" id="map-marker---FontAwesome-Copy-9" fill="#EE4266"></path>
            <path d="M80.8571582,276.999982 C80.8571582,274.639488 78.9319327,272.714263 76.5714388,272.714263 C74.2109449,272.714263 72.2857194,274.639488 72.2857194,276.999982 C72.2857194,279.360476 74.2109449,281.285702 76.5714388,281.285702 C78.9319327,281.285702 80.8571582,279.360476 80.8571582,276.999982 Z M85.1428776,276.999982 C85.1428776,278.021189 85.0256899,279.075877 84.5904216,279.996637 L78.4966643,292.954242 C78.1451014,293.69085 77.3750112,294.14286 76.5714388,294.14286 C75.7678664,294.14286 74.9977762,293.69085 74.6629544,292.954242 L68.552456,279.996637 C68.1171876,279.075877 68,278.021189 68,276.999982 C68,272.262253 71.8337099,268.428543 76.5714388,268.428543 C81.3091677,268.428543 85.1428776,272.262253 85.1428776,276.999982 Z" id="map-marker---FontAwesome-Copy-2" fill="#EE4266"></path>
        </g>
    </g>
</svg>